{"glyphs":{"0":{"ha":385,"x_min":0,"x_max":0,"o":"m 363 221 b 194 -7 363 67 303 -7 b 21 225 82 -7 21 75 l 21 697 b 194 928 21 847 82 928 b 363 700 303 928 363 854 m 224 701 b 192 799 224 767 213 799 b 161 701 171 799 161 767 l 161 221 b 192 122 161 154 171 122 b 224 221 213 122 224 154 "},"1":{"ha":242,"x_min":0,"x_max":0,"o":"m 83 0 l 83 751 l 13 751 l 13 861 b 100 922 72 861 94 890 l 219 922 l 219 0 "},"2":{"ha":371,"x_min":0,"x_max":0,"o":"m 21 0 l 21 203 b 75 376 21 272 36 324 b 197 517 111 425 164 469 b 221 600 215 542 221 558 l 221 756 b 189 797 221 783 210 797 b 158 754 168 797 158 782 l 158 638 l 25 638 l 25 740 b 190 928 25 864 46 928 b 354 760 322 928 354 874 l 354 597 b 308 454 354 532 339 494 b 196 324 278 414 226 365 b 163 233 168 288 163 264 l 163 124 l 354 124 l 354 0 "},"3":{"ha":371,"x_min":0,"x_max":0,"o":"m 357 175 b 188 -7 357 58 299 -7 b 21 174 79 -7 21 53 l 21 268 l 154 268 l 154 164 b 185 122 154 136 164 122 b 217 164 206 122 217 136 l 217 381 b 176 428 217 413 203 428 l 133 428 l 133 543 l 182 543 b 217 589 204 543 217 558 l 217 756 b 185 797 217 783 206 797 b 154 756 164 797 154 783 l 154 661 l 21 661 l 21 740 b 186 928 21 860 82 928 b 346 771 299 928 346 847 l 346 604 b 275 493 346 543 324 501 l 275 488 b 357 371 321 479 357 444 "},"4":{"ha":379,"x_min":0,"x_max":0,"o":"m 182 640 l 176 640 l 104 333 l 182 333 m 179 0 l 179 217 l 13 217 l 13 332 l 154 922 l 315 922 l 315 333 l 367 333 l 367 217 l 315 217 l 315 0 "},"5":{"ha":378,"x_min":0,"x_max":0,"o":"m 356 175 b 188 -7 356 58 299 -7 b 21 171 104 -7 21 29 l 21 238 l 154 238 l 154 164 b 185 122 154 136 164 122 b 217 164 206 122 217 136 l 217 415 b 185 457 217 447 203 457 b 151 439 172 457 161 451 l 21 439 l 38 922 l 335 922 l 335 799 l 158 799 l 149 544 l 154 544 b 236 576 172 565 200 576 b 356 431 297 576 356 546 "},"6":{"ha":378,"x_min":0,"x_max":0,"o":"m 356 174 b 190 -7 356 51 299 -7 b 21 175 78 -7 21 58 l 21 743 b 192 928 21 861 79 928 b 356 763 296 928 356 869 l 356 690 l 224 690 l 224 756 b 192 797 224 783 213 797 b 161 756 171 797 161 783 l 161 525 l 167 525 b 250 578 186 563 215 578 b 356 453 315 578 356 529 m 224 419 b 192 461 224 447 213 461 b 161 429 175 461 164 450 l 161 164 b 192 122 161 136 171 122 b 224 164 213 122 224 136 "},"7":{"ha":311,"x_min":0,"x_max":0,"o":"m 51 0 b 176 796 58 239 121 603 l 13 796 l 13 922 l 299 922 l 299 806 b 189 0 238 600 189 242 "},"8":{"ha":371,"x_min":0,"x_max":0,"o":"m 215 756 b 185 797 215 783 204 797 b 154 756 165 797 154 783 l 154 586 b 185 540 154 556 165 540 b 215 586 204 540 215 556 m 217 383 b 185 424 217 411 206 424 b 154 383 164 424 154 411 l 154 164 b 185 122 154 136 164 122 b 217 164 206 122 217 136 m 356 175 b 185 -7 356 58 299 -7 b 14 175 71 -7 14 58 l 14 368 b 96 485 14 440 50 476 l 96 490 b 25 601 47 499 25 539 l 25 771 b 185 928 25 849 72 928 b 346 771 297 928 346 849 l 346 601 b 274 490 346 539 322 499 l 274 485 b 356 368 319 476 356 440 "},"9":{"ha":378,"x_min":0,"x_max":0,"o":"m 217 424 l 211 424 b 126 371 190 386 163 371 b 21 496 63 371 21 419 l 21 747 b 188 928 21 869 79 928 b 356 746 300 928 356 864 l 356 179 b 186 -7 356 60 299 -7 b 24 158 81 -7 24 51 l 24 246 l 154 246 l 154 165 b 185 125 154 138 164 125 b 217 167 206 125 217 138 m 217 757 b 185 799 217 785 206 799 b 154 757 164 799 154 785 l 154 529 b 185 488 154 501 164 488 b 217 519 203 488 213 499 "},"\u0000":{"ha":0,"x_min":0,"x_max":0,"o":""}," ":{"ha":128,"x_min":0,"x_max":0,"o":""},"\u0017":{"ha":128,"x_min":0,"x_max":0,"o":""},"!":{"ha":207,"x_min":0,"x_max":0,"o":"m 33 0 l 33 136 l 171 136 l 171 0 m 56 239 b 31 524 42 329 31 425 l 31 922 l 175 922 l 175 574 b 150 239 175 456 167 344 "},"\"":{"ha":297,"x_min":0,"x_max":0,"o":"m 21 635 l 21 933 l 126 933 l 126 635 m 169 635 l 169 933 l 275 933 l 275 635 "},"#":{"ha":410,"x_min":0,"x_max":0,"o":"m 54 0 l 72 282 l 24 282 l 32 374 l 78 374 l 90 557 l 40 557 l 49 650 l 96 650 l 114 922 l 208 922 l 190 650 l 242 650 l 260 922 l 354 922 l 336 650 l 388 650 l 379 557 l 331 557 l 319 374 l 371 374 l 363 282 l 314 282 l 296 0 l 200 0 l 218 282 l 168 282 l 150 0 m 174 374 l 224 374 l 236 557 l 185 557 "},"$":{"ha":400,"x_min":0,"x_max":0,"o":"m 146 -83 l 146 13 b 21 192 60 28 21 85 l 21 276 l 154 276 l 154 171 b 193 131 154 146 167 131 b 229 179 225 131 228 154 l 229 307 b 203 361 229 326 218 344 b 81 472 175 392 121 425 b 24 610 49 510 24 558 l 24 744 b 146 910 24 840 60 896 l 146 1014 l 250 1014 l 250 908 b 365 726 338 889 365 824 l 365 650 l 233 650 l 233 749 b 199 789 233 775 221 789 b 164 753 175 789 164 774 l 164 639 b 196 567 164 599 168 592 b 333 454 253 515 303 490 b 378 315 364 419 378 371 l 378 186 b 250 13 378 85 338 26 l 250 -83 "},"%":{"ha":417,"x_min":0,"x_max":0,"o":"m 46 -22 l 293 944 l 368 944 l 121 -22 m 179 594 b 94 489 179 524 151 489 b 8 597 38 489 8 532 l 8 818 b 94 925 8 889 38 925 b 179 818 151 925 179 889 m 108 819 b 93 860 108 846 103 860 b 78 819 83 860 78 846 l 78 594 b 93 554 78 568 83 554 b 108 594 103 554 108 568 m 408 101 b 324 -4 408 31 381 -4 b 238 104 267 -4 238 39 l 238 325 b 324 432 238 396 267 432 b 408 325 381 432 408 396 m 338 326 b 322 367 338 353 332 367 b 307 326 313 367 307 353 l 307 101 b 322 61 307 75 313 61 b 338 101 332 61 338 75 "},"&":{"ha":375,"x_min":0,"x_max":0,"o":"m 21 371 b 104 489 21 447 58 479 l 104 494 b 32 604 56 503 32 539 l 32 764 b 192 922 32 842 79 922 l 235 922 l 235 790 l 193 790 b 163 749 172 790 163 776 l 163 589 b 196 543 163 549 174 543 l 208 543 l 208 428 l 192 428 b 163 381 172 428 163 413 l 163 164 b 199 122 163 136 175 122 b 235 164 222 122 235 136 l 235 543 l 357 543 l 357 174 b 192 -7 357 53 301 -7 b 21 175 79 -7 21 58 "},"'":{"ha":149,"x_min":0,"x_max":0,"o":"m 21 635 l 21 933 l 126 933 l 126 635 "},"(":{"ha":233,"x_min":0,"x_max":0,"o":"m 126 -199 b 42 417 71 -25 42 197 b 126 1011 42 628 68 839 l 221 1011 b 161 414 182 822 161 619 b 221 -199 161 211 181 3 "},")":{"ha":233,"x_min":0,"x_max":0,"o":"m 13 -199 b 72 415 53 3 72 211 b 13 1011 72 619 51 822 l 107 1011 b 192 418 165 840 192 628 b 107 -199 192 197 163 -25 "},"*":{"ha":338,"x_min":0,"x_max":0,"o":"m 233 621 l 167 707 l 104 621 l 43 663 l 108 754 l 10 785 l 32 851 l 126 821 l 126 933 l 207 933 l 207 821 l 301 851 l 326 785 l 228 754 l 292 663 "},"+":{"ha":357,"x_min":0,"x_max":0,"o":"m 125 306 l 125 411 l 21 411 l 21 515 l 125 515 l 125 619 l 229 619 l 229 515 l 335 515 l 335 411 l 229 411 l 229 306 "},",":{"ha":181,"x_min":0,"x_max":0,"o":"m 21 -131 b 81 -32 61 -108 81 -75 l 81 0 l 21 0 l 21 136 l 158 136 l 158 -12 b 21 -207 158 -126 110 -190 "},"-":{"ha":175,"x_min":0,"x_max":0,"o":"m 17 368 l 17 483 l 158 483 l 158 368 "},"­":{"ha":175,"x_min":0,"x_max":0,"o":"m 158 368 l 158 483 l 17 483 l 17 368 "},".":{"ha":181,"x_min":0,"x_max":0,"o":"m 21 0 l 21 136 l 158 136 l 158 0 "},"/":{"ha":218,"x_min":0,"x_max":0,"o":"m 0 0 l 108 922 l 218 922 l 108 0 "},"З":{"ha":371,"x_min":0,"x_max":0,"o":"m 357 371 b 275 488 357 444 321 479 l 275 493 b 346 604 324 501 346 543 l 346 771 b 186 928 346 847 299 928 b 21 740 82 928 21 860 l 21 661 l 154 661 l 154 756 b 185 797 154 783 164 797 b 217 756 206 797 217 783 l 217 589 b 182 543 217 558 204 543 l 133 543 l 133 428 l 176 428 b 217 381 203 428 217 413 l 217 164 b 185 122 217 136 206 122 b 154 164 164 122 154 136 l 154 268 l 21 268 l 21 174 b 188 -7 21 53 79 -7 b 357 175 299 -7 357 58 "},":":{"ha":181,"x_min":0,"x_max":0,"o":"m 21 42 l 21 178 l 158 178 l 158 42 m 21 506 l 21 642 l 158 642 l 158 506 "},";":{"ha":181,"x_min":0,"x_max":0,"o":"m 21 506 l 21 642 l 158 642 l 158 506 m 21 -89 b 81 10 61 -67 81 -33 l 81 42 l 21 42 l 21 178 l 158 178 l 158 29 b 21 -165 158 -85 110 -149 "},"<":{"ha":357,"x_min":0,"x_max":0,"o":"m 21 407 l 21 518 l 335 657 l 335 539 l 136 464 l 136 458 l 335 382 l 335 267 "},"=":{"ha":357,"x_min":0,"x_max":0,"o":"m 21 521 l 21 625 l 335 625 l 335 521 m 21 299 l 21 403 l 335 403 l 335 299 "},">":{"ha":357,"x_min":0,"x_max":0,"o":"m 21 267 l 21 382 l 221 458 l 221 464 l 21 539 l 21 657 l 335 518 l 335 407 "},"?":{"ha":361,"x_min":0,"x_max":0,"o":"m 110 0 l 110 129 l 247 129 l 247 0 m 114 232 l 114 332 b 133 444 114 386 121 417 b 199 568 154 490 182 526 b 208 638 206 585 208 603 l 208 750 b 176 797 208 783 199 797 b 146 742 150 797 146 779 l 146 654 l 13 654 l 13 714 b 181 928 13 854 31 928 b 342 733 317 928 342 868 l 342 629 b 328 532 342 582 336 554 b 257 397 310 483 275 444 b 244 308 247 371 244 346 l 244 232 "},"@":{"ha":492,"x_min":0,"x_max":0,"o":"m 411 -87 b 257 -117 376 -107 324 -117 b 21 172 43 -117 21 -17 l 21 575 b 250 867 21 764 46 867 b 469 582 446 867 469 772 l 469 256 b 354 125 469 169 428 125 b 286 153 318 125 299 135 l 281 153 b 224 125 263 129 243 125 b 150 249 167 125 150 168 l 150 490 b 218 639 150 585 154 639 b 276 610 243 639 263 629 l 281 610 l 286 633 l 344 633 l 344 215 b 365 196 344 206 347 196 b 386 229 382 196 386 207 l 386 581 b 251 783 386 739 368 783 b 108 575 122 783 108 736 l 108 174 b 257 -25 108 19 124 -25 b 392 -4 304 -25 350 -19 m 231 239 b 251 203 231 210 238 203 b 272 243 265 203 272 210 l 272 536 b 253 564 272 557 267 564 b 231 539 238 564 231 557 "},"A":{"ha":388,"x_min":0,"x_max":0,"o":"m 242 0 l 226 210 l 156 210 l 142 0 l 4 0 l 94 922 l 292 922 l 382 0 m 164 331 l 218 331 l 194 688 l 189 688 "},"Α":{"ha":388,"x_min":0,"x_max":0,"o":"m 382 0 l 292 922 l 94 922 l 4 0 l 142 0 l 156 210 l 226 210 l 242 0 m 189 688 l 194 688 l 218 331 l 164 331 "},"А":{"ha":388,"x_min":0,"x_max":0,"o":"m 242 0 l 226 210 l 156 210 l 142 0 l 4 0 l 94 922 l 292 922 l 382 0 m 164 331 l 218 331 l 194 688 l 189 688 "},"B":{"ha":379,"x_min":0,"x_max":0,"o":"m 21 0 l 21 922 l 217 922 b 354 776 317 922 354 868 l 354 601 b 282 492 354 540 331 500 l 282 486 b 364 368 328 478 364 454 l 364 124 b 232 0 364 42 328 0 m 224 378 b 183 425 224 410 210 425 l 160 425 l 160 121 l 183 121 b 224 171 210 121 224 138 m 222 751 b 188 801 222 786 215 801 l 160 801 l 160 540 l 188 540 b 222 586 211 540 222 556 "},"Β":{"ha":379,"x_min":0,"x_max":0,"o":"m 232 0 b 364 124 328 0 364 42 l 364 368 b 282 486 364 454 328 478 l 282 492 b 354 601 331 500 354 540 l 354 776 b 217 922 354 868 317 922 l 21 922 l 21 0 m 224 171 b 183 121 224 138 210 121 l 160 121 l 160 425 l 183 425 b 224 378 210 425 224 410 m 222 586 b 188 540 222 556 211 540 l 160 540 l 160 801 l 188 801 b 222 751 215 801 222 786 "},"В":{"ha":379,"x_min":0,"x_max":0,"o":"m 21 0 l 21 922 l 217 922 b 354 776 317 922 354 868 l 354 601 b 282 492 354 540 331 500 l 282 486 b 364 368 328 478 364 454 l 364 124 b 232 0 364 42 328 0 m 224 378 b 183 425 224 410 210 425 l 160 425 l 160 121 l 183 121 b 224 171 210 121 224 138 m 222 751 b 188 801 222 786 215 801 l 160 801 l 160 540 l 188 540 b 222 586 211 540 222 556 "},"C":{"ha":378,"x_min":0,"x_max":0,"o":"m 224 376 l 356 376 l 356 174 b 190 -7 356 53 299 -7 b 21 175 79 -7 21 58 l 21 749 b 189 928 21 869 76 928 b 356 750 296 928 356 876 l 356 592 l 224 592 l 224 756 b 192 797 224 783 213 797 b 161 756 171 797 161 783 l 161 164 b 190 122 161 135 168 122 b 224 164 213 122 224 135 "},"С":{"ha":378,"x_min":0,"x_max":0,"o":"m 224 164 b 190 122 224 135 213 122 b 161 164 168 122 161 135 l 161 756 b 192 797 161 783 171 797 b 224 756 213 797 224 783 l 224 592 l 356 592 l 356 750 b 189 928 356 876 296 928 b 21 749 76 928 21 869 l 21 175 b 190 -7 21 58 79 -7 b 356 174 299 -7 356 53 l 356 376 l 224 376 "},"D":{"ha":385,"x_min":0,"x_max":0,"o":"m 21 0 l 21 922 l 199 922 b 363 756 308 922 363 867 l 363 175 b 199 0 363 53 306 0 m 189 126 b 221 206 210 126 221 153 l 221 724 b 179 796 221 772 207 796 l 160 796 l 160 126 "},"E":{"ha":300,"x_min":0,"x_max":0,"o":"m 21 0 l 21 922 l 282 922 l 282 796 l 160 796 l 160 547 l 267 547 l 267 419 l 160 419 l 160 126 l 290 126 l 290 0 "},"Ε":{"ha":300,"x_min":0,"x_max":0,"o":"m 290 0 l 290 126 l 160 126 l 160 419 l 267 419 l 267 547 l 160 547 l 160 796 l 282 796 l 282 922 l 21 922 l 21 0 "},"Е":{"ha":300,"x_min":0,"x_max":0,"o":"m 21 0 l 21 922 l 282 922 l 282 796 l 160 796 l 160 547 l 267 547 l 267 419 l 160 419 l 160 126 l 290 126 l 290 0 "},"F":{"ha":300,"x_min":0,"x_max":0,"o":"m 21 0 l 21 922 l 288 922 l 288 796 l 163 796 l 163 535 l 264 535 l 264 408 l 163 408 l 163 0 "},"G":{"ha":378,"x_min":0,"x_max":0,"o":"m 265 0 l 260 36 l 254 36 b 169 -7 242 15 222 -7 b 21 175 76 -7 21 60 l 21 743 b 188 928 21 860 79 928 b 356 740 297 928 356 858 l 356 638 l 224 638 l 224 756 b 192 797 224 783 213 797 b 161 756 171 797 161 783 l 161 164 b 192 122 161 136 171 122 b 224 164 213 122 224 136 l 224 350 l 183 350 l 183 475 l 356 475 l 356 0 "},"H":{"ha":389,"x_min":0,"x_max":0,"o":"m 225 0 l 225 429 l 163 429 l 163 0 l 21 0 l 21 922 l 163 922 l 163 556 l 225 556 l 225 922 l 367 922 l 367 0 "},"Η":{"ha":389,"x_min":0,"x_max":0,"o":"m 367 0 l 367 922 l 225 922 l 225 556 l 163 556 l 163 922 l 21 922 l 21 0 l 163 0 l 163 429 l 225 429 l 225 0 "},"Н":{"ha":389,"x_min":0,"x_max":0,"o":"m 225 0 l 225 429 l 163 429 l 163 0 l 21 0 l 21 922 l 163 922 l 163 556 l 225 556 l 225 922 l 367 922 l 367 0 "},"I":{"ha":185,"x_min":0,"x_max":0,"o":"m 21 0 l 21 922 l 163 922 l 163 0 "},"Ι":{"ha":185,"x_min":0,"x_max":0,"o":"m 163 0 l 163 922 l 21 922 l 21 0 "},"І":{"ha":185,"x_min":0,"x_max":0,"o":"m 21 0 l 21 922 l 163 922 l 163 0 "},"Ӏ":{"ha":185,"x_min":0,"x_max":0,"o":"m 163 0 l 163 922 l 21 922 l 21 0 "},"ӏ":{"ha":185,"x_min":0,"x_max":0,"o":"m 21 0 l 21 922 l 163 922 l 163 0 "},"J":{"ha":369,"x_min":0,"x_max":0,"o":"m 208 922 l 347 922 l 347 175 b 179 -7 347 58 290 -7 b 13 174 71 -7 13 53 l 13 349 l 146 349 l 146 164 b 176 122 146 136 156 122 b 208 164 197 122 208 136 "},"Ј":{"ha":369,"x_min":0,"x_max":0,"o":"m 208 164 b 176 122 208 136 197 122 b 146 164 156 122 146 136 l 146 349 l 13 349 l 13 174 b 179 -7 13 53 71 -7 b 347 175 290 -7 347 58 l 347 922 l 208 922 "},"K":{"ha":383,"x_min":0,"x_max":0,"o":"m 235 0 l 192 349 l 188 349 l 165 258 l 165 0 l 21 0 l 21 922 l 165 922 l 165 604 l 171 604 b 238 922 176 646 188 692 l 379 922 l 292 574 l 378 0 "},"Κ":{"ha":383,"x_min":0,"x_max":0,"o":"m 378 0 l 292 574 l 379 922 l 238 922 b 171 604 188 692 176 646 l 165 604 l 165 922 l 21 922 l 21 0 l 165 0 l 165 258 l 188 349 l 192 349 l 235 0 "},"К":{"ha":383,"x_min":0,"x_max":0,"o":"m 235 0 l 192 349 l 188 349 l 165 258 l 165 0 l 21 0 l 21 922 l 165 922 l 165 604 l 171 604 b 238 922 176 646 188 692 l 379 922 l 292 574 l 378 0 "},"L":{"ha":308,"x_min":0,"x_max":0,"o":"m 21 0 l 21 922 l 163 922 l 163 129 l 296 129 l 296 0 "},"M":{"ha":551,"x_min":0,"x_max":0,"o":"m 404 0 l 404 357 b 410 643 404 403 407 596 l 404 643 l 335 0 l 215 0 l 146 643 l 140 643 b 146 357 144 597 146 550 l 146 0 l 21 0 l 21 922 l 233 922 l 275 340 l 281 340 l 324 922 l 529 922 l 529 0 "},"Μ":{"ha":551,"x_min":0,"x_max":0,"o":"m 529 0 l 529 922 l 324 922 l 281 340 l 275 340 l 233 922 l 21 922 l 21 0 l 146 0 l 146 357 b 140 643 146 550 144 597 l 146 643 l 215 0 l 335 0 l 404 643 l 410 643 b 404 357 407 596 404 403 l 404 0 "},"М":{"ha":551,"x_min":0,"x_max":0,"o":"m 404 0 l 404 357 b 410 643 404 403 407 596 l 404 643 l 335 0 l 215 0 l 146 643 l 140 643 b 146 357 144 597 146 550 l 146 0 l 21 0 l 21 922 l 233 922 l 275 340 l 281 340 l 324 922 l 529 922 l 529 0 "},"N":{"ha":408,"x_min":0,"x_max":0,"o":"m 222 0 l 142 640 l 136 640 b 142 296 140 571 142 489 l 142 0 l 21 0 l 21 922 l 208 922 l 265 329 l 271 329 b 265 717 268 417 265 501 l 265 922 l 388 922 l 388 0 "},"Ν":{"ha":408,"x_min":0,"x_max":0,"o":"m 388 0 l 388 922 l 265 922 l 265 717 b 271 329 265 501 268 417 l 265 329 l 208 922 l 21 922 l 21 0 l 142 0 l 142 296 b 136 640 142 489 140 571 l 142 640 l 222 0 "},"O":{"ha":376,"x_min":0,"x_max":0,"o":"m 358 174 b 189 -7 358 53 297 -7 b 17 175 78 -7 17 58 l 17 743 b 188 928 17 860 79 928 b 358 740 296 928 358 858 m 219 756 b 188 797 219 783 208 797 b 157 756 167 797 157 783 l 157 164 b 188 122 157 136 167 122 b 219 164 208 122 219 136 "},"Ο":{"ha":376,"x_min":0,"x_max":0,"o":"m 358 740 b 188 928 358 858 296 928 b 17 743 79 928 17 860 l 17 175 b 189 -7 17 58 78 -7 b 358 174 297 -7 358 53 m 219 164 b 188 122 219 136 208 122 b 157 164 167 122 157 136 l 157 756 b 188 797 157 783 167 797 b 219 756 208 797 219 783 "},"О":{"ha":376,"x_min":0,"x_max":0,"o":"m 358 174 b 189 -7 358 53 297 -7 b 17 175 78 -7 17 58 l 17 743 b 188 928 17 860 79 928 b 358 740 296 928 358 858 m 219 756 b 188 797 219 783 208 797 b 157 756 167 797 157 783 l 157 164 b 188 122 157 136 167 122 b 219 164 208 122 219 136 "},"P":{"ha":372,"x_min":0,"x_max":0,"o":"m 163 350 l 163 0 l 21 0 l 21 922 l 221 922 b 358 776 321 922 358 868 l 358 494 b 221 350 358 403 321 350 m 163 471 l 192 471 b 225 517 214 471 225 488 l 225 760 b 192 796 225 785 214 796 l 163 796 "},"Ρ":{"ha":372,"x_min":0,"x_max":0,"o":"m 221 350 b 358 494 321 350 358 403 l 358 776 b 221 922 358 868 321 922 l 21 922 l 21 0 l 163 0 l 163 350 m 163 796 l 192 796 b 225 760 214 796 225 785 l 225 517 b 192 471 225 488 214 471 l 163 471 "},"Р":{"ha":372,"x_min":0,"x_max":0,"o":"m 163 350 l 163 0 l 21 0 l 21 922 l 221 922 b 358 776 321 922 358 868 l 358 494 b 221 350 358 403 321 350 m 163 471 l 192 471 b 225 517 214 471 225 488 l 225 760 b 192 796 225 785 214 796 l 163 796 "},"Q":{"ha":375,"x_min":0,"x_max":0,"o":"m 358 175 b 249 7 358 83 319 26 l 249 -172 b 274 -199 249 -190 257 -199 b 297 -172 290 -199 297 -190 l 297 -19 l 422 -19 l 422 -162 b 278 -324 422 -261 383 -324 b 129 -162 169 -324 129 -258 l 129 7 b 17 176 58 25 17 82 l 17 740 b 185 928 17 860 74 928 b 358 740 296 928 358 860 m 219 753 b 186 797 219 779 208 797 b 157 754 164 797 157 778 l 157 171 b 188 129 157 142 165 129 b 219 171 208 129 219 142 "},"R":{"ha":378,"x_min":0,"x_max":0,"o":"m 21 0 l 21 922 l 222 922 b 358 776 322 922 358 868 l 358 569 b 283 458 358 508 329 467 l 283 453 b 361 342 329 446 361 418 l 361 0 l 222 0 l 222 354 b 190 393 222 379 213 393 l 160 393 l 160 0 m 222 760 b 188 796 222 785 211 796 l 160 796 l 160 508 l 188 508 b 222 554 211 508 222 525 "},"S":{"ha":392,"x_min":0,"x_max":0,"o":"m 229 650 l 229 757 b 194 797 229 783 217 797 b 160 761 171 797 160 782 l 160 681 b 189 588 160 629 164 615 b 335 443 238 532 300 489 b 374 296 361 407 374 371 l 374 172 b 194 -7 374 56 319 -7 b 17 174 71 -7 17 54 l 17 276 l 150 276 l 150 163 b 189 122 150 138 164 122 b 225 163 214 122 225 138 l 225 264 b 188 379 225 332 215 349 b 58 525 143 428 90 469 b 21 688 33 568 21 611 l 21 765 b 192 928 21 869 81 928 b 361 740 317 928 361 854 l 361 650 "},"Ѕ":{"ha":392,"x_min":0,"x_max":0,"o":"m 361 650 l 361 740 b 192 928 361 854 317 928 b 21 765 81 928 21 869 l 21 688 b 58 525 21 611 33 568 b 188 379 90 469 143 428 b 225 264 215 349 225 332 l 225 163 b 189 122 225 138 214 122 b 150 163 164 122 150 138 l 150 276 l 17 276 l 17 174 b 194 -7 17 54 71 -7 b 374 172 319 -7 374 56 l 374 296 b 335 443 374 371 361 407 b 189 588 300 489 238 532 b 160 681 164 615 160 629 l 160 761 b 194 797 160 782 171 797 b 229 757 217 797 229 783 l 229 650 "},"T":{"ha":364,"x_min":0,"x_max":0,"o":"m 111 0 l 111 796 l 13 796 l 13 922 l 351 922 l 351 796 l 251 796 l 251 0 "},"Τ":{"ha":364,"x_min":0,"x_max":0,"o":"m 251 0 l 251 796 l 351 796 l 351 922 l 13 922 l 13 796 l 111 796 l 111 0 "},"Т":{"ha":364,"x_min":0,"x_max":0,"o":"m 111 0 l 111 796 l 13 796 l 13 922 l 351 922 l 351 796 l 251 796 l 251 0 "},"U":{"ha":383,"x_min":0,"x_max":0,"o":"m 221 922 l 361 922 l 361 175 b 192 -7 361 58 303 -7 b 21 174 83 -7 21 53 l 21 922 l 158 922 l 158 164 b 190 122 158 136 169 122 b 221 164 211 122 221 136 "},"V":{"ha":388,"x_min":0,"x_max":0,"o":"m 94 0 l 4 922 l 144 922 l 193 258 l 199 258 l 246 922 l 382 922 l 292 0 "},"W":{"ha":575,"x_min":0,"x_max":0,"o":"m 68 0 l 4 922 l 140 922 l 169 276 l 175 276 l 213 922 l 363 922 l 404 276 l 410 276 l 438 922 l 571 922 l 507 0 l 328 0 l 290 647 l 285 647 l 247 0 "},"X":{"ha":406,"x_min":0,"x_max":0,"o":"m 396 922 l 294 486 l 400 0 l 257 0 l 204 313 l 199 313 l 146 0 l 4 0 l 113 467 l 8 922 l 150 922 l 201 632 l 207 632 l 258 922 "},"Χ":{"ha":406,"x_min":0,"x_max":0,"o":"m 258 922 l 207 632 l 201 632 l 150 922 l 8 922 l 113 467 l 4 0 l 146 0 l 199 313 l 204 313 l 257 0 l 400 0 l 294 486 l 396 922 "},"Х":{"ha":406,"x_min":0,"x_max":0,"o":"m 396 922 l 294 486 l 400 0 l 257 0 l 204 313 l 199 313 l 146 0 l 4 0 l 113 467 l 8 922 l 150 922 l 201 632 l 207 632 l 258 922 "},"Y":{"ha":383,"x_min":0,"x_max":0,"o":"m 124 0 l 124 379 l 3 922 l 142 922 l 193 621 l 199 621 l 243 922 l 381 922 l 265 378 l 265 0 "},"Υ":{"ha":383,"x_min":0,"x_max":0,"o":"m 265 0 l 265 378 l 381 922 l 243 922 l 199 621 l 193 621 l 142 922 l 3 922 l 124 379 l 124 0 "},"Ү":{"ha":383,"x_min":0,"x_max":0,"o":"m 124 0 l 124 379 l 3 922 l 142 922 l 193 621 l 199 621 l 243 922 l 381 922 l 265 378 l 265 0 "},"Z":{"ha":350,"x_min":0,"x_max":0,"o":"m 13 0 l 13 129 l 190 796 l 14 796 l 14 922 l 332 922 l 332 794 l 157 126 l 338 126 l 338 0 "},"Ζ":{"ha":350,"x_min":0,"x_max":0,"o":"m 338 0 l 338 126 l 157 126 l 332 794 l 332 922 l 14 922 l 14 796 l 190 796 l 13 129 l 13 0 "},"[":{"ha":233,"x_min":0,"x_max":0,"o":"m 44 -181 l 44 999 l 221 999 l 221 886 l 149 886 l 149 -69 l 221 -69 l 221 -181 "},"\\":{"ha":218,"x_min":0,"x_max":0,"o":"m 108 0 l 0 922 l 110 922 l 218 0 "},"]":{"ha":233,"x_min":0,"x_max":0,"o":"m 13 -181 l 13 -69 l 85 -69 l 85 886 l 13 886 l 13 999 l 189 999 l 189 -181 "},"^":{"ha":357,"x_min":0,"x_max":0,"o":"m 119 922 l 239 922 l 354 601 l 235 601 l 181 799 l 175 799 l 121 601 l 4 601 "},"_":{"ha":254,"x_min":0,"x_max":0,"o":"m 0 -144 l 0 -58 l 257 -58 l 257 -144 "},"`":{"ha":261,"x_min":0,"x_max":0,"o":"m 21 857 l 90 938 l 239 769 l 188 717 "},"a":{"ha":369,"x_min":0,"x_max":0,"o":"m 213 342 b 178 329 203 336 192 333 b 149 286 157 324 149 308 l 149 142 b 181 110 149 121 160 110 b 213 133 200 110 208 118 m 221 0 l 218 50 l 213 50 b 117 -7 200 28 181 -7 b 17 106 39 -7 17 42 l 17 261 b 142 407 17 350 51 383 b 211 456 190 419 211 425 l 211 546 b 182 574 211 564 201 574 b 150 542 161 574 150 563 l 150 461 l 25 461 l 25 558 b 192 689 25 647 88 689 b 346 567 293 689 346 650 l 346 0 "},"а":{"ha":369,"x_min":0,"x_max":0,"o":"m 213 133 b 181 110 208 118 200 110 b 149 142 160 110 149 121 l 149 286 b 178 329 149 308 157 324 b 213 342 192 333 203 336 m 346 0 l 346 567 b 192 689 346 650 293 689 b 25 558 88 689 25 647 l 25 461 l 150 461 l 150 542 b 182 574 150 563 161 574 b 211 546 201 574 211 564 l 211 456 b 142 407 211 425 190 419 b 17 261 51 383 17 350 l 17 106 b 117 -7 17 42 39 -7 b 213 50 181 -7 200 28 l 218 50 l 221 0 "},"b":{"ha":376,"x_min":0,"x_max":0,"o":"m 24 0 l 24 933 l 157 933 l 157 639 l 163 639 b 249 689 183 674 210 689 b 353 526 328 689 353 629 l 353 147 b 246 -7 353 53 315 -7 b 153 58 204 -7 175 11 l 147 58 l 146 0 m 217 531 b 185 572 217 558 206 572 b 154 542 167 572 157 563 l 154 142 b 185 110 157 121 167 110 b 217 151 206 110 217 124 "},"c":{"ha":368,"x_min":0,"x_max":0,"o":"m 217 247 l 344 247 l 344 156 b 185 -7 344 47 296 -7 b 24 156 75 -7 24 46 l 24 526 b 186 689 24 636 75 689 b 344 526 296 689 344 636 l 344 439 l 217 439 l 217 526 b 186 568 217 554 207 568 b 154 526 165 568 154 554 l 154 156 b 185 114 154 128 165 114 b 217 156 206 114 217 128 "},"с":{"ha":368,"x_min":0,"x_max":0,"o":"m 217 156 b 185 114 217 128 206 114 b 154 156 165 114 154 128 l 154 526 b 186 568 154 554 165 568 b 217 526 207 568 217 554 l 217 439 l 344 439 l 344 526 b 186 689 344 636 296 689 b 24 526 75 689 24 636 l 24 156 b 185 -7 24 46 75 -7 b 344 156 296 -7 344 47 l 344 247 l 217 247 "},"d":{"ha":376,"x_min":0,"x_max":0,"o":"m 231 0 l 229 58 l 224 58 b 132 -7 204 14 175 -7 b 24 117 65 -7 24 42 l 24 567 b 131 689 24 642 67 689 b 214 639 167 689 194 675 l 219 639 l 219 933 l 353 933 l 353 0 m 160 151 b 192 110 160 124 171 110 b 222 142 210 110 219 121 l 222 542 b 192 572 219 563 210 572 b 160 531 171 572 160 558 "},"e":{"ha":374,"x_min":0,"x_max":0,"o":"m 350 156 b 185 -7 350 47 296 -7 b 24 156 75 -7 24 46 l 24 526 b 186 689 24 636 75 689 b 350 526 296 689 350 636 l 350 303 l 154 303 l 154 153 b 185 111 154 125 165 111 b 217 153 206 111 217 125 l 217 231 l 350 231 m 217 529 b 186 571 217 558 207 571 b 154 529 165 571 154 558 l 154 399 l 217 399 "},"е":{"ha":374,"x_min":0,"x_max":0,"o":"m 350 231 l 217 231 l 217 153 b 185 111 217 125 206 111 b 154 153 165 111 154 125 l 154 303 l 350 303 l 350 526 b 186 689 350 636 296 689 b 24 526 75 689 24 636 l 24 156 b 185 -7 24 46 75 -7 b 350 156 296 -7 350 47 m 217 399 l 154 399 l 154 529 b 186 571 154 558 165 571 b 217 529 207 571 217 558 "},"f":{"ha":294,"x_min":0,"x_max":0,"o":"m 283 563 l 201 563 l 201 0 l 67 0 l 67 563 l 10 563 l 10 683 l 67 683 l 67 771 b 243 933 67 878 125 933 l 282 933 l 282 813 l 243 813 b 201 771 215 813 201 800 l 201 683 l 283 683 "},"g":{"ha":376,"x_min":0,"x_max":0,"o":"m 353 -161 b 188 -324 353 -269 297 -324 b 26 -161 81 -324 26 -269 l 26 -42 l 156 -42 l 156 -161 b 188 -203 156 -189 167 -203 b 218 -161 208 -203 218 -189 l 218 50 l 213 50 b 128 0 196 17 168 0 b 24 151 46 0 24 53 l 24 564 b 131 689 24 642 65 689 b 224 624 174 689 201 667 l 229 624 l 231 683 l 353 683 l 353 -161 m 160 185 b 190 122 160 142 164 122 b 222 176 214 122 222 143 l 222 515 b 192 572 222 550 215 572 b 160 531 171 572 160 558 "},"h":{"ha":379,"x_min":0,"x_max":0,"o":"m 219 0 l 219 538 b 192 572 219 561 210 572 b 158 531 172 572 161 558 l 158 0 l 24 0 l 24 933 l 158 933 l 158 633 l 164 633 b 253 689 181 671 210 689 b 356 558 329 689 356 631 l 356 0 "},"һ":{"ha":379,"x_min":0,"x_max":0,"o":"m 356 0 l 356 558 b 253 689 356 631 329 689 b 164 633 210 689 181 671 l 158 633 l 158 933 l 24 933 l 24 0 l 158 0 l 158 531 b 192 572 161 558 172 572 b 219 538 210 572 219 561 l 219 0 "},"i":{"ha":183,"x_min":0,"x_max":0,"o":"m 24 0 l 24 683 l 158 683 l 158 0 m 24 754 l 24 878 l 158 878 l 158 754 "},"і":{"ha":183,"x_min":0,"x_max":0,"o":"m 158 0 l 158 683 l 24 683 l 24 0 m 158 754 l 158 878 l 24 878 l 24 754 "},"j":{"ha":183,"x_min":0,"x_max":0,"o":"m -168 -37 l -39 -37 l -39 -161 b -8 -203 -39 -189 -29 -203 b 24 -161 13 -203 24 -189 l 24 683 l 158 683 l 158 -161 b -7 -324 158 -271 104 -324 b -168 -161 -117 -324 -168 -271 m 24 754 l 24 878 l 158 878 l 158 754 "},"ј":{"ha":183,"x_min":0,"x_max":0,"o":"m -168 -161 b -7 -324 -168 -271 -117 -324 b 158 -161 104 -324 158 -271 l 158 683 l 24 683 l 24 -161 b -8 -203 24 -189 13 -203 b -39 -161 -29 -203 -39 -189 l -39 -37 l -168 -37 m 158 754 l 158 878 l 24 878 l 24 754 "},"k":{"ha":375,"x_min":0,"x_max":0,"o":"m 229 0 l 186 244 l 181 244 l 158 175 l 158 0 l 24 0 l 24 933 l 158 933 l 158 443 l 164 443 b 228 683 168 465 174 492 l 372 683 l 285 403 l 371 0 "},"l":{"ha":183,"x_min":0,"x_max":0,"o":"m 24 0 l 24 933 l 158 933 l 158 0 "},"m":{"ha":571,"x_min":0,"x_max":0,"o":"m 410 0 l 410 538 b 382 572 410 560 400 572 b 350 542 365 572 354 563 l 350 0 l 219 0 l 219 538 b 192 572 219 560 210 572 b 158 542 175 572 164 563 l 158 0 l 24 0 l 24 683 l 150 683 l 153 624 l 158 624 b 244 689 179 671 208 689 b 340 617 288 689 325 663 b 438 689 365 669 400 689 b 546 565 499 689 546 640 l 546 0 "},"n":{"ha":379,"x_min":0,"x_max":0,"o":"m 219 0 l 219 538 b 192 572 219 560 210 572 b 158 542 175 572 164 563 l 158 0 l 24 0 l 24 683 l 150 683 l 153 624 l 158 624 b 251 689 181 671 213 689 b 356 565 313 689 356 643 l 356 0 "},"o":{"ha":372,"x_min":0,"x_max":0,"o":"m 349 156 b 186 -7 349 44 296 -7 b 24 156 75 -7 24 44 l 24 526 b 186 689 24 638 75 689 b 349 526 296 689 349 638 m 217 526 b 186 568 217 554 206 568 b 154 526 167 568 154 554 l 154 156 b 186 114 154 128 167 114 b 217 156 206 114 217 128 "},"ο":{"ha":372,"x_min":0,"x_max":0,"o":"m 349 526 b 186 689 349 638 296 689 b 24 526 75 689 24 638 l 24 156 b 186 -7 24 44 75 -7 b 349 156 296 -7 349 44 m 217 156 b 186 114 217 128 206 114 b 154 156 167 114 154 128 l 154 526 b 186 568 154 554 167 568 b 217 526 206 568 217 554 "},"о":{"ha":372,"x_min":0,"x_max":0,"o":"m 349 156 b 186 -7 349 44 296 -7 b 24 156 75 -7 24 44 l 24 526 b 186 689 24 638 75 689 b 349 526 296 689 349 638 m 217 526 b 186 568 217 554 206 568 b 154 526 167 568 154 554 l 154 156 b 186 114 154 128 167 114 b 217 156 206 114 217 128 "},"p":{"ha":376,"x_min":0,"x_max":0,"o":"m 217 531 b 185 572 217 558 206 572 b 154 542 167 572 157 563 l 154 142 b 185 110 157 121 167 110 b 217 151 206 110 217 124 m 24 -324 l 24 683 l 146 683 l 147 624 l 153 624 b 244 689 175 669 201 689 b 353 567 311 689 353 642 l 353 117 b 246 -7 353 42 310 -7 b 163 43 210 -7 181 8 l 157 43 l 157 -324 "},"р":{"ha":376,"x_min":0,"x_max":0,"o":"m 217 151 b 185 110 217 124 206 110 b 154 142 167 110 157 121 l 154 542 b 185 572 157 563 167 572 b 217 531 206 572 217 558 m 157 -324 l 157 43 l 163 43 b 246 -7 181 8 210 -7 b 353 117 310 -7 353 42 l 353 567 b 244 689 353 642 311 689 b 153 624 201 689 175 669 l 147 624 l 146 683 l 24 683 l 24 -324 "},"q":{"ha":376,"x_min":0,"x_max":0,"o":"m 544 -161 b 383 -324 544 -271 493 -324 b 219 -161 272 -324 219 -271 l 219 43 l 214 43 b 128 -7 194 8 168 -7 b 24 154 46 -7 24 56 l 24 567 b 132 689 24 642 65 689 b 224 624 175 689 201 669 l 229 624 l 231 683 l 353 683 l 353 -129 b 382 -203 353 -185 357 -203 b 415 -161 404 -203 415 -190 l 415 -37 l 544 -37 m 160 151 b 190 110 160 124 171 110 b 222 147 208 110 219 121 l 222 536 b 190 572 218 563 207 572 b 160 531 171 572 160 558 "},"r":{"ha":283,"x_min":0,"x_max":0,"o":"m 24 0 l 24 683 l 150 683 l 153 624 l 158 624 b 243 689 174 663 199 689 b 274 683 254 689 264 688 l 274 563 b 238 568 263 567 253 568 b 158 483 179 568 158 539 l 158 0 "},"s":{"ha":367,"x_min":0,"x_max":0,"o":"m 215 476 l 215 550 b 185 579 215 569 204 579 b 153 553 167 579 153 571 l 153 474 b 183 422 153 451 156 443 b 297 350 218 397 263 379 b 347 225 328 325 347 294 l 347 132 b 188 -7 347 39 297 -7 b 19 138 71 -7 19 43 l 19 219 l 146 219 l 146 133 b 181 103 146 113 158 103 b 213 129 203 103 213 113 l 213 221 b 172 282 213 243 207 257 b 61 365 142 304 86 338 b 25 474 32 397 25 433 l 25 565 b 181 689 25 642 82 689 b 342 543 285 689 342 635 l 342 476 "},"ѕ":{"ha":367,"x_min":0,"x_max":0,"o":"m 342 476 l 342 543 b 181 689 342 635 285 689 b 25 565 82 689 25 642 l 25 474 b 61 365 25 433 32 397 b 172 282 86 338 142 304 b 213 221 207 257 213 243 l 213 129 b 181 103 213 113 203 103 b 146 133 158 103 146 113 l 146 219 l 19 219 l 19 138 b 188 -7 19 43 71 -7 b 347 132 297 -7 347 39 l 347 225 b 297 350 347 294 328 325 b 183 422 263 379 218 397 b 153 474 156 443 153 451 l 153 553 b 185 579 153 571 167 579 b 215 550 204 579 215 569 l 215 476 "},"t":{"ha":356,"x_min":0,"x_max":0,"o":"m 217 381 l 332 381 l 332 156 b 186 -7 332 46 296 -7 b 24 156 75 -7 24 46 l 24 868 l 157 868 l 157 683 l 332 683 l 332 563 l 157 563 l 157 156 b 188 114 157 128 167 114 b 217 156 207 114 217 128 "},"u":{"ha":378,"x_min":0,"x_max":0,"o":"m 160 683 l 160 158 b 189 110 160 122 164 110 b 218 158 213 110 218 122 l 218 683 l 354 683 l 354 0 l 226 0 l 225 58 l 219 58 b 126 -7 194 10 169 -7 b 24 158 36 -7 24 64 l 24 683 "},"v":{"ha":354,"x_min":0,"x_max":0,"o":"m 88 0 l 3 683 l 138 683 l 176 203 l 182 203 l 222 683 l 350 683 l 264 0 "},"ν":{"ha":354,"x_min":0,"x_max":0,"o":"m 264 0 l 350 683 l 222 683 l 182 203 l 176 203 l 138 683 l 3 683 l 88 0 "},"w":{"ha":525,"x_min":0,"x_max":0,"o":"m 60 0 l 3 683 l 129 683 l 153 229 l 158 229 l 193 683 l 331 683 l 368 229 l 374 229 l 397 683 l 521 683 l 464 0 l 299 0 l 265 468 l 260 468 l 225 0 "},"x":{"ha":371,"x_min":0,"x_max":0,"o":"m 364 683 l 272 361 l 368 0 l 228 0 l 186 218 l 181 218 l 140 0 l 3 0 l 100 347 l 7 683 l 144 683 l 186 482 l 192 482 l 231 683 "},"х":{"ha":371,"x_min":0,"x_max":0,"o":"m 231 683 l 192 482 l 186 482 l 144 683 l 7 683 l 100 347 l 3 0 l 140 0 l 181 218 l 186 218 l 228 0 l 368 0 l 272 361 l 364 683 "},"y":{"ha":376,"x_min":0,"x_max":0,"o":"m 160 164 b 190 122 160 135 171 122 b 222 164 208 122 221 135 l 222 683 l 353 683 l 353 -161 b 188 -324 353 -271 299 -324 b 26 -161 78 -324 26 -271 l 26 -42 l 156 -42 l 156 -161 b 188 -203 156 -189 167 -203 b 218 -161 208 -203 218 -189 l 218 50 l 213 50 b 126 0 192 11 164 0 b 24 133 47 0 24 53 l 24 683 l 160 683 "},"у":{"ha":376,"x_min":0,"x_max":0,"o":"m 160 683 l 24 683 l 24 133 b 126 0 24 53 47 0 b 213 50 164 0 192 11 l 218 50 l 218 -161 b 188 -203 218 -189 208 -203 b 156 -161 167 -203 156 -189 l 156 -42 l 26 -42 l 26 -161 b 188 -324 26 -271 78 -324 b 353 -161 299 -324 353 -271 l 353 683 l 222 683 l 222 164 b 190 122 221 135 208 122 b 160 164 171 122 160 135 "},"z":{"ha":317,"x_min":0,"x_max":0,"o":"m 14 0 l 14 125 l 163 563 l 17 563 l 17 683 l 299 683 l 299 563 l 153 124 l 303 124 l 303 0 "},"{":{"ha":233,"x_min":0,"x_max":0,"o":"m 161 -182 b 69 -35 100 -182 69 -133 l 69 306 b 25 356 69 339 54 356 l 25 465 b 69 514 54 465 69 482 l 69 853 b 161 1000 69 950 100 1000 l 221 1000 l 221 896 l 204 896 b 174 853 183 896 174 881 l 174 514 b 118 413 174 460 154 426 l 118 407 b 174 306 154 393 174 361 l 174 -35 b 204 -78 174 -64 183 -78 l 221 -78 l 221 -182 "},"|":{"ha":218,"x_min":0,"x_max":0,"o":"m 57 -174 l 57 1022 l 161 1022 l 161 -174 "},"}":{"ha":233,"x_min":0,"x_max":0,"o":"m 13 -182 l 13 -78 l 29 -78 b 60 -35 50 -78 60 -64 l 60 306 b 115 407 60 361 79 393 l 115 413 b 60 514 79 426 60 460 l 60 853 b 29 896 60 881 50 896 l 13 896 l 13 1000 l 72 1000 b 164 853 133 1000 164 950 l 164 514 b 208 465 164 482 179 465 l 208 356 b 164 306 179 356 164 339 l 164 -35 b 72 -182 164 -133 133 -182 "},"~":{"ha":357,"x_min":0,"x_max":0,"o":"m 246 400 b 104 425 189 400 151 425 b 21 388 74 425 47 413 l 21 497 b 108 529 40 514 64 529 b 250 504 165 529 204 504 b 335 539 279 504 310 514 l 335 431 b 246 400 308 408 279 400 "}," ":{"ha":128,"x_min":0,"x_max":0,"o":""},"¡":{"ha":207,"x_min":0,"x_max":0,"o":"m 172 683 l 172 547 l 35 547 l 35 683 m 150 443 b 175 160 165 353 175 258 l 175 -239 l 31 -239 l 31 110 b 56 443 31 226 39 339 "},"¢":{"ha":364,"x_min":0,"x_max":0,"o":"m 131 -7 l 131 124 b 21 282 57 139 21 190 l 21 657 b 131 814 21 746 57 799 l 131 931 l 236 931 l 236 814 b 342 657 310 799 342 746 l 342 567 l 215 567 l 215 667 b 183 708 215 694 204 708 b 153 667 163 708 153 694 l 153 271 b 183 229 153 243 163 229 b 214 271 204 229 214 243 l 214 375 l 342 375 l 342 282 b 236 124 342 192 310 140 l 236 -7 "},"£":{"ha":376,"x_min":0,"x_max":0,"o":"m 354 331 l 161 331 l 161 129 l 354 129 l 354 0 l 21 0 l 21 746 b 192 928 21 864 79 928 b 354 747 300 928 354 868 l 354 563 l 224 563 l 224 757 b 192 799 224 785 213 799 b 161 757 171 799 161 785 l 161 457 l 354 457 "},"¤":{"ha":446,"x_min":0,"x_max":0,"o":"m 310 310 b 225 286 285 296 254 286 b 138 310 193 286 163 296 l 88 254 l 21 321 l 76 371 b 53 458 63 396 53 426 b 76 543 53 488 63 518 l 24 593 l 88 658 l 136 606 b 224 629 161 619 192 629 b 313 606 254 629 285 619 l 360 658 l 425 593 l 372 546 b 396 457 386 518 396 488 b 372 371 396 425 386 396 l 425 321 l 361 254 m 318 458 b 224 551 318 510 275 551 b 131 457 171 551 131 508 b 225 364 131 404 172 364 b 318 458 275 364 318 404 "},"¥":{"ha":383,"x_min":0,"x_max":0,"o":"m 129 0 l 129 119 l 42 119 l 42 203 l 129 203 l 129 311 l 42 311 l 42 394 l 129 394 l 129 404 l 3 922 l 138 922 l 193 622 l 199 622 l 247 922 l 381 922 l 260 404 l 260 394 l 354 394 l 354 311 l 260 311 l 260 203 l 354 203 l 354 119 l 260 119 l 260 0 "},"¦":{"ha":218,"x_min":0,"x_max":0,"o":"m 57 -174 l 57 360 l 161 360 l 161 -174 m 57 494 l 57 1022 l 161 1022 l 161 494 "},"§":{"ha":317,"x_min":0,"x_max":0,"o":"m 154 928 b 286 788 244 928 286 874 l 286 721 l 183 721 l 183 800 b 158 831 183 819 175 831 b 131 803 140 831 131 818 l 131 701 b 296 474 131 624 296 610 l 296 267 b 261 158 296 217 283 181 b 296 53 283 133 296 101 l 296 -53 b 160 -194 296 -149 254 -194 b 21 -47 63 -194 21 -144 l 21 21 l 125 21 l 125 -67 b 153 -97 125 -86 133 -97 b 181 -69 172 -97 181 -86 l 181 46 b 24 288 181 117 24 129 l 24 488 b 68 588 24 531 39 567 b 24 708 38 618 24 658 l 24 803 b 154 928 24 881 71 928 m 131 281 b 176 222 131 268 133 260 b 181 282 179 226 181 233 l 181 467 b 146 522 181 483 179 496 b 131 497 136 519 131 508 "},"¨":{"ha":332,"x_min":0,"x_max":0,"o":"m 21 754 l 21 878 l 146 878 l 146 754 m 185 754 l 185 878 l 310 878 l 310 754 "},"©":{"ha":385,"x_min":0,"x_max":0,"o":"m 363 174 b 193 -7 363 51 303 -7 b 21 175 81 -7 21 58 l 21 743 b 192 928 21 860 82 928 b 363 740 301 928 363 858 m 311 740 b 192 876 311 828 268 876 b 74 743 115 876 74 826 l 74 175 b 193 46 74 92 114 46 b 311 174 269 46 311 86 m 219 519 l 219 596 b 196 625 219 615 211 625 b 171 592 179 625 171 614 l 171 324 b 194 292 171 303 179 292 b 219 322 211 292 219 301 l 219 421 l 271 421 l 271 326 b 194 243 271 271 246 243 b 117 328 143 243 117 271 l 117 589 b 193 675 117 643 144 675 b 271 588 243 675 271 642 l 271 519 "},"ª":{"ha":243,"x_min":0,"x_max":0,"o":"m 144 510 l 143 540 l 140 540 b 82 506 133 526 121 506 b 21 574 35 506 21 535 l 21 668 b 97 757 21 715 38 742 b 139 786 126 764 139 767 l 139 842 b 121 858 139 851 133 858 b 103 839 108 858 103 851 l 103 790 l 26 790 l 26 849 b 128 928 26 903 64 928 b 221 854 189 928 221 904 l 221 510 m 140 717 b 101 683 106 707 101 697 l 101 596 b 121 576 101 582 108 576 b 140 590 132 576 138 582 "},"«":{"ha":321,"x_min":0,"x_max":0,"o":"m 6 442 l 125 618 l 178 567 l 92 442 l 178 317 l 125 265 m 142 442 l 261 618 l 314 567 l 228 442 l 314 317 l 261 265 "},"¬":{"ha":357,"x_min":0,"x_max":0,"o":"m 231 69 l 231 535 l 21 535 l 21 639 l 335 639 l 335 69 "},"®":{"ha":299,"x_min":0,"x_max":0,"o":"m 276 531 b 150 396 276 438 232 396 b 21 532 67 396 21 443 l 21 789 b 149 928 21 878 67 928 b 276 789 231 928 276 878 m 238 789 b 149 889 238 854 204 889 b 60 789 93 889 60 854 l 60 532 b 150 435 60 467 90 435 b 238 531 206 435 238 464 m 168 533 l 168 629 b 149 647 168 642 161 647 l 131 647 l 131 533 l 90 533 l 90 813 l 161 813 b 208 761 196 813 208 793 l 208 706 b 183 668 208 682 200 669 l 183 664 b 208 625 200 660 208 646 l 208 533 m 168 761 b 154 776 168 771 164 776 l 131 776 l 131 681 l 154 681 b 168 696 164 681 168 686 "},"¯":{"ha":297,"x_min":0,"x_max":0,"o":"m 21 767 l 21 850 l 275 850 l 275 767 "},"°":{"ha":175,"x_min":0,"x_max":0,"o":"m 88 751 b 8 843 31 751 8 785 b 88 933 8 900 31 933 b 167 843 143 933 167 900 b 88 751 167 785 143 751 m 88 800 b 117 843 108 800 117 813 b 88 886 117 872 108 886 b 58 843 67 886 58 872 b 88 800 58 813 67 800 "},"±":{"ha":357,"x_min":0,"x_max":0,"o":"m 125 306 l 125 411 l 21 411 l 21 515 l 125 515 l 125 619 l 229 619 l 229 515 l 335 515 l 335 411 l 229 411 l 229 306 m 21 94 l 21 199 l 335 199 l 335 94 "},"²":{"ha":206,"x_min":0,"x_max":0,"o":"m 21 493 l 21 582 b 47 669 21 617 28 642 b 108 739 65 694 97 724 b 121 781 117 751 121 760 l 121 839 b 104 860 121 851 115 860 b 89 838 94 860 89 851 l 89 772 l 22 772 l 22 831 b 104 925 22 893 33 925 b 188 840 171 925 188 897 l 188 779 b 164 707 188 749 181 728 b 108 642 151 692 135 675 b 92 597 99 629 92 619 l 92 554 l 188 554 l 188 493 "},"³":{"ha":206,"x_min":0,"x_max":0,"o":"m 188 581 b 104 489 188 522 158 489 b 21 579 50 489 21 518 l 21 635 l 88 635 l 88 575 b 103 554 88 560 92 554 b 118 575 113 554 118 560 l 118 664 b 99 686 118 679 111 686 l 76 686 l 76 744 l 100 744 b 118 768 113 744 118 751 l 118 839 b 103 860 118 851 113 860 b 88 839 92 860 88 851 l 88 790 l 21 790 l 21 831 b 103 925 21 890 50 925 b 183 846 158 925 183 885 l 183 775 b 147 721 183 744 171 725 l 147 717 b 188 658 171 713 188 696 "},"´":{"ha":261,"x_min":0,"x_max":0,"o":"m 72 717 l 21 769 l 171 938 l 239 857 "},"¶":{"ha":388,"x_min":0,"x_max":0,"o":"m 250 -139 l 250 813 l 188 813 l 188 -139 l 76 -139 l 76 644 b 13 722 33 651 13 678 l 13 847 b 113 922 13 897 46 922 l 388 922 l 361 811 l 361 -139 "},"·":{"ha":181,"x_min":0,"x_max":0,"o":"m 21 394 l 21 531 l 158 531 l 158 394 "},"¸":{"ha":163,"x_min":0,"x_max":0,"o":"m 22 -249 b 81 -193 61 -242 81 -228 l 81 -157 l 21 -157 l 21 -26 l 142 -26 l 142 -157 b 22 -308 142 -258 104 -304 "},"¹":{"ha":142,"x_min":0,"x_max":0,"o":"m 51 493 l 51 836 l 17 836 l 17 892 b 60 922 46 892 57 906 l 119 922 l 119 493 "},"º":{"ha":240,"x_min":0,"x_max":0,"o":"m 218 606 b 119 506 218 538 186 506 b 21 606 53 506 21 538 l 21 831 b 119 928 21 897 53 928 b 218 831 186 928 218 897 m 139 831 b 119 856 139 847 132 856 b 100 831 107 856 100 847 l 100 606 b 119 579 100 588 107 579 b 139 606 132 579 139 588 "},"»":{"ha":321,"x_min":0,"x_max":0,"o":"m 6 317 l 92 443 l 6 568 l 58 618 l 178 443 l 58 267 m 142 317 l 228 443 l 142 568 l 194 618 l 314 443 l 194 267 "},"¼":{"ha":417,"x_min":0,"x_max":0,"o":"m 58 493 l 58 836 l 24 836 l 24 892 b 67 922 53 892 64 906 l 126 922 l 126 493 m 33 -22 l 281 944 l 356 944 l 108 -22 m 297 0 l 297 90 l 214 90 l 214 149 l 283 429 l 364 429 l 364 149 l 390 149 l 390 90 l 364 90 l 364 0 m 297 286 l 293 286 l 260 149 l 297 149 "},"½":{"ha":417,"x_min":0,"x_max":0,"o":"m 24 -22 l 271 944 l 346 944 l 99 -22 m 47 493 l 47 836 l 13 836 l 13 892 b 56 922 42 892 53 906 l 115 922 l 115 493 m 236 0 l 236 89 b 263 176 236 124 243 149 b 324 246 281 201 313 231 b 336 288 332 258 336 267 l 336 346 b 319 367 336 358 331 367 b 304 344 310 367 304 358 l 304 279 l 238 279 l 238 338 b 319 432 238 400 249 432 b 403 347 386 432 403 404 l 403 286 b 379 214 403 256 396 235 b 324 149 367 199 350 182 b 307 104 314 136 307 126 l 307 61 l 403 61 l 403 0 "},"¾":{"ha":417,"x_min":0,"x_max":0,"o":"m 179 581 b 96 489 179 522 150 489 b 13 579 42 489 13 518 l 13 635 l 79 635 l 79 575 b 94 554 79 560 83 554 b 110 575 104 554 110 560 l 110 664 b 90 686 110 679 103 686 l 68 686 l 68 744 l 92 744 b 110 768 104 744 110 751 l 110 839 b 94 860 110 851 104 860 b 79 839 83 860 79 851 l 79 790 l 13 790 l 13 831 b 94 925 13 890 42 925 b 175 846 150 925 175 885 l 175 775 b 139 721 175 744 163 725 l 139 717 b 179 658 163 713 179 696 m 58 -22 l 306 944 l 381 944 l 133 -22 m 308 0 l 308 90 l 225 90 l 225 149 l 294 429 l 375 429 l 375 149 l 401 149 l 401 90 l 375 90 l 375 0 m 308 286 l 304 286 l 271 149 l 308 149 "},"¿":{"ha":361,"x_min":0,"x_max":0,"o":"m 250 683 l 250 554 l 113 554 l 113 683 m 246 450 l 246 350 b 228 238 246 293 236 257 b 161 115 214 204 172 149 b 153 46 156 97 153 79 l 153 -67 b 185 -114 153 -100 161 -114 b 215 -58 210 -114 215 -96 l 215 29 l 347 29 l 347 -31 b 179 -246 347 -172 331 -246 b 19 -50 44 -246 19 -186 l 19 53 b 33 150 19 100 25 128 b 103 285 51 197 83 235 b 117 374 114 313 117 336 l 117 450 "},"À":{"ha":388,"x_min":0,"x_max":0,"o":"m 242 0 l 226 210 l 156 210 l 142 0 l 4 0 l 94 922 l 292 922 l 382 0 m 164 331 l 218 331 l 194 688 l 189 688 m 61 1086 l 131 1167 l 279 999 l 228 946 "},"Á":{"ha":388,"x_min":0,"x_max":0,"o":"m 242 0 l 226 210 l 156 210 l 142 0 l 4 0 l 94 922 l 292 922 l 382 0 m 164 331 l 218 331 l 194 688 l 189 688 m 154 946 l 103 999 l 253 1167 l 321 1086 "},"Â":{"ha":388,"x_min":0,"x_max":0,"o":"m 242 0 l 226 210 l 156 210 l 142 0 l 4 0 l 94 922 l 292 922 l 382 0 m 164 331 l 218 331 l 194 688 l 189 688 m 278 946 l 189 1047 l 100 946 l 42 992 l 129 1125 l 249 1125 l 336 992 "},"Ã":{"ha":388,"x_min":0,"x_max":0,"o":"m 242 0 l 226 210 l 156 210 l 142 0 l 4 0 l 94 922 l 292 922 l 382 0 m 164 331 l 218 331 l 194 688 l 189 688 m 339 1042 b 258 961 328 985 296 961 b 139 997 211 961 179 997 b 101 964 124 997 108 992 l 44 996 b 126 1075 56 1051 88 1075 b 244 1039 172 1075 204 1039 b 282 1072 261 1039 275 1046 "},"Ä":{"ha":388,"x_min":0,"x_max":0,"o":"m 242 0 l 226 210 l 156 210 l 142 0 l 4 0 l 94 922 l 292 922 l 382 0 m 164 331 l 218 331 l 194 688 l 189 688 m 49 983 l 49 1107 l 174 1107 l 174 983 m 213 983 l 213 1107 l 338 1107 l 338 983 "},"Å":{"ha":388,"x_min":0,"x_max":0,"o":"m 242 0 l 226 210 l 156 210 l 142 0 l 4 0 l 94 922 l 292 922 l 382 0 m 164 331 l 218 331 l 194 688 l 189 688 m 192 1000 b 229 1050 217 1000 229 1018 b 192 1100 229 1081 217 1100 b 154 1050 167 1100 154 1081 b 192 1000 154 1018 167 1000 m 192 946 b 99 1050 129 946 99 986 b 192 1154 99 1114 129 1154 b 285 1050 254 1154 285 1114 b 192 946 285 986 254 946 "},"Æ":{"ha":508,"x_min":0,"x_max":0,"o":"m 229 0 l 229 210 l 157 210 l 142 0 l 4 0 l 94 922 l 490 922 l 490 796 l 368 796 l 368 547 l 475 547 l 475 419 l 368 419 l 368 126 l 499 126 l 499 0 m 169 331 l 229 331 l 229 796 l 200 796 "},"Ç":{"ha":378,"x_min":0,"x_max":0,"o":"m 224 376 l 356 376 l 356 174 b 190 -7 356 53 299 -7 b 21 175 79 -7 21 58 l 21 749 b 189 928 21 869 76 928 b 356 750 296 928 356 876 l 356 592 l 224 592 l 224 756 b 192 797 224 783 213 797 b 161 756 171 797 161 783 l 161 164 b 190 122 161 135 168 122 b 224 164 213 122 224 135 m 126 -249 b 185 -193 165 -242 185 -228 l 185 -157 l 125 -157 l 125 -26 l 246 -26 l 246 -157 b 126 -308 246 -258 208 -304 "},"È":{"ha":300,"x_min":0,"x_max":0,"o":"m 21 0 l 21 922 l 282 922 l 282 796 l 160 796 l 160 547 l 267 547 l 267 419 l 160 419 l 160 126 l 290 126 l 290 0 m 22 1086 l 92 1167 l 240 999 l 189 946 "},"Ѐ":{"ha":300,"x_min":0,"x_max":0,"o":"m 290 0 l 290 126 l 160 126 l 160 419 l 267 419 l 267 547 l 160 547 l 160 796 l 282 796 l 282 922 l 21 922 l 21 0 m 189 946 l 240 999 l 92 1167 l 22 1086 "},"É":{"ha":300,"x_min":0,"x_max":0,"o":"m 21 0 l 21 922 l 282 922 l 282 796 l 160 796 l 160 547 l 267 547 l 267 419 l 160 419 l 160 126 l 290 126 l 290 0 m 118 946 l 67 999 l 217 1167 l 285 1086 "},"Ê":{"ha":300,"x_min":0,"x_max":0,"o":"m 21 0 l 21 922 l 282 922 l 282 796 l 160 796 l 160 547 l 267 547 l 267 419 l 160 419 l 160 126 l 290 126 l 290 0 m 242 946 l 153 1047 l 64 946 l 6 992 l 93 1125 l 213 1125 l 300 992 "},"Ë":{"ha":300,"x_min":0,"x_max":0,"o":"m 21 0 l 21 922 l 282 922 l 282 796 l 160 796 l 160 547 l 267 547 l 267 419 l 160 419 l 160 126 l 290 126 l 290 0 m 7 983 l 7 1107 l 132 1107 l 132 983 m 171 983 l 171 1107 l 296 1107 l 296 983 "},"Ё":{"ha":300,"x_min":0,"x_max":0,"o":"m 290 0 l 290 126 l 160 126 l 160 419 l 267 419 l 267 547 l 160 547 l 160 796 l 282 796 l 282 922 l 21 922 l 21 0 m 132 983 l 132 1107 l 7 1107 l 7 983 m 296 983 l 296 1107 l 171 1107 l 171 983 "},"Ì":{"ha":193,"x_min":0,"x_max":0,"o":"m 29 0 l 29 922 l 171 922 l 171 0 m -22 1086 l 47 1167 l 196 999 l 144 946 "},"Í":{"ha":200,"x_min":0,"x_max":0,"o":"m 21 0 l 21 922 l 163 922 l 163 0 m 58 946 l 7 999 l 157 1167 l 225 1086 "},"Î":{"ha":240,"x_min":0,"x_max":0,"o":"m 49 0 l 49 922 l 190 922 l 190 0 m 208 946 l 119 1047 l 31 946 l -28 992 l 60 1125 l 179 1125 l 267 992 "},"Ï":{"ha":233,"x_min":0,"x_max":0,"o":"m 43 0 l 43 922 l 185 922 l 185 0 m -29 983 l -29 1107 l 96 1107 l 96 983 m 135 983 l 135 1107 l 260 1107 l 260 983 "},"Ϊ":{"ha":233,"x_min":0,"x_max":0,"o":"m 185 0 l 185 922 l 43 922 l 43 0 m 96 983 l 96 1107 l -29 1107 l -29 983 m 260 983 l 260 1107 l 135 1107 l 135 983 "},"Ї":{"ha":233,"x_min":0,"x_max":0,"o":"m 43 0 l 43 922 l 185 922 l 185 0 m -29 983 l -29 1107 l 96 1107 l 96 983 m 135 983 l 135 1107 l 260 1107 l 260 983 "},"Ð":{"ha":400,"x_min":0,"x_max":0,"o":"m 38 0 l 38 419 l 0 419 l 0 547 l 38 547 l 38 922 l 214 922 b 379 756 321 922 379 867 l 379 175 b 214 0 379 54 321 0 m 204 126 b 238 194 226 126 238 149 l 238 742 b 196 796 238 778 224 796 l 175 796 l 175 547 l 214 547 l 214 419 l 175 419 l 175 126 "},"Đ":{"ha":400,"x_min":0,"x_max":0,"o":"m 214 0 b 379 175 321 0 379 54 l 379 756 b 214 922 379 867 321 922 l 38 922 l 38 547 l 0 547 l 0 419 l 38 419 l 38 0 m 175 126 l 175 419 l 214 419 l 214 547 l 175 547 l 175 796 l 196 796 b 238 742 224 796 238 778 l 238 194 b 204 126 238 149 226 126 "},"Ñ":{"ha":408,"x_min":0,"x_max":0,"o":"m 222 0 l 142 640 l 136 640 b 142 296 140 571 142 489 l 142 0 l 21 0 l 21 922 l 208 922 l 265 329 l 271 329 b 265 717 268 417 265 501 l 265 922 l 388 922 l 388 0 m 350 1042 b 269 961 339 985 307 961 b 150 997 222 961 190 997 b 113 964 135 997 119 992 l 56 996 b 138 1075 67 1051 99 1075 b 256 1039 183 1075 215 1039 b 293 1072 272 1039 286 1046 "},"Ò":{"ha":376,"x_min":0,"x_max":0,"o":"m 358 174 b 189 -7 358 53 297 -7 b 17 175 78 -7 17 58 l 17 743 b 188 928 17 860 79 928 b 358 740 296 928 358 858 m 219 756 b 188 797 219 783 208 797 b 157 756 167 797 157 783 l 157 164 b 188 122 157 136 167 122 b 219 164 208 122 219 136 m 58 1086 l 128 1167 l 276 999 l 225 946 "},"Ó":{"ha":376,"x_min":0,"x_max":0,"o":"m 358 174 b 189 -7 358 53 297 -7 b 17 175 78 -7 17 58 l 17 743 b 188 928 17 860 79 928 b 358 740 296 928 358 858 m 219 756 b 188 797 219 783 208 797 b 157 756 167 797 157 783 l 157 164 b 188 122 157 136 167 122 b 219 164 208 122 219 136 m 151 946 l 100 999 l 250 1167 l 318 1086 "},"Ô":{"ha":376,"x_min":0,"x_max":0,"o":"m 358 174 b 189 -7 358 53 297 -7 b 17 175 78 -7 17 58 l 17 743 b 188 928 17 860 79 928 b 358 740 296 928 358 858 m 219 756 b 188 797 219 783 208 797 b 157 756 167 797 157 783 l 157 164 b 188 122 157 136 167 122 b 219 164 208 122 219 136 m 278 946 l 189 1047 l 100 946 l 42 992 l 129 1125 l 249 1125 l 336 992 "},"Õ":{"ha":376,"x_min":0,"x_max":0,"o":"m 358 174 b 189 -7 358 53 297 -7 b 17 175 78 -7 17 58 l 17 743 b 188 928 17 860 79 928 b 358 740 296 928 358 858 m 219 756 b 188 797 219 783 208 797 b 157 756 167 797 157 783 l 157 164 b 188 122 157 136 167 122 b 219 164 208 122 219 136 m 336 1042 b 256 961 325 985 293 961 b 136 997 208 961 176 997 b 99 964 121 997 106 992 l 42 996 b 124 1075 53 1051 85 1075 b 242 1039 169 1075 201 1039 b 279 1072 258 1039 272 1046 "},"Ö":{"ha":376,"x_min":0,"x_max":0,"o":"m 358 174 b 189 -7 358 53 297 -7 b 17 175 78 -7 17 58 l 17 743 b 188 928 17 860 79 928 b 358 740 296 928 358 858 m 219 756 b 188 797 219 783 208 797 b 157 756 167 797 157 783 l 157 164 b 188 122 157 136 167 122 b 219 164 208 122 219 136 m 44 983 l 44 1107 l 169 1107 l 169 983 m 208 983 l 208 1107 l 333 1107 l 333 983 "},"×":{"ha":357,"x_min":0,"x_max":0,"o":"m 251 461 l 333 381 l 260 307 l 178 388 l 96 307 l 24 381 l 104 461 l 24 543 l 97 617 l 178 535 l 258 617 l 333 543 "},"Ø":{"ha":376,"x_min":0,"x_max":0,"o":"m 28 -22 l 47 57 b 17 175 26 86 17 126 l 17 743 b 188 928 17 860 79 928 b 260 915 214 928 239 924 l 267 944 l 350 944 l 328 858 b 358 740 347 828 358 788 l 358 174 b 189 -7 358 53 297 -7 b 115 4 161 -7 136 -3 l 108 -22 m 219 421 l 214 421 l 157 171 b 188 122 157 136 167 122 b 219 164 208 122 219 136 m 157 500 l 163 500 l 219 753 b 188 797 219 783 208 797 b 157 756 167 797 157 783 "},"Ù":{"ha":383,"x_min":0,"x_max":0,"o":"m 221 922 l 361 922 l 361 175 b 192 -7 361 58 303 -7 b 21 174 83 -7 21 53 l 21 922 l 158 922 l 158 164 b 190 122 158 136 169 122 b 221 164 211 122 221 136 m 61 1086 l 131 1167 l 279 999 l 228 946 "},"Ú":{"ha":383,"x_min":0,"x_max":0,"o":"m 221 922 l 361 922 l 361 175 b 192 -7 361 58 303 -7 b 21 174 83 -7 21 53 l 21 922 l 158 922 l 158 164 b 190 122 158 136 169 122 b 221 164 211 122 221 136 m 153 946 l 101 999 l 251 1167 l 319 1086 "},"Û":{"ha":383,"x_min":0,"x_max":0,"o":"m 221 922 l 361 922 l 361 175 b 192 -7 361 58 303 -7 b 21 174 83 -7 21 53 l 21 922 l 158 922 l 158 164 b 190 122 158 136 169 122 b 221 164 211 122 221 136 m 278 946 l 189 1047 l 100 946 l 42 992 l 129 1125 l 249 1125 l 336 992 "},"Ü":{"ha":383,"x_min":0,"x_max":0,"o":"m 221 922 l 361 922 l 361 175 b 192 -7 361 58 303 -7 b 21 174 83 -7 21 53 l 21 922 l 158 922 l 158 164 b 190 122 158 136 169 122 b 221 164 211 122 221 136 m 47 983 l 47 1107 l 172 1107 l 172 983 m 211 983 l 211 1107 l 336 1107 l 336 983 "},"Ý":{"ha":383,"x_min":0,"x_max":0,"o":"m 124 0 l 124 379 l 3 922 l 142 922 l 193 621 l 199 621 l 243 922 l 381 922 l 265 378 l 265 0 m 160 946 l 108 999 l 258 1167 l 326 1086 "},"Þ":{"ha":378,"x_min":0,"x_max":0,"o":"m 21 922 l 163 922 l 163 785 l 221 785 b 358 640 321 785 358 733 l 358 331 b 221 186 358 238 321 186 l 163 186 l 163 0 l 21 0 m 163 663 l 163 307 l 192 307 b 225 358 214 307 225 324 l 225 617 b 192 663 225 647 214 663 "},"ß":{"ha":396,"x_min":0,"x_max":0,"o":"m 246 378 b 204 453 246 429 243 453 l 175 453 l 175 565 l 190 565 b 215 601 207 565 215 578 l 215 776 b 183 818 215 804 204 818 b 153 776 163 818 153 804 l 153 0 l 21 0 l 21 776 b 192 939 21 889 74 939 b 356 796 297 939 356 901 l 356 624 b 283 513 356 558 332 522 l 283 507 b 376 358 354 497 376 442 l 376 156 b 224 -7 376 44 339 -7 b 175 0 206 -7 189 -4 l 175 111 b 199 107 183 108 192 107 b 246 156 231 107 246 124 "},"à":{"ha":369,"x_min":0,"x_max":0,"o":"m 213 342 b 178 329 203 336 192 333 b 149 286 157 324 149 308 l 149 142 b 181 110 149 121 160 110 b 213 133 200 110 208 118 m 221 0 l 218 50 l 213 50 b 117 -7 200 28 181 -7 b 17 106 39 -7 17 42 l 17 261 b 142 407 17 350 51 383 b 211 456 190 419 211 425 l 211 546 b 182 574 211 564 201 574 b 150 542 161 574 150 563 l 150 461 l 25 461 l 25 558 b 192 689 25 647 88 689 b 346 567 293 689 346 650 l 346 0 m 54 857 l 124 938 l 272 769 l 221 717 "},"á":{"ha":369,"x_min":0,"x_max":0,"o":"m 213 342 b 178 329 203 336 192 333 b 149 286 157 324 149 308 l 149 142 b 181 110 149 121 160 110 b 213 133 200 110 208 118 m 221 0 l 218 50 l 213 50 b 117 -7 200 28 181 -7 b 17 106 39 -7 17 42 l 17 261 b 142 407 17 350 51 383 b 211 456 190 419 211 425 l 211 546 b 182 574 211 564 201 574 b 150 542 161 574 150 563 l 150 461 l 25 461 l 25 558 b 192 689 25 647 88 689 b 346 567 293 689 346 650 l 346 0 m 144 717 l 93 769 l 243 938 l 311 857 "},"â":{"ha":369,"x_min":0,"x_max":0,"o":"m 213 342 b 178 329 203 336 192 333 b 149 286 157 324 149 308 l 149 142 b 181 110 149 121 160 110 b 213 133 200 110 208 118 m 221 0 l 218 50 l 213 50 b 117 -7 200 28 181 -7 b 17 106 39 -7 17 42 l 17 261 b 142 407 17 350 51 383 b 211 456 190 419 211 425 l 211 546 b 182 574 211 564 201 574 b 150 542 161 574 150 563 l 150 461 l 25 461 l 25 558 b 192 689 25 647 88 689 b 346 567 293 689 346 650 l 346 0 m 269 717 l 181 818 l 92 717 l 33 763 l 121 896 l 240 896 l 328 763 "},"ã":{"ha":369,"x_min":0,"x_max":0,"o":"m 213 342 b 178 329 203 336 192 333 b 149 286 157 324 149 308 l 149 142 b 181 110 149 121 160 110 b 213 133 200 110 208 118 m 221 0 l 218 50 l 213 50 b 117 -7 200 28 181 -7 b 17 106 39 -7 17 42 l 17 261 b 142 407 17 350 51 383 b 211 456 190 419 211 425 l 211 546 b 182 574 211 564 201 574 b 150 542 161 574 150 563 l 150 461 l 25 461 l 25 558 b 192 689 25 647 88 689 b 346 567 293 689 346 650 l 346 0 m 329 813 b 249 732 318 756 286 732 b 129 768 201 732 169 768 b 92 735 114 768 99 763 l 35 767 b 117 846 46 822 78 846 b 235 810 163 846 194 810 b 272 843 251 810 265 817 "},"ä":{"ha":369,"x_min":0,"x_max":0,"o":"m 213 342 b 178 329 203 336 192 333 b 149 286 157 324 149 308 l 149 142 b 181 110 149 121 160 110 b 213 133 200 110 208 118 m 221 0 l 218 50 l 213 50 b 117 -7 200 28 181 -7 b 17 106 39 -7 17 42 l 17 261 b 142 407 17 350 51 383 b 211 456 190 419 211 425 l 211 546 b 182 574 211 564 201 574 b 150 542 161 574 150 563 l 150 461 l 25 461 l 25 558 b 192 689 25 647 88 689 b 346 567 293 689 346 650 l 346 0 m 39 754 l 39 878 l 164 878 l 164 754 m 203 754 l 203 878 l 328 878 l 328 754 "},"å":{"ha":369,"x_min":0,"x_max":0,"o":"m 213 342 b 178 329 203 336 192 333 b 149 286 157 324 149 308 l 149 142 b 181 110 149 121 160 110 b 213 133 200 110 208 118 m 221 0 l 218 50 l 213 50 b 117 -7 200 28 181 -7 b 17 106 39 -7 17 42 l 17 261 b 142 407 17 350 51 383 b 211 456 190 419 211 425 l 211 546 b 182 574 211 564 201 574 b 150 542 161 574 150 563 l 150 461 l 25 461 l 25 558 b 192 689 25 647 88 689 b 346 567 293 689 346 650 l 346 0 m 185 771 b 222 821 210 771 222 789 b 185 871 222 851 210 871 b 147 821 160 871 147 851 b 185 771 147 789 160 771 m 185 717 b 92 821 122 717 92 757 b 185 925 92 885 122 925 b 278 821 247 925 278 885 b 185 717 278 757 247 717 "},"æ":{"ha":561,"x_min":0,"x_max":0,"o":"m 539 156 b 374 -7 539 47 485 -7 b 228 69 299 -7 250 19 l 222 69 b 117 -7 206 25 181 -7 b 17 106 39 -7 17 42 l 17 261 b 142 407 17 350 51 383 b 211 456 190 419 211 425 l 211 546 b 182 574 211 564 201 574 b 150 542 161 574 150 563 l 150 461 l 25 461 l 25 558 b 192 689 25 647 88 689 b 285 671 231 689 261 683 b 375 689 308 683 338 689 b 539 526 485 689 539 636 l 539 303 l 343 303 l 343 153 b 374 111 343 125 354 111 b 406 153 394 111 406 125 l 406 231 l 539 231 m 213 342 b 178 329 203 336 192 333 b 149 286 157 324 149 308 l 149 142 b 181 110 149 121 160 110 b 213 133 200 110 208 118 m 406 529 b 375 571 406 558 396 571 b 343 529 354 571 343 558 l 343 399 l 406 399 "},"ç":{"ha":368,"x_min":0,"x_max":0,"o":"m 217 247 l 344 247 l 344 156 b 185 -7 344 47 296 -7 b 24 156 75 -7 24 46 l 24 526 b 186 689 24 636 75 689 b 344 526 296 689 344 636 l 344 439 l 217 439 l 217 526 b 186 568 217 554 207 568 b 154 526 165 568 154 554 l 154 156 b 185 114 154 128 165 114 b 217 156 206 114 217 128 m 126 -249 b 185 -193 165 -242 185 -228 l 185 -157 l 125 -157 l 125 -26 l 246 -26 l 246 -157 b 126 -308 246 -258 208 -304 "},"è":{"ha":374,"x_min":0,"x_max":0,"o":"m 350 156 b 185 -7 350 47 296 -7 b 24 156 75 -7 24 46 l 24 526 b 186 689 24 636 75 689 b 350 526 296 689 350 636 l 350 303 l 154 303 l 154 153 b 185 111 154 125 165 111 b 217 153 206 111 217 125 l 217 231 l 350 231 m 217 529 b 186 571 217 558 207 571 b 154 529 165 571 154 558 l 154 399 l 217 399 m 56 857 l 125 938 l 274 769 l 222 717 "},"ѐ":{"ha":374,"x_min":0,"x_max":0,"o":"m 350 231 l 217 231 l 217 153 b 185 111 217 125 206 111 b 154 153 165 111 154 125 l 154 303 l 350 303 l 350 526 b 186 689 350 636 296 689 b 24 526 75 689 24 636 l 24 156 b 185 -7 24 46 75 -7 b 350 156 296 -7 350 47 m 217 399 l 154 399 l 154 529 b 186 571 154 558 165 571 b 217 529 207 571 217 558 m 222 717 l 274 769 l 125 938 l 56 857 "},"é":{"ha":374,"x_min":0,"x_max":0,"o":"m 350 156 b 185 -7 350 47 296 -7 b 24 156 75 -7 24 46 l 24 526 b 186 689 24 636 75 689 b 350 526 296 689 350 636 l 350 303 l 154 303 l 154 153 b 185 111 154 125 165 111 b 217 153 206 111 217 125 l 217 231 l 350 231 m 217 529 b 186 571 217 558 207 571 b 154 529 165 571 154 558 l 154 399 l 217 399 m 149 717 l 97 769 l 247 938 l 315 857 "},"ê":{"ha":374,"x_min":0,"x_max":0,"o":"m 350 156 b 185 -7 350 47 296 -7 b 24 156 75 -7 24 46 l 24 526 b 186 689 24 636 75 689 b 350 526 296 689 350 636 l 350 303 l 154 303 l 154 153 b 185 111 154 125 165 111 b 217 153 206 111 217 125 l 217 231 l 350 231 m 217 529 b 186 571 217 558 207 571 b 154 529 165 571 154 558 l 154 399 l 217 399 m 274 717 l 185 818 l 96 717 l 38 763 l 125 896 l 244 896 l 332 763 "},"ë":{"ha":374,"x_min":0,"x_max":0,"o":"m 350 156 b 185 -7 350 47 296 -7 b 24 156 75 -7 24 46 l 24 526 b 186 689 24 636 75 689 b 350 526 296 689 350 636 l 350 303 l 154 303 l 154 153 b 185 111 154 125 165 111 b 217 153 206 111 217 125 l 217 231 l 350 231 m 217 529 b 186 571 217 558 207 571 b 154 529 165 571 154 558 l 154 399 l 217 399 m 43 754 l 43 878 l 168 878 l 168 754 m 207 754 l 207 878 l 332 878 l 332 754 "},"ё":{"ha":374,"x_min":0,"x_max":0,"o":"m 350 231 l 217 231 l 217 153 b 185 111 217 125 206 111 b 154 153 165 111 154 125 l 154 303 l 350 303 l 350 526 b 186 689 350 636 296 689 b 24 526 75 689 24 636 l 24 156 b 185 -7 24 46 75 -7 b 350 156 296 -7 350 47 m 217 399 l 154 399 l 154 529 b 186 571 154 558 165 571 b 217 529 207 571 217 558 m 168 754 l 168 878 l 43 878 l 43 754 m 332 754 l 332 878 l 207 878 l 207 754 "},"ì":{"ha":217,"x_min":0,"x_max":0,"o":"m -1 857 l 68 938 l 217 769 l 165 717 m 57 0 l 57 683 l 192 683 l 192 0 "},"í":{"ha":225,"x_min":0,"x_max":0,"o":"m 58 717 l 7 769 l 157 938 l 225 857 m 24 0 l 24 683 l 158 683 l 158 0 "},"î":{"ha":269,"x_min":0,"x_max":0,"o":"m 65 0 l 65 683 l 200 683 l 200 0 m 222 717 l 133 818 l 44 717 l -14 763 l 74 896 l 193 896 l 281 763 "},"ï":{"ha":238,"x_min":0,"x_max":0,"o":"m -26 754 l -26 878 l 99 878 l 99 754 m 138 754 l 138 878 l 263 878 l 263 754 m 49 0 l 49 683 l 183 683 l 183 0 "},"ї":{"ha":238,"x_min":0,"x_max":0,"o":"m 99 754 l 99 878 l -26 878 l -26 754 m 263 754 l 263 878 l 138 878 l 138 754 m 183 0 l 183 683 l 49 683 l 49 0 "},"ð":{"ha":378,"x_min":0,"x_max":0,"o":"m 354 858 l 299 829 b 354 589 336 763 354 678 l 354 210 b 188 -7 354 60 328 -7 b 24 169 43 -7 24 63 l 24 538 b 131 661 24 615 65 661 b 219 611 168 661 201 646 l 225 611 b 197 776 225 696 214 738 l 93 722 l 93 782 l 174 824 b 82 933 147 872 114 910 l 197 933 b 269 874 225 918 249 899 l 354 918 m 192 110 b 222 151 213 110 222 124 l 222 513 b 190 544 218 533 207 544 b 160 497 169 544 160 529 l 160 151 b 192 110 160 124 171 110 "},"ñ":{"ha":379,"x_min":0,"x_max":0,"o":"m 219 0 l 219 538 b 192 572 219 560 210 572 b 158 542 175 572 164 563 l 158 0 l 24 0 l 24 683 l 150 683 l 153 624 l 158 624 b 251 689 181 671 213 689 b 356 565 313 689 356 643 l 356 0 m 336 813 b 256 732 325 756 293 732 b 136 768 208 732 176 768 b 99 735 121 768 106 763 l 42 767 b 124 846 53 822 85 846 b 242 810 169 846 201 810 b 279 843 258 810 272 817 "},"ò":{"ha":372,"x_min":0,"x_max":0,"o":"m 349 156 b 186 -7 349 44 296 -7 b 24 156 75 -7 24 44 l 24 526 b 186 689 24 638 75 689 b 349 526 296 689 349 638 m 217 526 b 186 568 217 554 206 568 b 154 526 167 568 154 554 l 154 156 b 186 114 154 128 167 114 b 217 156 206 114 217 128 m 56 857 l 125 938 l 274 769 l 222 717 "},"ó":{"ha":372,"x_min":0,"x_max":0,"o":"m 349 156 b 186 -7 349 44 296 -7 b 24 156 75 -7 24 44 l 24 526 b 186 689 24 638 75 689 b 349 526 296 689 349 638 m 217 526 b 186 568 217 554 206 568 b 154 526 167 568 154 554 l 154 156 b 186 114 154 128 167 114 b 217 156 206 114 217 128 m 149 717 l 97 769 l 247 938 l 315 857 "},"ô":{"ha":372,"x_min":0,"x_max":0,"o":"m 349 156 b 186 -7 349 44 296 -7 b 24 156 75 -7 24 44 l 24 526 b 186 689 24 638 75 689 b 349 526 296 689 349 638 m 217 526 b 186 568 217 554 206 568 b 154 526 167 568 154 554 l 154 156 b 186 114 154 128 167 114 b 217 156 206 114 217 128 m 275 717 l 186 818 l 97 717 l 39 763 l 126 896 l 246 896 l 333 763 "},"õ":{"ha":372,"x_min":0,"x_max":0,"o":"m 349 156 b 186 -7 349 44 296 -7 b 24 156 75 -7 24 44 l 24 526 b 186 689 24 638 75 689 b 349 526 296 689 349 638 m 217 526 b 186 568 217 554 206 568 b 154 526 167 568 154 554 l 154 156 b 186 114 154 128 167 114 b 217 156 206 114 217 128 m 332 813 b 251 732 321 756 289 732 b 132 768 204 732 172 768 b 94 735 117 768 101 763 l 38 767 b 119 846 49 822 81 846 b 238 810 165 846 197 810 b 275 843 254 810 268 817 "},"ö":{"ha":372,"x_min":0,"x_max":0,"o":"m 349 156 b 186 -7 349 44 296 -7 b 24 156 75 -7 24 44 l 24 526 b 186 689 24 638 75 689 b 349 526 296 689 349 638 m 217 526 b 186 568 217 554 206 568 b 154 526 167 568 154 554 l 154 156 b 186 114 154 128 167 114 b 217 156 206 114 217 128 m 42 754 l 42 878 l 167 878 l 167 754 m 206 754 l 206 878 l 331 878 l 331 754 "},"÷":{"ha":357,"x_min":0,"x_max":0,"o":"m 21 411 l 21 515 l 335 515 l 335 411 m 108 213 l 108 342 l 246 342 l 246 213 m 108 585 l 108 714 l 246 714 l 246 585 "},"ø":{"ha":372,"x_min":0,"x_max":0,"o":"m 32 -18 l 51 46 b 24 156 32 72 24 108 l 24 526 b 186 689 24 638 75 689 b 253 681 211 689 233 686 l 260 701 l 338 701 l 317 639 b 349 526 338 613 349 575 l 349 156 b 186 -7 349 44 296 -7 b 115 1 158 -7 136 -4 l 110 -18 m 217 319 l 211 319 l 157 133 l 157 132 b 186 114 163 119 172 114 b 217 156 206 114 217 128 m 154 368 l 160 368 l 213 551 b 186 568 207 563 199 568 b 154 526 167 568 154 554 "},"ù":{"ha":378,"x_min":0,"x_max":0,"o":"m 160 683 l 160 158 b 189 110 160 122 164 110 b 218 158 213 110 218 122 l 218 683 l 354 683 l 354 0 l 226 0 l 225 58 l 219 58 b 126 -7 194 10 169 -7 b 24 158 36 -7 24 64 l 24 683 m 60 857 l 129 938 l 278 769 l 226 717 "},"ú":{"ha":378,"x_min":0,"x_max":0,"o":"m 160 683 l 160 158 b 189 110 160 122 164 110 b 218 158 213 110 218 122 l 218 683 l 354 683 l 354 0 l 226 0 l 225 58 l 219 58 b 126 -7 194 10 169 -7 b 24 158 36 -7 24 64 l 24 683 m 151 717 l 100 769 l 250 938 l 318 857 "},"û":{"ha":378,"x_min":0,"x_max":0,"o":"m 160 683 l 160 158 b 189 110 160 122 164 110 b 218 158 213 110 218 122 l 218 683 l 354 683 l 354 0 l 226 0 l 225 58 l 219 58 b 126 -7 194 10 169 -7 b 24 158 36 -7 24 64 l 24 683 m 278 717 l 189 818 l 100 717 l 42 763 l 129 896 l 249 896 l 336 763 "},"ü":{"ha":378,"x_min":0,"x_max":0,"o":"m 160 683 l 160 158 b 189 110 160 122 164 110 b 218 158 213 110 218 122 l 218 683 l 354 683 l 354 0 l 226 0 l 225 58 l 219 58 b 126 -7 194 10 169 -7 b 24 158 36 -7 24 64 l 24 683 m 43 754 l 43 878 l 168 878 l 168 754 m 207 754 l 207 878 l 332 878 l 332 754 "},"ý":{"ha":376,"x_min":0,"x_max":0,"o":"m 160 164 b 190 122 160 135 171 122 b 222 164 208 122 221 135 l 222 683 l 353 683 l 353 -161 b 188 -324 353 -271 299 -324 b 26 -161 78 -324 26 -271 l 26 -42 l 156 -42 l 156 -161 b 188 -203 156 -189 167 -203 b 218 -161 208 -203 218 -189 l 218 50 l 213 50 b 126 0 192 11 164 0 b 24 133 47 0 24 53 l 24 683 l 160 683 m 151 717 l 100 769 l 250 938 l 318 857 "},"þ":{"ha":376,"x_min":0,"x_max":0,"o":"m 24 -324 l 24 933 l 157 933 l 157 639 l 163 639 b 246 689 179 674 206 689 b 353 519 300 689 353 663 l 353 183 b 247 -7 353 79 340 -7 b 163 43 207 -7 178 10 l 157 43 l 157 -324 m 217 531 b 185 572 217 558 206 572 b 154 542 167 572 157 563 l 154 142 b 185 110 157 121 167 110 b 217 151 206 110 217 124 "},"ÿ":{"ha":376,"x_min":0,"x_max":0,"o":"m 160 164 b 190 122 160 135 171 122 b 222 164 208 122 221 135 l 222 683 l 353 683 l 353 -161 b 188 -324 353 -271 299 -324 b 26 -161 78 -324 26 -271 l 26 -42 l 156 -42 l 156 -161 b 188 -203 156 -189 167 -203 b 218 -161 208 -203 218 -189 l 218 50 l 213 50 b 126 0 192 11 164 0 b 24 133 47 0 24 53 l 24 683 l 160 683 m 47 754 l 47 878 l 172 878 l 172 754 m 211 754 l 211 878 l 336 878 l 336 754 "},"Ā":{"ha":388,"x_min":0,"x_max":0,"o":"m 242 0 l 226 210 l 156 210 l 142 0 l 4 0 l 94 922 l 292 922 l 382 0 m 164 331 l 218 331 l 194 688 l 189 688 m 63 996 l 63 1079 l 317 1079 l 317 996 "},"ā":{"ha":369,"x_min":0,"x_max":0,"o":"m 213 342 b 178 329 203 336 192 333 b 149 286 157 324 149 308 l 149 142 b 181 110 149 121 160 110 b 213 133 200 110 208 118 m 221 0 l 218 50 l 213 50 b 117 -7 200 28 181 -7 b 17 106 39 -7 17 42 l 17 261 b 142 407 17 350 51 383 b 211 456 190 419 211 425 l 211 546 b 182 574 211 564 201 574 b 150 542 161 574 150 563 l 150 461 l 25 461 l 25 558 b 192 689 25 647 88 689 b 346 567 293 689 346 650 l 346 0 m 54 767 l 54 850 l 308 850 l 308 767 "},"Ă":{"ha":388,"x_min":0,"x_max":0,"o":"m 242 0 l 226 210 l 156 210 l 142 0 l 4 0 l 94 922 l 292 922 l 382 0 m 164 331 l 218 331 l 194 688 l 189 688 m 190 946 b 40 1124 103 946 40 1008 l 138 1124 b 190 1029 139 1058 156 1029 b 242 1124 224 1029 240 1058 l 340 1124 b 190 946 340 1007 278 946 "},"ă":{"ha":369,"x_min":0,"x_max":0,"o":"m 213 342 b 178 329 203 336 192 333 b 149 286 157 324 149 308 l 149 142 b 181 110 149 121 160 110 b 213 133 200 110 208 118 m 221 0 l 218 50 l 213 50 b 117 -7 200 28 181 -7 b 17 106 39 -7 17 42 l 17 261 b 142 407 17 350 51 383 b 211 456 190 419 211 425 l 211 546 b 182 574 211 564 201 574 b 150 542 161 574 150 563 l 150 461 l 25 461 l 25 558 b 192 689 25 647 88 689 b 346 567 293 689 346 650 l 346 0 m 179 717 b 29 894 92 717 29 779 l 126 894 b 179 800 128 829 144 800 b 231 894 213 800 229 829 l 329 894 b 179 717 329 778 267 717 "},"Ą":{"ha":388,"x_min":0,"x_max":0,"o":"m 379 -294 b 310 -308 361 -304 336 -308 b 207 -204 240 -308 207 -281 l 207 -162 b 324 -6 207 -85 250 -35 l 324 0 l 242 0 l 226 210 l 156 210 l 142 0 l 4 0 l 94 922 l 292 922 l 382 0 b 299 -122 326 -36 299 -75 l 299 -160 b 338 -190 299 -183 310 -190 b 379 -185 353 -190 369 -187 m 164 331 l 218 331 l 194 688 l 189 688 "},"ą":{"ha":369,"x_min":0,"x_max":0,"o":"m 344 -294 b 274 -308 326 -304 301 -308 b 172 -204 206 -308 172 -281 l 172 -162 b 289 -6 172 -85 214 -35 l 289 0 l 221 0 l 218 50 l 213 50 b 117 -7 200 28 181 -7 b 17 106 39 -7 17 42 l 17 261 b 142 407 17 350 51 383 b 211 456 190 419 211 425 l 211 546 b 182 574 211 564 201 574 b 150 542 161 574 150 563 l 150 461 l 25 461 l 25 558 b 192 689 25 647 88 689 b 346 567 293 689 346 650 l 346 0 b 263 -122 292 -36 263 -75 l 263 -160 b 303 -190 263 -183 274 -190 b 344 -185 318 -190 335 -187 m 213 342 b 178 329 203 336 192 333 b 149 286 157 324 149 308 l 149 142 b 181 110 149 121 160 110 b 213 133 200 110 208 118 "},"Ć":{"ha":378,"x_min":0,"x_max":0,"o":"m 224 376 l 356 376 l 356 174 b 190 -7 356 53 299 -7 b 21 175 79 -7 21 58 l 21 749 b 189 928 21 869 76 928 b 356 750 296 928 356 876 l 356 592 l 224 592 l 224 756 b 192 797 224 783 213 797 b 161 756 171 797 161 783 l 161 164 b 190 122 161 135 168 122 b 224 164 213 122 224 135 m 154 946 l 103 999 l 253 1167 l 321 1086 "},"ć":{"ha":368,"x_min":0,"x_max":0,"o":"m 217 247 l 344 247 l 344 156 b 185 -7 344 47 296 -7 b 24 156 75 -7 24 46 l 24 526 b 186 689 24 636 75 689 b 344 526 296 689 344 636 l 344 439 l 217 439 l 217 526 b 186 568 217 554 207 568 b 154 526 165 568 154 554 l 154 156 b 185 114 154 128 165 114 b 217 156 206 114 217 128 m 147 717 l 96 769 l 246 938 l 314 857 "},"Ċ":{"ha":378,"x_min":0,"x_max":0,"o":"m 224 376 l 356 376 l 356 174 b 190 -7 356 53 299 -7 b 21 175 79 -7 21 58 l 21 749 b 189 928 21 869 76 928 b 356 750 296 928 356 876 l 356 592 l 224 592 l 224 756 b 192 797 224 783 213 797 b 161 756 171 797 161 783 l 161 164 b 190 122 161 135 168 122 b 224 164 213 122 224 135 m 124 983 l 124 1107 l 260 1107 l 260 983 "},"ċ":{"ha":368,"x_min":0,"x_max":0,"o":"m 217 247 l 344 247 l 344 156 b 185 -7 344 47 296 -7 b 24 156 75 -7 24 46 l 24 526 b 186 689 24 636 75 689 b 344 526 296 689 344 636 l 344 439 l 217 439 l 217 526 b 186 568 217 554 207 568 b 154 526 165 568 154 554 l 154 156 b 185 114 154 128 165 114 b 217 156 206 114 217 128 m 117 754 l 117 878 l 253 878 l 253 754 "},"Č":{"ha":378,"x_min":0,"x_max":0,"o":"m 224 376 l 356 376 l 356 174 b 190 -7 356 53 299 -7 b 21 175 79 -7 21 58 l 21 749 b 189 928 21 869 76 928 b 356 750 296 928 356 876 l 356 592 l 224 592 l 224 756 b 192 797 224 783 213 797 b 161 756 171 797 161 783 l 161 164 b 190 122 161 135 168 122 b 224 164 213 122 224 135 m 129 965 l 42 1099 l 100 1144 l 189 1043 l 278 1144 l 336 1099 l 249 965 "},"č":{"ha":368,"x_min":0,"x_max":0,"o":"m 217 247 l 344 247 l 344 156 b 185 -7 344 47 296 -7 b 24 156 75 -7 24 46 l 24 526 b 186 689 24 636 75 689 b 344 526 296 689 344 636 l 344 439 l 217 439 l 217 526 b 186 568 217 554 207 568 b 154 526 165 568 154 554 l 154 156 b 185 114 154 128 165 114 b 217 156 206 114 217 128 m 125 736 l 38 869 l 96 915 l 185 814 l 274 915 l 332 869 l 244 736 "},"Ď":{"ha":385,"x_min":0,"x_max":0,"o":"m 21 0 l 21 922 l 199 922 b 363 756 308 922 363 867 l 363 175 b 199 0 363 53 306 0 m 189 126 b 221 206 210 126 221 153 l 221 724 b 179 796 221 772 207 796 l 160 796 l 160 126 m 129 965 l 42 1099 l 100 1144 l 189 1043 l 278 1144 l 336 1099 l 249 965 "},"ď":{"ha":514,"x_min":0,"x_max":0,"o":"m 231 0 l 229 58 l 224 58 b 132 -7 204 14 175 -7 b 24 117 65 -7 24 42 l 24 567 b 131 689 24 642 67 689 b 214 639 167 689 194 675 l 219 639 l 219 933 l 353 933 l 353 0 m 160 151 b 192 110 160 124 171 110 b 222 142 210 110 219 121 l 222 542 b 192 572 219 563 210 572 b 160 531 171 572 160 558 m 375 667 b 435 765 415 689 435 722 l 435 797 l 375 797 l 375 933 l 513 933 l 513 785 b 375 590 513 671 464 607 "},"đ":{"ha":376,"x_min":0,"x_max":0,"o":"m 231 0 l 229 58 l 224 58 b 132 -7 204 14 175 -7 b 24 117 65 -7 24 42 l 24 567 b 131 689 24 642 67 689 b 214 639 167 689 194 675 l 219 639 l 219 767 l 122 767 l 122 850 l 219 850 l 219 933 l 353 933 l 353 850 l 376 850 l 376 767 l 353 767 l 353 0 m 160 151 b 192 110 160 124 171 110 b 222 142 210 110 219 121 l 222 542 b 192 572 219 563 210 572 b 160 531 171 572 160 558 "},"Ē":{"ha":300,"x_min":0,"x_max":0,"o":"m 21 0 l 21 922 l 282 922 l 282 796 l 160 796 l 160 547 l 267 547 l 267 419 l 160 419 l 160 126 l 290 126 l 290 0 m 26 996 l 26 1079 l 281 1079 l 281 996 "},"ē":{"ha":374,"x_min":0,"x_max":0,"o":"m 350 156 b 185 -7 350 47 296 -7 b 24 156 75 -7 24 46 l 24 526 b 186 689 24 636 75 689 b 350 526 296 689 350 636 l 350 303 l 154 303 l 154 153 b 185 111 154 125 165 111 b 217 153 206 111 217 125 l 217 231 l 350 231 m 217 529 b 186 571 217 558 207 571 b 154 529 165 571 154 558 l 154 399 l 217 399 m 58 767 l 58 850 l 313 850 l 313 767 "},"Ĕ":{"ha":300,"x_min":0,"x_max":0,"o":"m 21 0 l 21 922 l 282 922 l 282 796 l 160 796 l 160 547 l 267 547 l 267 419 l 160 419 l 160 126 l 290 126 l 290 0 m 161 946 b 11 1124 74 946 11 1008 l 108 1124 b 161 1029 110 1058 126 1029 b 213 1124 194 1029 211 1058 l 311 1124 b 161 946 311 1007 249 946 "},"ĕ":{"ha":374,"x_min":0,"x_max":0,"o":"m 350 156 b 185 -7 350 47 296 -7 b 24 156 75 -7 24 46 l 24 526 b 186 689 24 636 75 689 b 350 526 296 689 350 636 l 350 303 l 154 303 l 154 153 b 185 111 154 125 165 111 b 217 153 206 111 217 125 l 217 231 l 350 231 m 217 529 b 186 571 217 558 207 571 b 154 529 165 571 154 558 l 154 399 l 217 399 m 186 717 b 36 894 99 717 36 779 l 133 894 b 186 800 135 829 151 800 b 238 894 219 800 236 829 l 336 894 b 186 717 336 778 274 717 "},"Ė":{"ha":300,"x_min":0,"x_max":0,"o":"m 21 0 l 21 922 l 282 922 l 282 796 l 160 796 l 160 547 l 267 547 l 267 419 l 160 419 l 160 126 l 290 126 l 290 0 m 88 983 l 88 1107 l 224 1107 l 224 983 "},"ė":{"ha":374,"x_min":0,"x_max":0,"o":"m 350 156 b 185 -7 350 47 296 -7 b 24 156 75 -7 24 46 l 24 526 b 186 689 24 636 75 689 b 350 526 296 689 350 636 l 350 303 l 154 303 l 154 153 b 185 111 154 125 165 111 b 217 153 206 111 217 125 l 217 231 l 350 231 m 217 529 b 186 571 217 558 207 571 b 154 529 165 571 154 558 l 154 399 l 217 399 m 117 754 l 117 878 l 253 878 l 253 754 "},"Ę":{"ha":300,"x_min":0,"x_max":0,"o":"m 288 -294 b 218 -308 269 -304 244 -308 b 115 -204 149 -308 115 -281 l 115 -162 b 239 -3 115 -83 160 -32 l 239 0 l 21 0 l 21 922 l 282 922 l 282 796 l 160 796 l 160 547 l 267 547 l 267 419 l 160 419 l 160 126 l 290 126 l 290 0 b 207 -122 235 -36 207 -75 l 207 -160 b 246 -190 207 -183 218 -190 b 288 -185 261 -190 278 -187 "},"ę":{"ha":374,"x_min":0,"x_max":0,"o":"m 254 -294 b 183 -308 236 -304 211 -308 b 82 -204 115 -308 82 -281 l 82 -162 b 174 -11 82 -93 114 -43 l 174 -7 b 24 156 71 -4 24 49 l 24 526 b 186 689 24 636 75 689 b 350 526 296 689 350 636 l 350 303 l 154 303 l 154 153 b 185 111 154 125 165 111 b 217 153 206 111 217 125 l 217 231 l 350 231 l 350 156 b 251 1 350 71 318 19 b 172 -122 200 -32 172 -76 l 172 -160 b 213 -190 172 -183 183 -190 b 254 -185 228 -190 244 -187 m 217 529 b 186 571 217 558 207 571 b 154 529 165 571 154 558 l 154 399 l 217 399 "},"Ě":{"ha":300,"x_min":0,"x_max":0,"o":"m 21 0 l 21 922 l 282 922 l 282 796 l 160 796 l 160 547 l 267 547 l 267 419 l 160 419 l 160 126 l 290 126 l 290 0 m 93 965 l 6 1099 l 64 1144 l 153 1043 l 242 1144 l 300 1099 l 213 965 "},"ě":{"ha":374,"x_min":0,"x_max":0,"o":"m 350 156 b 185 -7 350 47 296 -7 b 24 156 75 -7 24 46 l 24 526 b 186 689 24 636 75 689 b 350 526 296 689 350 636 l 350 303 l 154 303 l 154 153 b 185 111 154 125 165 111 b 217 153 206 111 217 125 l 217 231 l 350 231 m 217 529 b 186 571 217 558 207 571 b 154 529 165 571 154 558 l 154 399 l 217 399 m 126 736 l 39 869 l 97 915 l 186 814 l 275 915 l 333 869 l 246 736 "},"Ğ":{"ha":378,"x_min":0,"x_max":0,"o":"m 265 0 l 260 36 l 254 36 b 169 -7 242 15 222 -7 b 21 175 76 -7 21 60 l 21 743 b 188 928 21 860 79 928 b 356 740 297 928 356 858 l 356 638 l 224 638 l 224 756 b 192 797 224 783 213 797 b 161 756 171 797 161 783 l 161 164 b 192 122 161 136 171 122 b 224 164 213 122 224 136 l 224 350 l 183 350 l 183 475 l 356 475 l 356 0 m 192 946 b 42 1124 104 946 42 1008 l 139 1124 b 192 1029 140 1058 157 1029 b 243 1124 225 1029 242 1058 l 342 1124 b 192 946 342 1007 279 946 "},"ğ":{"ha":376,"x_min":0,"x_max":0,"o":"m 353 -161 b 188 -324 353 -269 297 -324 b 26 -161 81 -324 26 -269 l 26 -42 l 156 -42 l 156 -161 b 188 -203 156 -189 167 -203 b 218 -161 208 -203 218 -189 l 218 50 l 213 50 b 128 0 196 17 168 0 b 24 151 46 0 24 53 l 24 564 b 131 689 24 642 65 689 b 224 624 174 689 201 667 l 229 624 l 231 683 l 353 683 l 353 -161 m 160 185 b 190 122 160 142 164 122 b 222 176 214 122 222 143 l 222 515 b 192 572 222 550 215 572 b 160 531 171 572 160 558 m 192 717 b 42 894 104 717 42 779 l 139 894 b 192 800 140 829 157 800 b 243 894 225 800 242 829 l 342 894 b 192 717 342 778 279 717 "},"Ġ":{"ha":378,"x_min":0,"x_max":0,"o":"m 265 0 l 260 36 l 254 36 b 169 -7 242 15 222 -7 b 21 175 76 -7 21 60 l 21 743 b 188 928 21 860 79 928 b 356 740 297 928 356 858 l 356 638 l 224 638 l 224 756 b 192 797 224 783 213 797 b 161 756 171 797 161 783 l 161 164 b 192 122 161 136 171 122 b 224 164 213 122 224 136 l 224 350 l 183 350 l 183 475 l 356 475 l 356 0 m 124 983 l 124 1107 l 260 1107 l 260 983 "},"ġ":{"ha":376,"x_min":0,"x_max":0,"o":"m 353 -161 b 188 -324 353 -269 297 -324 b 26 -161 81 -324 26 -269 l 26 -42 l 156 -42 l 156 -161 b 188 -203 156 -189 167 -203 b 218 -161 208 -203 218 -189 l 218 50 l 213 50 b 128 0 196 17 168 0 b 24 151 46 0 24 53 l 24 564 b 131 689 24 642 65 689 b 224 624 174 689 201 667 l 229 624 l 231 683 l 353 683 l 353 -161 m 160 185 b 190 122 160 142 164 122 b 222 176 214 122 222 143 l 222 515 b 192 572 222 550 215 572 b 160 531 171 572 160 558 m 124 754 l 124 878 l 260 878 l 260 754 "},"Ģ":{"ha":378,"x_min":0,"x_max":0,"o":"m 265 0 l 260 36 l 254 36 b 169 -7 242 15 222 -7 b 21 175 76 -7 21 60 l 21 743 b 188 928 21 860 79 928 b 356 740 297 928 356 858 l 356 638 l 224 638 l 224 756 b 192 797 224 783 213 797 b 161 756 171 797 161 783 l 161 164 b 192 122 161 136 171 122 b 224 164 213 122 224 136 l 224 350 l 183 350 l 183 475 l 356 475 l 356 0 m 131 -249 b 189 -193 169 -242 189 -228 l 189 -157 l 129 -157 l 129 -26 l 250 -26 l 250 -157 b 131 -308 250 -258 213 -304 "},"ģ":{"ha":376,"x_min":0,"x_max":0,"o":"m 353 -161 b 188 -324 353 -269 297 -324 b 26 -161 81 -324 26 -269 l 26 -42 l 156 -42 l 156 -161 b 188 -203 156 -189 167 -203 b 218 -161 208 -203 218 -189 l 218 50 l 213 50 b 128 0 196 17 168 0 b 24 151 46 0 24 53 l 24 564 b 131 689 24 642 65 689 b 224 624 174 689 201 667 l 229 624 l 231 683 l 353 683 l 353 -161 m 160 185 b 190 122 160 142 164 122 b 222 176 214 122 222 143 l 222 515 b 192 572 222 550 215 572 b 160 531 171 572 160 558 m 253 976 b 194 921 214 969 194 956 l 194 885 l 254 885 l 254 754 l 133 754 l 133 885 b 253 1036 133 986 171 1032 "},"Ħ":{"ha":389,"x_min":0,"x_max":0,"o":"m 225 0 l 225 429 l 163 429 l 163 0 l 21 0 l 21 693 l -1 693 l -1 775 l 21 775 l 21 922 l 163 922 l 163 775 l 225 775 l 225 922 l 367 922 l 367 775 l 389 775 l 389 693 l 367 693 l 367 0 m 225 556 l 225 693 l 163 693 l 163 556 "},"ħ":{"ha":379,"x_min":0,"x_max":0,"o":"m 158 767 l 158 633 l 164 633 b 253 689 181 669 208 689 b 356 558 329 689 356 631 l 356 0 l 219 0 l 219 538 b 192 572 219 560 210 572 b 158 531 171 572 161 558 l 158 0 l 24 0 l 24 767 l -1 767 l -1 850 l 24 850 l 24 933 l 158 933 l 158 850 l 253 850 l 253 767 "},"ћ":{"ha":379,"x_min":0,"x_max":0,"o":"m 253 767 l 253 850 l 158 850 l 158 933 l 24 933 l 24 850 l -1 850 l -1 767 l 24 767 l 24 0 l 158 0 l 158 531 b 192 572 161 558 171 572 b 219 538 210 572 219 560 l 219 0 l 356 0 l 356 558 b 253 689 356 631 329 689 b 164 633 208 689 181 669 l 158 633 l 158 767 "},"Ĩ":{"ha":210,"x_min":0,"x_max":0,"o":"m 33 0 l 33 922 l 175 922 l 175 0 m 251 1042 b 171 961 240 985 208 961 b 51 997 124 961 92 997 b 14 964 36 997 21 992 l -43 996 b 39 1075 -32 1051 0 1075 b 157 1039 85 1075 117 1039 b 194 1072 174 1039 188 1046 "},"ĩ":{"ha":264,"x_min":0,"x_max":0,"o":"m 278 813 b 197 732 267 756 235 732 b 78 768 150 732 118 768 b 40 735 63 768 47 763 l -17 767 b 65 846 -6 822 26 846 b 183 810 111 846 143 810 b 221 843 200 810 214 817 m 61 0 l 61 683 l 196 683 l 196 0 "},"Ī":{"ha":232,"x_min":0,"x_max":0,"o":"m 44 0 l 44 922 l 186 922 l 186 0 m -12 996 l -12 1079 l 242 1079 l 242 996 "},"ī":{"ha":221,"x_min":0,"x_max":0,"o":"m -18 767 l -18 850 l 236 850 l 236 767 m 40 0 l 40 683 l 175 683 l 175 0 "},"Ĭ":{"ha":218,"x_min":0,"x_max":0,"o":"m 38 0 l 38 922 l 179 922 l 179 0 m 108 946 b -42 1124 21 946 -42 1008 l 56 1124 b 108 1029 57 1058 74 1029 b 160 1124 142 1029 158 1058 l 258 1124 b 108 946 258 1007 196 946 "},"ĭ":{"ha":263,"x_min":0,"x_max":0,"o":"m 129 717 b -21 894 42 717 -21 779 l 76 894 b 129 800 78 829 94 800 b 181 894 163 800 179 829 l 279 894 b 129 717 279 778 217 717 m 63 0 l 63 683 l 197 683 l 197 0 "},"Į":{"ha":185,"x_min":0,"x_max":0,"o":"m 161 -294 b 90 -308 143 -304 118 -308 b -11 -204 22 -308 -11 -281 l -11 -162 b 107 -4 -11 -85 31 -35 l 107 0 l 21 0 l 21 922 l 163 922 l 163 0 b 79 -122 108 -36 79 -75 l 79 -160 b 119 -190 79 -183 90 -190 b 161 -185 135 -190 151 -187 "},"į":{"ha":183,"x_min":0,"x_max":0,"o":"m 157 -294 b 86 -308 139 -304 114 -308 b -15 -204 18 -308 -15 -281 l -15 -162 b 103 -4 -15 -85 26 -35 l 103 0 l 24 0 l 24 683 l 158 683 l 158 0 b 131 -21 147 -7 139 -14 l 131 -24 l 126 -24 b 75 -122 93 -53 75 -85 l 75 -160 b 115 -190 75 -183 86 -190 b 157 -185 131 -190 147 -187 m 24 754 l 24 878 l 158 878 l 158 754 "},"İ":{"ha":185,"x_min":0,"x_max":0,"o":"m 21 0 l 21 922 l 163 922 l 163 0 m 25 983 l 25 1107 l 161 1107 l 161 983 "},"ı":{"ha":183,"x_min":0,"x_max":0,"o":"m 24 0 l 24 683 l 158 683 l 158 0 "},"Ĳ":{"ha":547,"x_min":0,"x_max":0,"o":"m 21 0 l 21 922 l 163 922 l 163 0 m 386 922 l 525 922 l 525 175 b 357 -7 525 58 468 -7 b 190 174 249 -7 190 53 l 190 349 l 324 349 l 324 164 b 354 122 324 136 333 122 b 386 164 375 122 386 136 "},"ĳ":{"ha":378,"x_min":0,"x_max":0,"o":"m 24 0 l 24 683 l 160 683 l 160 0 m 24 754 l 24 878 l 160 878 l 160 754 m 24 -71 l 160 -71 l 160 -161 b 189 -203 160 -189 168 -203 b 218 -161 210 -203 218 -189 l 218 683 l 353 683 l 353 -161 b 188 -324 353 -271 299 -324 b 24 -161 78 -324 24 -271 m 218 754 l 218 878 l 353 878 l 353 754 "},"Ķ":{"ha":383,"x_min":0,"x_max":0,"o":"m 235 0 l 192 349 l 188 349 l 165 258 l 165 0 l 21 0 l 21 922 l 165 922 l 165 604 l 171 604 b 238 922 176 646 188 692 l 379 922 l 292 574 l 378 0 m 131 -249 b 189 -193 169 -242 189 -228 l 189 -157 l 129 -157 l 129 -26 l 250 -26 l 250 -157 b 131 -308 250 -258 213 -304 "},"ķ":{"ha":375,"x_min":0,"x_max":0,"o":"m 229 0 l 186 244 l 181 244 l 158 175 l 158 0 l 24 0 l 24 933 l 158 933 l 158 443 l 164 443 b 228 683 168 465 174 492 l 372 683 l 285 403 l 371 0 m 131 -249 b 189 -193 169 -242 189 -228 l 189 -157 l 129 -157 l 129 -26 l 250 -26 l 250 -157 b 131 -308 250 -258 213 -304 "},"Ĺ":{"ha":308,"x_min":0,"x_max":0,"o":"m 21 0 l 21 922 l 163 922 l 163 129 l 296 129 l 296 0 m 63 946 l 11 999 l 161 1167 l 229 1086 "},"ĺ":{"ha":183,"x_min":0,"x_max":0,"o":"m 24 0 l 24 933 l 158 933 l 158 0 m 54 946 l 3 999 l 153 1167 l 221 1086 "},"Ļ":{"ha":308,"x_min":0,"x_max":0,"o":"m 21 0 l 21 922 l 163 922 l 163 129 l 296 129 l 296 0 m 94 -249 b 153 -193 133 -242 153 -228 l 153 -157 l 93 -157 l 93 -26 l 214 -26 l 214 -157 b 94 -308 214 -258 176 -304 "},"ļ":{"ha":183,"x_min":0,"x_max":0,"o":"m 24 0 l 24 933 l 158 933 l 158 0 m 31 -249 b 89 -193 69 -242 89 -228 l 89 -157 l 29 -157 l 29 -26 l 150 -26 l 150 -157 b 31 -308 150 -258 113 -304 "},"Ľ":{"ha":321,"x_min":0,"x_max":0,"o":"m 21 0 l 21 922 l 163 922 l 163 129 l 296 129 l 296 0 m 182 667 b 242 765 222 689 242 722 l 242 797 l 182 797 l 182 933 l 319 933 l 319 785 b 182 590 319 671 271 607 "},"ľ":{"ha":321,"x_min":0,"x_max":0,"o":"m 24 0 l 24 933 l 158 933 l 158 0 m 182 667 b 242 765 222 689 242 722 l 242 797 l 182 797 l 182 933 l 319 933 l 319 785 b 182 590 319 671 271 607 "},"Ł":{"ha":308,"x_min":0,"x_max":0,"o":"m 21 0 l 21 922 l 163 922 l 163 696 l 258 736 l 258 617 l 163 575 l 163 129 l 296 129 l 296 0 "},"ł":{"ha":243,"x_min":0,"x_max":0,"o":"m 54 0 l 54 385 l 0 364 l 0 465 l 54 486 l 54 933 l 189 933 l 189 539 l 243 560 l 243 458 l 189 438 l 189 0 "},"Ń":{"ha":408,"x_min":0,"x_max":0,"o":"m 222 0 l 142 640 l 136 640 b 142 296 140 571 142 489 l 142 0 l 21 0 l 21 922 l 208 922 l 265 329 l 271 329 b 265 717 268 417 265 501 l 265 922 l 388 922 l 388 0 m 168 946 l 117 999 l 267 1167 l 335 1086 "},"ń":{"ha":379,"x_min":0,"x_max":0,"o":"m 219 0 l 219 538 b 192 572 219 560 210 572 b 158 542 175 572 164 563 l 158 0 l 24 0 l 24 683 l 150 683 l 153 624 l 158 624 b 251 689 181 671 213 689 b 356 565 313 689 356 643 l 356 0 m 151 717 l 100 769 l 250 938 l 318 857 "},"Ņ":{"ha":408,"x_min":0,"x_max":0,"o":"m 222 0 l 142 640 l 136 640 b 142 296 140 571 142 489 l 142 0 l 21 0 l 21 922 l 208 922 l 265 329 l 271 329 b 265 717 268 417 265 501 l 265 922 l 388 922 l 388 0 m 136 -249 b 194 -193 175 -242 194 -228 l 194 -157 l 135 -157 l 135 -26 l 256 -26 l 256 -157 b 136 -308 256 -258 218 -304 "},"ņ":{"ha":379,"x_min":0,"x_max":0,"o":"m 219 0 l 219 538 b 192 572 219 560 210 572 b 158 542 175 572 164 563 l 158 0 l 24 0 l 24 683 l 150 683 l 153 624 l 158 624 b 251 689 181 671 213 689 b 356 565 313 689 356 643 l 356 0 m 129 -249 b 188 -193 168 -242 188 -228 l 188 -157 l 128 -157 l 128 -26 l 249 -26 l 249 -157 b 129 -308 249 -258 211 -304 "},"Ň":{"ha":408,"x_min":0,"x_max":0,"o":"m 222 0 l 142 640 l 136 640 b 142 296 140 571 142 489 l 142 0 l 21 0 l 21 922 l 208 922 l 265 329 l 271 329 b 265 717 268 417 265 501 l 265 922 l 388 922 l 388 0 m 146 965 l 58 1099 l 117 1144 l 206 1043 l 294 1144 l 353 1099 l 265 965 "},"ň":{"ha":379,"x_min":0,"x_max":0,"o":"m 219 0 l 219 538 b 192 572 219 560 210 572 b 158 542 175 572 164 563 l 158 0 l 24 0 l 24 683 l 150 683 l 153 624 l 158 624 b 251 689 181 671 213 689 b 356 565 313 689 356 643 l 356 0 m 129 736 l 42 869 l 100 915 l 189 814 l 278 915 l 336 869 l 249 736 "},"Ŋ":{"ha":408,"x_min":0,"x_max":0,"o":"m 388 -161 b 211 -325 388 -269 321 -325 b 168 -321 185 -325 175 -322 l 168 -199 b 192 -203 175 -203 185 -203 b 228 -161 215 -203 228 -189 l 228 -43 l 142 640 l 136 640 b 142 296 140 571 142 489 l 142 0 l 21 0 l 21 922 l 208 922 l 265 329 l 271 329 b 265 717 268 417 265 501 l 265 922 l 388 922 l 388 -161 "},"ŋ":{"ha":379,"x_min":0,"x_max":0,"o":"m 168 -200 b 188 -203 174 -203 182 -203 b 219 -161 208 -203 219 -189 l 219 538 b 192 572 219 560 210 572 b 158 542 175 572 164 563 l 158 0 l 24 0 l 24 683 l 150 683 l 153 624 l 158 624 b 251 689 181 671 213 689 b 356 565 313 689 356 643 l 356 -161 b 204 -324 356 -271 299 -324 b 168 -319 182 -324 174 -322 "},"Ō":{"ha":376,"x_min":0,"x_max":0,"o":"m 358 174 b 189 -7 358 53 297 -7 b 17 175 78 -7 17 58 l 17 743 b 188 928 17 860 79 928 b 358 740 296 928 358 858 m 219 756 b 188 797 219 783 208 797 b 157 756 167 797 157 783 l 157 164 b 188 122 157 136 167 122 b 219 164 208 122 219 136 m 61 996 l 61 1079 l 315 1079 l 315 996 "},"ō":{"ha":372,"x_min":0,"x_max":0,"o":"m 349 156 b 186 -7 349 44 296 -7 b 24 156 75 -7 24 44 l 24 526 b 186 689 24 638 75 689 b 349 526 296 689 349 638 m 217 526 b 186 568 217 554 206 568 b 154 526 167 568 154 554 l 154 156 b 186 114 154 128 167 114 b 217 156 206 114 217 128 m 58 767 l 58 850 l 313 850 l 313 767 "},"Ŏ":{"ha":376,"x_min":0,"x_max":0,"o":"m 358 174 b 189 -7 358 53 297 -7 b 17 175 78 -7 17 58 l 17 743 b 188 928 17 860 79 928 b 358 740 296 928 358 858 m 219 756 b 188 797 219 783 208 797 b 157 756 167 797 157 783 l 157 164 b 188 122 157 136 167 122 b 219 164 208 122 219 136 m 188 946 b 38 1124 100 946 38 1008 l 135 1124 b 188 1029 136 1058 153 1029 b 239 1124 221 1029 238 1058 l 338 1124 b 188 946 338 1007 275 946 "},"ŏ":{"ha":372,"x_min":0,"x_max":0,"o":"m 349 156 b 186 -7 349 44 296 -7 b 24 156 75 -7 24 44 l 24 526 b 186 689 24 638 75 689 b 349 526 296 689 349 638 m 217 526 b 186 568 217 554 206 568 b 154 526 167 568 154 554 l 154 156 b 186 114 154 128 167 114 b 217 156 206 114 217 128 m 186 717 b 36 894 99 717 36 779 l 133 894 b 186 800 135 829 151 800 b 238 894 219 800 236 829 l 336 894 b 186 717 336 778 274 717 "},"Ő":{"ha":376,"x_min":0,"x_max":0,"o":"m 358 174 b 189 -7 358 53 297 -7 b 17 175 78 -7 17 58 l 17 743 b 188 928 17 860 79 928 b 358 740 296 928 358 858 m 219 756 b 188 797 219 783 208 797 b 157 756 167 797 157 783 l 157 164 b 188 122 157 136 167 122 b 219 164 208 122 219 136 m 63 975 l 142 1167 l 225 1119 l 124 946 m 192 975 l 269 1167 l 354 1119 l 251 946 "},"ő":{"ha":372,"x_min":0,"x_max":0,"o":"m 349 156 b 186 -7 349 44 296 -7 b 24 156 75 -7 24 44 l 24 526 b 186 689 24 638 75 689 b 349 526 296 689 349 638 m 217 526 b 186 568 217 554 206 568 b 154 526 167 568 154 554 l 154 156 b 186 114 154 128 167 114 b 217 156 206 114 217 128 m 61 746 l 140 938 l 224 890 l 122 717 m 190 746 l 268 938 l 353 890 l 250 717 "},"Œ":{"ha":508,"x_min":0,"x_max":0,"o":"m 246 0 b 189 -7 228 -4 208 -7 b 17 175 78 -7 17 58 l 17 743 b 188 928 17 860 79 928 b 240 922 207 928 225 926 l 489 922 l 489 796 l 354 796 b 358 740 357 778 358 760 l 358 547 l 475 547 l 475 419 l 358 419 l 358 174 b 354 126 358 157 358 142 l 497 126 l 497 0 m 219 756 b 188 797 219 783 208 797 b 157 756 167 797 157 783 l 157 164 b 188 122 157 136 167 122 b 219 164 208 122 219 136 "},"œ":{"ha":554,"x_min":0,"x_max":0,"o":"m 533 156 b 368 -7 533 47 479 -7 b 276 13 329 -7 299 0 b 186 -7 254 0 225 -7 b 24 156 75 -7 24 44 l 24 526 b 186 689 24 638 75 689 b 276 668 225 689 254 682 b 369 689 300 682 329 689 b 533 526 479 689 533 636 l 533 303 l 338 303 l 338 153 b 368 111 338 125 349 111 b 400 153 389 111 400 125 l 400 231 l 533 231 m 217 526 b 186 568 217 554 206 568 b 154 526 167 568 154 554 l 154 156 b 186 114 154 128 167 114 b 217 156 206 114 217 128 m 400 529 b 369 571 400 558 390 571 b 338 529 349 571 338 558 l 338 399 l 400 399 "},"Ŕ":{"ha":378,"x_min":0,"x_max":0,"o":"m 21 0 l 21 922 l 222 922 b 358 776 322 922 358 868 l 358 569 b 283 458 358 508 329 467 l 283 453 b 361 342 329 446 361 418 l 361 0 l 222 0 l 222 354 b 190 393 222 379 213 393 l 160 393 l 160 0 m 222 760 b 188 796 222 785 211 796 l 160 796 l 160 508 l 188 508 b 222 554 211 508 222 525 m 143 946 l 92 999 l 242 1167 l 310 1086 "},"ŕ":{"ha":283,"x_min":0,"x_max":0,"o":"m 24 0 l 24 683 l 150 683 l 153 624 l 158 624 b 243 689 174 663 199 689 b 274 683 254 689 264 688 l 274 563 b 238 568 263 567 253 568 b 158 483 179 568 158 539 l 158 0 m 110 717 l 58 769 l 208 938 l 276 857 "},"Ŗ":{"ha":378,"x_min":0,"x_max":0,"o":"m 21 0 l 21 922 l 222 922 b 358 776 322 922 358 868 l 358 569 b 283 458 358 508 329 467 l 283 453 b 361 342 329 446 361 418 l 361 0 l 222 0 l 222 354 b 190 393 222 379 213 393 l 160 393 l 160 0 m 222 760 b 188 796 222 785 211 796 l 160 796 l 160 508 l 188 508 b 222 554 211 508 222 525 m 131 -249 b 189 -193 169 -242 189 -228 l 189 -157 l 129 -157 l 129 -26 l 250 -26 l 250 -157 b 131 -308 250 -258 213 -304 "},"ŗ":{"ha":283,"x_min":0,"x_max":0,"o":"m 24 0 l 24 683 l 150 683 l 153 624 l 158 624 b 243 689 174 663 199 689 b 274 683 254 689 264 688 l 274 563 b 238 568 263 567 253 568 b 158 483 179 568 158 539 l 158 0 m 29 -249 b 88 -193 68 -242 88 -228 l 88 -157 l 28 -157 l 28 -26 l 149 -26 l 149 -157 b 29 -308 149 -258 111 -304 "},"Ř":{"ha":378,"x_min":0,"x_max":0,"o":"m 21 0 l 21 922 l 222 922 b 358 776 322 922 358 868 l 358 569 b 283 458 358 508 329 467 l 283 453 b 361 342 329 446 361 418 l 361 0 l 222 0 l 222 354 b 190 393 222 379 213 393 l 160 393 l 160 0 m 222 760 b 188 796 222 785 211 796 l 160 796 l 160 508 l 188 508 b 222 554 211 508 222 525 m 122 965 l 35 1099 l 93 1144 l 182 1043 l 271 1144 l 329 1099 l 242 965 "},"ř":{"ha":283,"x_min":0,"x_max":0,"o":"m 24 0 l 24 683 l 150 683 l 153 624 l 158 624 b 243 689 174 663 199 689 b 274 683 254 689 264 688 l 274 563 b 238 568 263 567 253 568 b 158 483 179 568 158 539 l 158 0 m 88 736 l 0 869 l 58 915 l 147 814 l 236 915 l 294 869 l 207 736 "},"Ś":{"ha":392,"x_min":0,"x_max":0,"o":"m 229 650 l 229 757 b 194 797 229 783 217 797 b 160 761 171 797 160 782 l 160 681 b 189 588 160 629 164 615 b 335 443 238 532 300 489 b 374 296 361 407 374 371 l 374 172 b 194 -7 374 56 319 -7 b 17 174 71 -7 17 54 l 17 276 l 150 276 l 150 163 b 189 122 150 138 164 122 b 225 163 214 122 225 138 l 225 264 b 188 379 225 332 215 349 b 58 525 143 428 90 469 b 21 688 33 568 21 611 l 21 765 b 192 928 21 869 81 928 b 361 740 317 928 361 854 l 361 650 m 156 946 l 104 999 l 254 1167 l 322 1086 "},"ś":{"ha":367,"x_min":0,"x_max":0,"o":"m 215 476 l 215 550 b 185 579 215 569 204 579 b 153 553 167 579 153 571 l 153 474 b 183 422 153 451 156 443 b 297 350 218 397 263 379 b 347 225 328 325 347 294 l 347 132 b 188 -7 347 39 297 -7 b 19 138 71 -7 19 43 l 19 219 l 146 219 l 146 133 b 181 103 146 113 158 103 b 213 129 203 103 213 113 l 213 221 b 172 282 213 243 207 257 b 61 365 142 304 86 338 b 25 474 32 397 25 433 l 25 565 b 181 689 25 642 82 689 b 342 543 285 689 342 635 l 342 476 m 146 717 l 94 769 l 244 938 l 313 857 "},"Ş":{"ha":392,"x_min":0,"x_max":0,"o":"m 229 650 l 229 757 b 194 797 229 783 217 797 b 160 761 171 797 160 782 l 160 681 b 189 588 160 629 164 615 b 335 443 238 532 300 489 b 374 296 361 407 374 371 l 374 172 b 194 -7 374 56 319 -7 b 17 174 71 -7 17 54 l 17 276 l 150 276 l 150 163 b 189 122 150 138 164 122 b 225 163 214 122 225 138 l 225 264 b 188 379 225 332 215 349 b 58 525 143 428 90 469 b 21 688 33 568 21 611 l 21 765 b 192 928 21 869 81 928 b 361 740 317 928 361 854 l 361 650 m 132 -249 b 190 -193 171 -242 190 -228 l 190 -157 l 131 -157 l 131 -26 l 251 -26 l 251 -157 b 132 -308 251 -258 214 -304 "},"Ș":{"ha":392,"x_min":0,"x_max":0,"o":"m 361 650 l 361 740 b 192 928 361 854 317 928 b 21 765 81 928 21 869 l 21 688 b 58 525 21 611 33 568 b 188 379 90 469 143 428 b 225 264 215 349 225 332 l 225 163 b 189 122 225 138 214 122 b 150 163 164 122 150 138 l 150 276 l 17 276 l 17 174 b 194 -7 17 54 71 -7 b 374 172 319 -7 374 56 l 374 296 b 335 443 374 371 361 407 b 189 588 300 489 238 532 b 160 681 164 615 160 629 l 160 761 b 194 797 160 782 171 797 b 229 757 217 797 229 783 l 229 650 m 132 -308 b 251 -157 214 -304 251 -258 l 251 -26 l 131 -26 l 131 -157 l 190 -157 l 190 -193 b 132 -249 190 -228 171 -242 "},"ş":{"ha":367,"x_min":0,"x_max":0,"o":"m 215 476 l 215 550 b 185 579 215 569 204 579 b 153 553 167 579 153 571 l 153 474 b 183 422 153 451 156 443 b 297 350 218 397 263 379 b 347 225 328 325 347 294 l 347 132 b 188 -7 347 39 297 -7 b 19 138 71 -7 19 43 l 19 219 l 146 219 l 146 133 b 181 103 146 113 158 103 b 213 129 203 103 213 113 l 213 221 b 172 282 213 243 207 257 b 61 365 142 304 86 338 b 25 474 32 397 25 433 l 25 565 b 181 689 25 642 82 689 b 342 543 285 689 342 635 l 342 476 m 124 -249 b 182 -193 163 -242 182 -228 l 182 -157 l 122 -157 l 122 -26 l 243 -26 l 243 -157 b 124 -308 243 -258 206 -304 "},"ș":{"ha":367,"x_min":0,"x_max":0,"o":"m 342 476 l 342 543 b 181 689 342 635 285 689 b 25 565 82 689 25 642 l 25 474 b 61 365 25 433 32 397 b 172 282 86 338 142 304 b 213 221 207 257 213 243 l 213 129 b 181 103 213 113 203 103 b 146 133 158 103 146 113 l 146 219 l 19 219 l 19 138 b 188 -7 19 43 71 -7 b 347 132 297 -7 347 39 l 347 225 b 297 350 347 294 328 325 b 183 422 263 379 218 397 b 153 474 156 443 153 451 l 153 553 b 185 579 153 571 167 579 b 215 550 204 579 215 569 l 215 476 m 124 -308 b 243 -157 206 -304 243 -258 l 243 -26 l 122 -26 l 122 -157 l 182 -157 l 182 -193 b 124 -249 182 -228 163 -242 "},"Š":{"ha":392,"x_min":0,"x_max":0,"o":"m 229 650 l 229 757 b 194 797 229 783 217 797 b 160 761 171 797 160 782 l 160 681 b 189 588 160 629 164 615 b 335 443 238 532 300 489 b 374 296 361 407 374 371 l 374 172 b 194 -7 374 56 319 -7 b 17 174 71 -7 17 54 l 17 276 l 150 276 l 150 163 b 189 122 150 138 164 122 b 225 163 214 122 225 138 l 225 264 b 188 379 225 332 215 349 b 58 525 143 428 90 469 b 21 688 33 568 21 611 l 21 765 b 192 928 21 869 81 928 b 361 740 317 928 361 854 l 361 650 m 136 965 l 49 1099 l 107 1144 l 196 1043 l 285 1144 l 343 1099 l 256 965 "},"š":{"ha":367,"x_min":0,"x_max":0,"o":"m 215 476 l 215 550 b 185 579 215 569 204 579 b 153 553 167 579 153 571 l 153 474 b 183 422 153 451 156 443 b 297 350 218 397 263 379 b 347 225 328 325 347 294 l 347 132 b 188 -7 347 39 297 -7 b 19 138 71 -7 19 43 l 19 219 l 146 219 l 146 133 b 181 103 146 113 158 103 b 213 129 203 103 213 113 l 213 221 b 172 282 213 243 207 257 b 61 365 142 304 86 338 b 25 474 32 397 25 433 l 25 565 b 181 689 25 642 82 689 b 342 543 285 689 342 635 l 342 476 m 121 736 l 33 869 l 92 915 l 181 814 l 269 915 l 328 869 l 240 736 "},"Ţ":{"ha":364,"x_min":0,"x_max":0,"o":"m 111 0 l 111 796 l 13 796 l 13 922 l 351 922 l 351 796 l 251 796 l 251 0 m 121 -249 b 179 -193 160 -242 179 -228 l 179 -157 l 119 -157 l 119 -26 l 240 -26 l 240 -157 b 121 -308 240 -258 203 -304 "},"Ț":{"ha":364,"x_min":0,"x_max":0,"o":"m 251 0 l 251 796 l 351 796 l 351 922 l 13 922 l 13 796 l 111 796 l 111 0 m 121 -308 b 240 -157 203 -304 240 -258 l 240 -26 l 119 -26 l 119 -157 l 179 -157 l 179 -193 b 121 -249 179 -228 160 -242 "},"ţ":{"ha":356,"x_min":0,"x_max":0,"o":"m 217 381 l 332 381 l 332 156 b 186 -7 332 46 296 -7 b 24 156 75 -7 24 46 l 24 868 l 157 868 l 157 683 l 332 683 l 332 563 l 157 563 l 157 156 b 188 114 157 128 167 114 b 217 156 207 114 217 128 m 122 -249 b 181 -193 161 -242 181 -228 l 181 -157 l 121 -157 l 121 -26 l 242 -26 l 242 -157 b 122 -308 242 -258 204 -304 "},"ț":{"ha":356,"x_min":0,"x_max":0,"o":"m 217 156 b 188 114 217 128 207 114 b 157 156 167 114 157 128 l 157 563 l 332 563 l 332 683 l 157 683 l 157 868 l 24 868 l 24 156 b 186 -7 24 46 75 -7 b 332 156 296 -7 332 46 l 332 381 l 217 381 m 122 -308 b 242 -157 204 -304 242 -258 l 242 -26 l 121 -26 l 121 -157 l 181 -157 l 181 -193 b 122 -249 181 -228 161 -242 "},"Ť":{"ha":364,"x_min":0,"x_max":0,"o":"m 111 0 l 111 796 l 13 796 l 13 922 l 351 922 l 351 796 l 251 796 l 251 0 m 121 965 l 33 1099 l 92 1144 l 181 1043 l 269 1144 l 328 1099 l 240 965 "},"ť":{"ha":479,"x_min":0,"x_max":0,"o":"m 217 381 l 332 381 l 332 156 b 186 -7 332 46 296 -7 b 24 156 75 -7 24 46 l 24 868 l 157 868 l 157 683 l 332 683 l 332 563 l 157 563 l 157 156 b 188 114 157 128 167 114 b 217 156 207 114 217 128 m 342 667 b 401 765 382 689 401 722 l 401 797 l 342 797 l 342 933 l 479 933 l 479 785 b 342 590 479 671 431 607 "},"Ŧ":{"ha":364,"x_min":0,"x_max":0,"o":"m 111 0 l 111 449 l 54 449 l 54 532 l 111 532 l 111 796 l 13 796 l 13 922 l 351 922 l 351 796 l 251 796 l 251 532 l 308 532 l 308 449 l 251 449 l 251 0 "},"ŧ":{"ha":356,"x_min":0,"x_max":0,"o":"m 157 433 l 157 156 b 188 114 157 128 167 114 b 217 156 207 114 217 128 l 217 369 l 332 369 l 332 156 b 186 -7 332 46 296 -7 b 24 156 75 -7 24 46 l 24 868 l 157 868 l 157 683 l 332 683 l 332 563 l 157 563 l 157 507 l 331 507 l 331 433 "},"Ũ":{"ha":383,"x_min":0,"x_max":0,"o":"m 221 922 l 361 922 l 361 175 b 192 -7 361 58 303 -7 b 21 174 83 -7 21 53 l 21 922 l 158 922 l 158 164 b 190 122 158 136 169 122 b 221 164 211 122 221 136 m 338 1042 b 257 961 326 985 294 961 b 138 997 210 961 178 997 b 100 964 122 997 107 992 l 43 996 b 125 1075 54 1051 86 1075 b 243 1039 171 1075 203 1039 b 281 1072 260 1039 274 1046 "},"ũ":{"ha":378,"x_min":0,"x_max":0,"o":"m 160 683 l 160 158 b 189 110 160 122 164 110 b 218 158 213 110 218 122 l 218 683 l 354 683 l 354 0 l 226 0 l 225 58 l 219 58 b 126 -7 194 10 169 -7 b 24 158 36 -7 24 64 l 24 683 m 336 813 b 256 732 325 756 293 732 b 136 768 208 732 176 768 b 99 735 121 768 106 763 l 42 767 b 124 846 53 822 85 846 b 242 810 169 846 201 810 b 279 843 258 810 272 817 "},"Ū":{"ha":383,"x_min":0,"x_max":0,"o":"m 221 922 l 361 922 l 361 175 b 192 -7 361 58 303 -7 b 21 174 83 -7 21 53 l 21 922 l 158 922 l 158 164 b 190 122 158 136 169 122 b 221 164 211 122 221 136 m 64 996 l 64 1079 l 318 1079 l 318 996 "},"ū":{"ha":378,"x_min":0,"x_max":0,"o":"m 160 683 l 160 158 b 189 110 160 122 164 110 b 218 158 213 110 218 122 l 218 683 l 354 683 l 354 0 l 226 0 l 225 58 l 219 58 b 126 -7 194 10 169 -7 b 24 158 36 -7 24 64 l 24 683 m 63 767 l 63 850 l 317 850 l 317 767 "},"Ŭ":{"ha":383,"x_min":0,"x_max":0,"o":"m 221 922 l 361 922 l 361 175 b 192 -7 361 58 303 -7 b 21 174 83 -7 21 53 l 21 922 l 158 922 l 158 164 b 190 122 158 136 169 122 b 221 164 211 122 221 136 m 189 946 b 39 1124 101 946 39 1008 l 136 1124 b 189 1029 138 1058 154 1029 b 240 1124 222 1029 239 1058 l 339 1124 b 189 946 339 1007 276 946 "},"ŭ":{"ha":378,"x_min":0,"x_max":0,"o":"m 160 683 l 160 158 b 189 110 160 122 164 110 b 218 158 213 110 218 122 l 218 683 l 354 683 l 354 0 l 226 0 l 225 58 l 219 58 b 126 -7 194 10 169 -7 b 24 158 36 -7 24 64 l 24 683 m 188 717 b 38 894 100 717 38 779 l 135 894 b 188 800 136 829 153 800 b 239 894 221 800 238 829 l 338 894 b 188 717 338 778 275 717 "},"Ů":{"ha":383,"x_min":0,"x_max":0,"o":"m 221 922 l 361 922 l 361 175 b 192 -7 361 58 303 -7 b 21 174 83 -7 21 53 l 21 922 l 158 922 l 158 164 b 190 122 158 136 169 122 b 221 164 211 122 221 136 m 192 1000 b 229 1050 217 1000 229 1018 b 192 1100 229 1081 217 1100 b 154 1050 167 1100 154 1081 b 192 1000 154 1018 167 1000 m 192 946 b 99 1050 129 946 99 986 b 192 1154 99 1114 129 1154 b 285 1050 254 1154 285 1114 b 192 946 285 986 254 946 "},"ů":{"ha":378,"x_min":0,"x_max":0,"o":"m 160 683 l 160 158 b 189 110 160 122 164 110 b 218 158 213 110 218 122 l 218 683 l 354 683 l 354 0 l 226 0 l 225 58 l 219 58 b 126 -7 194 10 169 -7 b 24 158 36 -7 24 64 l 24 683 m 189 771 b 226 821 214 771 226 789 b 189 871 226 851 214 871 b 151 821 164 871 151 851 b 189 771 151 789 164 771 m 189 717 b 96 821 126 717 96 757 b 189 925 96 885 126 925 b 282 821 251 925 282 885 b 189 717 282 757 251 717 "},"Ű":{"ha":383,"x_min":0,"x_max":0,"o":"m 221 922 l 361 922 l 361 175 b 192 -7 361 58 303 -7 b 21 174 83 -7 21 53 l 21 922 l 158 922 l 158 164 b 190 122 158 136 169 122 b 221 164 211 122 221 136 m 67 975 l 146 1167 l 229 1119 l 128 946 m 196 975 l 274 1167 l 358 1119 l 256 946 "},"ű":{"ha":378,"x_min":0,"x_max":0,"o":"m 160 683 l 160 158 b 189 110 160 122 164 110 b 218 158 213 110 218 122 l 218 683 l 354 683 l 354 0 l 226 0 l 225 58 l 219 58 b 126 -7 194 10 169 -7 b 24 158 36 -7 24 64 l 24 683 m 64 746 l 143 938 l 226 890 l 125 717 m 193 746 l 271 938 l 356 890 l 253 717 "},"Ų":{"ha":383,"x_min":0,"x_max":0,"o":"m 240 -294 b 169 -308 222 -304 197 -308 b 68 -204 101 -308 68 -281 l 68 -162 b 167 -12 68 -90 103 -42 l 167 -6 b 21 174 72 3 21 61 l 21 922 l 158 922 l 158 164 b 190 122 158 136 169 122 b 221 164 211 122 221 136 l 221 922 l 361 922 l 361 175 b 236 -3 361 75 318 13 b 158 -122 185 -36 158 -76 l 158 -160 b 199 -190 158 -183 169 -190 b 240 -185 214 -190 231 -187 "},"ų":{"ha":378,"x_min":0,"x_max":0,"o":"m 351 -294 b 282 -308 333 -304 308 -308 b 179 -204 213 -308 179 -281 l 179 -162 b 299 -4 179 -85 222 -35 l 299 0 l 226 0 l 225 58 l 219 58 b 126 -7 194 10 169 -7 b 24 158 36 -7 24 64 l 24 683 l 160 683 l 160 158 b 189 110 160 122 164 110 b 218 158 213 110 218 122 l 218 683 l 354 683 l 354 0 b 271 -122 299 -36 271 -75 l 271 -160 b 310 -190 271 -183 282 -190 b 351 -185 325 -190 342 -187 "},"Ŵ":{"ha":575,"x_min":0,"x_max":0,"o":"m 68 0 l 4 922 l 140 922 l 169 276 l 175 276 l 213 922 l 363 922 l 404 276 l 410 276 l 438 922 l 571 922 l 507 0 l 328 0 l 290 647 l 285 647 l 247 0 m 374 946 l 285 1047 l 196 946 l 138 992 l 225 1125 l 344 1125 l 432 992 "},"ŵ":{"ha":525,"x_min":0,"x_max":0,"o":"m 60 0 l 3 683 l 129 683 l 153 229 l 158 229 l 193 683 l 331 683 l 368 229 l 374 229 l 397 683 l 521 683 l 464 0 l 299 0 l 265 468 l 260 468 l 225 0 m 350 717 l 261 818 l 172 717 l 114 763 l 201 896 l 321 896 l 408 763 "},"Ŷ":{"ha":383,"x_min":0,"x_max":0,"o":"m 124 0 l 124 379 l 3 922 l 142 922 l 193 621 l 199 621 l 243 922 l 381 922 l 265 378 l 265 0 m 285 946 l 196 1047 l 107 946 l 49 992 l 136 1125 l 256 1125 l 343 992 "},"ŷ":{"ha":376,"x_min":0,"x_max":0,"o":"m 160 164 b 190 122 160 135 171 122 b 222 164 208 122 221 135 l 222 683 l 353 683 l 353 -161 b 188 -324 353 -271 299 -324 b 26 -161 78 -324 26 -271 l 26 -42 l 156 -42 l 156 -161 b 188 -203 156 -189 167 -203 b 218 -161 208 -203 218 -189 l 218 50 l 213 50 b 126 0 192 11 164 0 b 24 133 47 0 24 53 l 24 683 l 160 683 m 282 717 l 193 818 l 104 717 l 46 763 l 133 896 l 253 896 l 340 763 "},"Ÿ":{"ha":383,"x_min":0,"x_max":0,"o":"m 124 0 l 124 379 l 3 922 l 142 922 l 193 621 l 199 621 l 243 922 l 381 922 l 265 378 l 265 0 m 50 983 l 50 1107 l 175 1107 l 175 983 m 214 983 l 214 1107 l 339 1107 l 339 983 "},"Ϋ":{"ha":383,"x_min":0,"x_max":0,"o":"m 265 0 l 265 378 l 381 922 l 243 922 l 199 621 l 193 621 l 142 922 l 3 922 l 124 379 l 124 0 m 175 983 l 175 1107 l 50 1107 l 50 983 m 339 983 l 339 1107 l 214 1107 l 214 983 "},"Ź":{"ha":350,"x_min":0,"x_max":0,"o":"m 13 0 l 13 129 l 190 796 l 14 796 l 14 922 l 332 922 l 332 794 l 157 126 l 338 126 l 338 0 m 139 946 l 88 999 l 238 1167 l 306 1086 "},"ź":{"ha":317,"x_min":0,"x_max":0,"o":"m 14 0 l 14 125 l 163 563 l 17 563 l 17 683 l 299 683 l 299 563 l 153 124 l 303 124 l 303 0 m 122 717 l 71 769 l 221 938 l 289 857 "},"Ż":{"ha":350,"x_min":0,"x_max":0,"o":"m 13 0 l 13 129 l 190 796 l 14 796 l 14 922 l 332 922 l 332 794 l 157 126 l 338 126 l 338 0 m 104 983 l 104 1107 l 240 1107 l 240 983 "},"ż":{"ha":317,"x_min":0,"x_max":0,"o":"m 14 0 l 14 125 l 163 563 l 17 563 l 17 683 l 299 683 l 299 563 l 153 124 l 303 124 l 303 0 m 88 754 l 88 878 l 224 878 l 224 754 "},"Ž":{"ha":350,"x_min":0,"x_max":0,"o":"m 13 0 l 13 129 l 190 796 l 14 796 l 14 922 l 332 922 l 332 794 l 157 126 l 338 126 l 338 0 m 115 965 l 28 1099 l 86 1144 l 175 1043 l 264 1144 l 322 1099 l 235 965 "},"ž":{"ha":317,"x_min":0,"x_max":0,"o":"m 14 0 l 14 125 l 163 563 l 17 563 l 17 683 l 299 683 l 299 563 l 153 124 l 303 124 l 303 0 m 99 736 l 11 869 l 69 915 l 158 814 l 247 915 l 306 869 l 218 736 "},"Ǝ":{"ha":300,"x_min":0,"x_max":0,"o":"m 279 922 l 279 0 l 18 0 l 18 126 l 140 126 l 140 375 l 33 375 l 33 501 l 140 501 l 140 794 l 10 794 l 10 922 "},"Ə":{"ha":376,"x_min":0,"x_max":0,"o":"m 17 733 b 189 928 17 847 72 928 b 358 733 303 928 358 850 l 358 176 b 189 -7 358 64 303 -7 b 17 176 72 -7 17 64 l 17 556 l 221 556 l 221 753 b 189 797 221 782 210 797 b 156 753 167 797 156 782 l 156 656 l 17 656 m 154 165 b 189 122 154 136 167 122 b 221 165 210 122 221 136 l 221 429 l 154 429 "},"Ә":{"ha":376,"x_min":0,"x_max":0,"o":"m 17 656 l 156 656 l 156 753 b 189 797 156 782 167 797 b 221 753 210 797 221 782 l 221 556 l 17 556 l 17 176 b 189 -7 17 64 72 -7 b 358 176 303 -7 358 64 l 358 733 b 189 928 358 850 303 928 b 17 733 72 928 17 847 m 154 429 l 221 429 l 221 165 b 189 122 221 136 210 122 b 154 165 167 122 154 136 "},"ƒ":{"ha":324,"x_min":0,"x_max":0,"o":"m 240 547 l 172 -122 b 43 -240 163 -214 125 -240 l 0 -240 l 0 -117 l 17 -117 b 42 -99 33 -117 40 -110 l 106 547 l 54 547 l 54 631 l 114 631 l 133 815 b 263 933 143 906 181 933 l 313 933 l 313 808 l 289 808 b 265 792 272 808 267 803 l 249 631 l 313 631 l 313 547 "},"Ɣ":{"ha":431,"x_min":0,"x_max":0,"o":"m 215 -324 b 75 -179 106 -324 75 -257 b 150 278 75 -140 83 -87 l 17 922 l 160 922 l 211 606 l 217 606 l 269 922 l 413 922 l 278 278 b 354 -174 346 -72 354 -126 b 215 -324 354 -257 325 -324 m 215 -228 b 244 -183 236 -228 244 -214 b 218 -47 244 -157 239 -122 l 208 -47 b 185 -185 188 -121 185 -156 b 215 -228 185 -215 194 -228 "},"Ɲ":{"ha":408,"x_min":0,"x_max":0,"o":"m 222 0 l 142 640 l 136 640 b 142 311 140 572 142 492 l 142 -161 b 8 -324 142 -271 93 -324 b -25 -319 -12 -324 -19 -322 l -25 -200 b -7 -203 -19 -203 -12 -203 b 21 -161 11 -203 21 -189 l 21 922 l 208 922 l 265 329 l 271 329 b 265 717 268 417 265 501 l 265 922 l 388 922 l 388 0 "},"Ơ":{"ha":439,"x_min":0,"x_max":0,"o":"m 358 174 b 189 -7 358 51 297 -7 b 17 175 76 -7 17 58 l 17 743 b 186 928 17 861 79 928 b 313 918 228 928 278 918 b 363 967 350 918 363 929 b 358 1018 363 978 361 1006 l 429 1018 b 439 956 438 1006 439 979 b 372 839 439 872 421 839 b 338 843 363 839 350 840 b 358 740 351 815 358 781 m 219 756 b 188 797 219 783 208 797 b 157 756 167 797 157 783 l 157 164 b 188 122 157 136 167 122 b 219 164 208 122 219 136 "},"ơ":{"ha":422,"x_min":0,"x_max":0,"o":"m 349 156 b 186 -7 349 43 297 -7 b 24 156 75 -7 24 43 l 24 526 b 181 689 24 635 76 689 b 299 679 226 689 265 679 b 346 728 336 679 346 692 b 342 779 346 739 344 767 l 413 779 b 422 715 421 767 422 742 b 356 600 422 632 404 600 b 338 601 349 600 344 600 b 349 526 344 579 349 554 m 217 526 b 186 568 217 554 207 568 b 154 526 165 568 154 554 l 154 156 b 186 114 154 128 165 114 b 217 156 207 114 217 128 "},"Ư":{"ha":478,"x_min":0,"x_max":0,"o":"m 221 922 l 361 922 b 400 969 390 922 400 935 b 396 1018 400 981 400 1004 l 468 1018 b 478 954 475 1006 478 981 b 411 839 478 871 458 839 b 361 847 396 839 379 843 l 361 175 b 192 -7 361 58 304 -7 b 21 174 83 -7 21 51 l 21 922 l 158 922 l 158 164 b 190 122 158 136 169 122 b 221 164 211 122 221 136 "},"ư":{"ha":467,"x_min":0,"x_max":0,"o":"m 160 683 l 160 144 b 186 110 160 121 169 110 b 218 142 203 110 213 121 l 218 683 l 354 683 b 389 731 379 683 389 694 b 385 779 389 743 388 765 l 457 779 b 467 714 464 767 467 742 b 399 600 467 633 449 600 b 354 608 386 600 369 603 l 354 0 l 226 0 l 225 58 l 221 58 b 131 -7 203 22 176 -7 b 24 179 40 -7 24 75 l 24 683 "},"Ǧ":{"ha":378,"x_min":0,"x_max":0,"o":"m 265 0 l 260 36 l 254 36 b 169 -7 242 15 222 -7 b 21 175 76 -7 21 60 l 21 743 b 188 928 21 860 79 928 b 356 740 297 928 356 858 l 356 638 l 224 638 l 224 756 b 192 797 224 783 213 797 b 161 756 171 797 161 783 l 161 164 b 192 122 161 136 171 122 b 224 164 213 122 224 136 l 224 350 l 183 350 l 183 475 l 356 475 l 356 0 m 133 965 l 46 1099 l 104 1144 l 193 1043 l 282 1144 l 340 1099 l 253 965 "},"ǧ":{"ha":376,"x_min":0,"x_max":0,"o":"m 353 -161 b 188 -324 353 -269 297 -324 b 26 -161 81 -324 26 -269 l 26 -42 l 156 -42 l 156 -161 b 188 -203 156 -189 167 -203 b 218 -161 208 -203 218 -189 l 218 50 l 213 50 b 128 0 196 17 168 0 b 24 151 46 0 24 53 l 24 564 b 131 689 24 642 65 689 b 224 624 174 689 201 667 l 229 624 l 231 683 l 353 683 l 353 -161 m 160 185 b 190 122 160 142 164 122 b 222 176 214 122 222 143 l 222 515 b 192 572 222 550 215 572 b 160 531 171 572 160 558 m 129 736 l 42 869 l 100 915 l 189 814 l 278 915 l 336 869 l 249 736 "},"Ǵ":{"ha":378,"x_min":0,"x_max":0,"o":"m 265 0 l 260 36 l 254 36 b 169 -7 242 15 222 -7 b 21 175 76 -7 21 60 l 21 743 b 188 928 21 860 79 928 b 356 740 297 928 356 858 l 356 638 l 224 638 l 224 756 b 192 797 224 783 213 797 b 161 756 171 797 161 783 l 161 164 b 192 122 161 136 171 122 b 224 164 213 122 224 136 l 224 350 l 183 350 l 183 475 l 356 475 l 356 0 m 156 946 l 104 999 l 254 1167 l 322 1086 "},"ǵ":{"ha":376,"x_min":0,"x_max":0,"o":"m 353 -161 b 188 -324 353 -269 297 -324 b 26 -161 81 -324 26 -269 l 26 -42 l 156 -42 l 156 -161 b 188 -203 156 -189 167 -203 b 218 -161 208 -203 218 -189 l 218 50 l 213 50 b 128 0 196 17 168 0 b 24 151 46 0 24 53 l 24 564 b 131 689 24 642 65 689 b 224 624 174 689 201 667 l 229 624 l 231 683 l 353 683 l 353 -161 m 160 185 b 190 122 160 142 164 122 b 222 176 214 122 222 143 l 222 515 b 192 572 222 550 215 572 b 160 531 171 572 160 558 m 156 717 l 104 769 l 254 938 l 322 857 "},"Ǹ":{"ha":408,"x_min":0,"x_max":0,"o":"m 222 0 l 142 640 l 136 640 b 142 296 140 571 142 489 l 142 0 l 21 0 l 21 922 l 208 922 l 265 329 l 271 329 b 265 717 268 417 265 501 l 265 922 l 388 922 l 388 0 m 76 1086 l 146 1167 l 294 999 l 243 946 "},"ǹ":{"ha":379,"x_min":0,"x_max":0,"o":"m 219 0 l 219 538 b 192 572 219 560 210 572 b 158 542 175 572 164 563 l 158 0 l 24 0 l 24 683 l 150 683 l 153 624 l 158 624 b 251 689 181 671 213 689 b 356 565 313 689 356 643 l 356 0 m 60 857 l 129 938 l 278 769 l 226 717 "},"ȷ":{"ha":183,"x_min":0,"x_max":0,"o":"m -168 -37 l -39 -37 l -39 -161 b -8 -203 -39 -189 -29 -203 b 24 -161 13 -203 24 -189 l 24 683 l 158 683 l 158 -161 b -7 -324 158 -271 104 -324 b -168 -161 -117 -324 -168 -271 "},"Ɂ":{"ha":356,"x_min":0,"x_max":0,"o":"m 101 0 l 101 308 b 121 435 101 371 110 406 b 194 572 142 490 183 540 b 206 661 201 593 206 624 l 206 756 b 175 797 206 783 197 797 b 143 747 150 797 143 781 l 143 654 l 11 654 l 11 740 b 176 928 11 865 38 928 b 339 753 308 928 339 872 l 339 672 b 322 550 339 603 333 579 b 256 424 301 500 272 474 b 243 313 249 401 243 378 l 243 0 "},"ɂ":{"ha":372,"x_min":0,"x_max":0,"o":"m 114 0 l 114 150 b 129 225 114 179 121 204 b 203 338 149 269 185 303 b 217 390 211 353 217 371 l 217 528 b 186 568 217 554 206 568 b 154 526 165 568 154 554 l 154 421 l 25 421 l 25 506 b 185 689 25 638 72 689 b 349 525 296 689 349 638 l 349 389 b 336 322 349 363 343 340 b 260 203 315 274 278 246 b 250 149 254 188 250 169 l 250 0 "},"Ɍ":{"ha":417,"x_min":0,"x_max":0,"o":"m 60 0 l 60 393 l 0 393 l 0 508 l 60 508 l 60 922 l 261 922 b 397 776 361 922 397 868 l 397 569 b 321 458 397 508 368 467 l 321 453 b 399 342 368 446 399 418 l 399 0 l 261 0 l 261 354 b 228 393 261 379 250 393 l 199 393 l 199 0 m 261 760 b 226 796 261 785 249 796 l 199 796 l 199 508 l 226 508 b 261 554 249 508 261 525 "},"ɍ":{"ha":306,"x_min":0,"x_max":0,"o":"m 44 0 l 44 271 l -1 271 l -1 353 l 44 353 l 44 683 l 172 683 l 174 624 l 179 624 b 264 689 196 663 219 689 b 294 683 276 689 286 688 l 294 563 b 258 568 285 567 274 568 b 181 483 200 568 181 539 l 181 353 l 253 353 l 253 271 l 181 271 l 181 0 "},"ɣ":{"ha":368,"x_min":0,"x_max":0,"o":"m 242 174 b 304 -182 297 -96 304 -142 b 183 -324 304 -278 265 -324 b 63 -183 103 -324 63 -278 b 125 174 63 -140 71 -96 l 3 683 l 140 683 l 179 453 l 186 453 l 228 683 l 365 683 m 208 -197 b 186 -78 208 -175 203 -135 l 181 -78 b 158 -196 164 -135 158 -174 b 183 -235 158 -224 167 -235 b 208 -197 201 -235 208 -224 "},"ɲ":{"ha":379,"x_min":0,"x_max":0,"o":"m 219 0 l 219 538 b 192 572 219 560 210 572 b 158 542 175 572 164 563 l 158 -161 b 8 -324 158 -271 103 -324 b -28 -319 -14 -324 -22 -322 l -28 -200 b -8 -203 -22 -203 -14 -203 b 24 -161 13 -203 24 -189 l 24 683 l 150 683 l 153 624 l 158 624 b 251 689 181 671 213 689 b 356 565 313 689 356 643 l 356 0 "},"ˆ":{"ha":338,"x_min":0,"x_max":0,"o":"m 257 717 l 168 818 l 79 717 l 21 763 l 108 896 l 228 896 l 315 763 "},"ˇ":{"ha":335,"x_min":0,"x_max":0,"o":"m 108 736 l 21 869 l 79 915 l 168 814 l 257 915 l 315 869 l 228 736 "},"ˉ":{"ha":0,"x_min":0,"x_max":0,"o":"m -321 767 l -321 850 l -67 850 l -67 767 "},"˘":{"ha":343,"x_min":0,"x_max":0,"o":"m 171 717 b 21 894 83 717 21 779 l 118 894 b 171 800 119 829 136 800 b 222 894 204 800 221 829 l 321 894 b 171 717 321 778 258 717 "},"˙":{"ha":179,"x_min":0,"x_max":0,"o":"m 21 754 l 21 878 l 157 878 l 157 754 "},"˚":{"ha":229,"x_min":0,"x_max":0,"o":"m 114 771 b 151 821 139 771 151 789 b 114 871 151 851 139 871 b 76 821 89 871 76 851 b 114 771 76 789 89 771 m 114 717 b 21 821 51 717 21 757 b 114 925 21 885 51 925 b 207 821 176 925 207 885 b 114 717 207 757 176 717 "},"˛":{"ha":208,"x_min":0,"x_max":0,"o":"m 185 -294 b 115 -308 167 -304 142 -308 b 13 -204 46 -308 13 -281 l 13 -162 b 144 0 13 -81 61 -29 l 188 0 b 104 -122 132 -36 104 -75 l 104 -160 b 143 -190 104 -183 115 -190 b 185 -185 158 -190 175 -187 "},"˜":{"ha":338,"x_min":0,"x_max":0,"o":"m 315 813 b 235 732 304 756 272 732 b 115 768 188 732 156 768 b 78 735 100 768 85 763 l 21 767 b 103 846 32 822 64 846 b 221 810 149 846 181 810 b 258 843 238 810 251 817 "},"˝":{"ha":333,"x_min":0,"x_max":0,"o":"m 21 746 l 100 938 l 183 890 l 82 717 m 150 746 l 228 938 l 313 890 l 210 717 "},"̀":{"ha":0,"x_min":0,"x_max":0,"o":"m -322 857 l -253 938 l -104 769 l -156 717 "},"́":{"ha":0,"x_min":0,"x_max":0,"o":"m -251 717 l -303 769 l -153 938 l -85 857 "},"̂":{"ha":0,"x_min":0,"x_max":0,"o":"m -104 717 l -193 818 l -282 717 l -340 763 l -253 896 l -133 896 l -46 763 "},"̃":{"ha":0,"x_min":0,"x_max":0,"o":"m -46 813 b -126 732 -57 756 -89 732 b -246 768 -174 732 -206 768 b -283 735 -261 768 -276 763 l -340 767 b -258 846 -329 822 -297 846 b -140 810 -212 846 -181 810 b -103 843 -124 810 -110 817 "},"̄":{"ha":0,"x_min":0,"x_max":0,"o":"m -321 767 l -321 850 l -67 850 l -67 767 "},"̆":{"ha":0,"x_min":0,"x_max":0,"o":"m -193 717 b -343 894 -281 717 -343 779 l -246 894 b -193 800 -244 829 -228 800 b -142 894 -160 800 -143 829 l -43 894 b -193 717 -43 778 -106 717 "},"̇":{"ha":0,"x_min":0,"x_max":0,"o":"m -260 754 l -260 878 l -124 878 l -124 754 "},"̈":{"ha":0,"x_min":0,"x_max":0,"o":"m -337 754 l -337 878 l -212 878 l -212 754 m -174 754 l -174 878 l -49 878 l -49 754 "},"̉":{"ha":0,"x_min":0,"x_max":0,"o":"m -237 729 b -182 825 -237 796 -182 792 b -203 839 -182 835 -187 839 b -253 818 -224 839 -237 832 l -275 889 b -190 918 -253 908 -217 918 b -108 838 -143 918 -108 888 b -175 729 -108 771 -175 771 "},"̊":{"ha":0,"x_min":0,"x_max":0,"o":"m -193 771 b -156 821 -168 771 -156 789 b -193 871 -156 851 -168 871 b -231 821 -218 871 -231 851 b -193 771 -231 789 -218 771 m -193 717 b -286 821 -256 717 -286 757 b -193 925 -286 885 -256 925 b -100 821 -131 925 -100 885 b -193 717 -100 757 -131 717 "},"̋":{"ha":0,"x_min":0,"x_max":0,"o":"m -339 746 l -260 938 l -176 890 l -278 717 m -210 746 l -132 938 l -47 890 l -150 717 "},"̌":{"ha":0,"x_min":0,"x_max":0,"o":"m -251 736 l -339 869 l -281 915 l -192 814 l -103 915 l -44 869 l -132 736 "},"̓":{"ha":0,"x_min":0,"x_max":0,"o":"m -133 956 b -192 900 -172 949 -192 935 l -192 864 l -132 864 l -132 733 l -253 733 l -253 864 b -133 1015 -253 965 -215 1011 "},"̛":{"ha":81,"x_min":0,"x_max":0,"o":"m -99 683 b -37 679 -83 682 -62 679 b 4 721 1 679 4 688 b 0 779 4 746 3 765 l 71 779 b 81 711 78 767 81 742 b 14 600 81 633 61 600 b -99 638 -22 600 -71 619 "},"̣":{"ha":0,"x_min":0,"x_max":0,"o":"m -258 -186 l -258 -64 l -124 -64 l -124 -186 "},"̦":{"ha":0,"x_min":0,"x_max":0,"o":"m -253 -249 b -194 -193 -214 -242 -194 -228 l -194 -157 l -254 -157 l -254 -26 l -133 -26 l -133 -157 b -253 -308 -133 -258 -171 -304 "},"̨":{"ha":0,"x_min":0,"x_max":0,"o":"m -108 -294 b -178 -308 -126 -304 -151 -308 b -281 -204 -247 -308 -281 -281 l -281 -162 b -149 0 -281 -81 -232 -29 l -106 0 b -189 -122 -161 -36 -189 -75 l -189 -160 b -150 -190 -189 -183 -178 -190 b -108 -185 -135 -190 -118 -187 "},"̭":{"ha":0,"x_min":0,"x_max":0,"o":"m -104 -264 l -193 -162 l -282 -264 l -340 -218 l -253 -85 l -133 -85 l -46 -218 "},"΄":{"ha":117,"x_min":0,"x_max":0,"o":"m 11 728 l 11 971 l 117 971 l 93 728 "},"΅":{"ha":0,"x_min":0,"x_max":0,"o":"m -231 728 l -231 971 l -125 971 l -149 728 m -383 754 l -383 878 l -247 878 l -247 754 m -125 754 l -125 878 l 11 878 l 11 754 "},"Ά":{"ha":432,"x_min":0,"x_max":0,"o":"m 286 0 l 271 210 l 200 210 l 186 0 l 49 0 l 139 922 l 336 922 l 426 0 m 208 331 l 263 331 l 239 688 l 233 688 m 11 728 l 11 971 l 117 971 l 93 728 "},"·":{"ha":181,"x_min":0,"x_max":0,"o":"m 21 436 l 21 572 l 158 572 l 158 436 "},"Έ":{"ha":401,"x_min":0,"x_max":0,"o":"m 121 0 l 121 922 l 382 922 l 382 796 l 260 796 l 260 547 l 367 547 l 367 419 l 260 419 l 260 126 l 390 126 l 390 0 m 11 728 l 11 971 l 117 971 l 93 728 "},"Ή":{"ha":488,"x_min":0,"x_max":0,"o":"m 324 0 l 324 429 l 261 429 l 261 0 l 119 0 l 119 922 l 261 922 l 261 556 l 324 556 l 324 922 l 465 922 l 465 0 m 11 728 l 11 971 l 117 971 l 93 728 "},"Ί":{"ha":283,"x_min":0,"x_max":0,"o":"m 119 0 l 119 922 l 261 922 l 261 0 m 11 728 l 11 971 l 117 971 l 93 728 "},"Ό":{"ha":471,"x_min":0,"x_max":0,"o":"m 451 174 b 282 -7 451 53 390 -7 b 110 175 171 -7 110 58 l 110 743 b 281 928 110 860 172 928 b 451 740 389 928 451 858 m 313 756 b 281 797 313 783 301 797 b 250 756 260 797 250 783 l 250 164 b 281 122 250 136 260 122 b 313 164 301 122 313 136 m 11 728 l 11 971 l 117 971 l 93 728 "},"Ύ":{"ha":499,"x_min":0,"x_max":0,"o":"m 238 0 l 238 379 l 117 922 l 256 922 l 307 621 l 313 621 l 357 922 l 494 922 l 379 378 l 379 0 m 11 728 l 11 971 l 117 971 l 93 728 "},"Ώ":{"ha":500,"x_min":0,"x_max":0,"o":"m 314 0 l 314 115 b 333 256 328 131 333 178 l 333 751 b 297 797 333 782 321 797 b 261 751 274 797 261 782 l 261 256 b 281 115 261 178 267 131 l 281 0 l 106 0 l 106 121 l 179 121 l 179 126 b 117 257 138 160 117 203 l 117 768 b 297 928 117 872 185 928 b 478 768 410 928 478 872 l 478 257 b 415 126 478 203 457 160 l 415 121 l 489 121 l 489 0 m 11 728 l 11 971 l 117 971 l 93 728 "},"ΐ":{"ha":358,"x_min":0,"x_max":0,"o":"m 257 0 b 107 143 157 0 107 47 l 107 683 l 242 683 l 242 143 b 258 119 242 128 246 119 l 275 119 l 275 0 m 133 728 l 133 971 l 239 971 l 215 728 m -18 754 l -18 878 l 118 878 l 118 754 m 239 754 l 239 878 l 375 878 l 375 754 "},"Γ":{"ha":308,"x_min":0,"x_max":0,"o":"m 21 0 l 21 922 l 296 922 l 296 793 l 163 793 l 163 0 "},"Г":{"ha":308,"x_min":0,"x_max":0,"o":"m 163 0 l 163 793 l 296 793 l 296 922 l 21 922 l 21 0 "},"Δ":{"ha":388,"x_min":0,"x_max":0,"o":"m 4 0 l 94 922 l 292 922 l 382 0 m 194 688 l 189 688 l 154 129 l 229 129 "},"Θ":{"ha":376,"x_min":0,"x_max":0,"o":"m 358 174 b 189 -7 358 51 297 -7 b 17 175 76 -7 17 58 l 17 743 b 188 928 17 860 79 928 b 358 740 296 928 358 858 m 157 419 l 157 547 l 219 547 l 219 419 m 229 756 b 188 797 229 783 215 797 b 146 756 160 797 146 783 l 146 164 b 188 122 146 136 160 122 b 229 164 217 122 229 136 "},"Λ":{"ha":388,"x_min":0,"x_max":0,"o":"m 292 922 l 382 0 l 243 0 l 194 663 l 189 663 l 142 0 l 6 0 l 96 922 "},"Ξ":{"ha":300,"x_min":0,"x_max":0,"o":"m 10 0 l 10 126 l 290 126 l 290 0 m 33 419 l 33 547 l 267 547 l 267 419 m 18 796 l 18 922 l 282 922 l 282 796 "},"Π":{"ha":389,"x_min":0,"x_max":0,"o":"m 225 0 l 225 796 l 163 796 l 163 0 l 21 0 l 21 922 l 367 922 l 367 0 "},"П":{"ha":389,"x_min":0,"x_max":0,"o":"m 367 0 l 367 922 l 21 922 l 21 0 l 163 0 l 163 796 l 225 796 l 225 0 "},"Σ":{"ha":300,"x_min":0,"x_max":0,"o":"m 13 0 l 13 126 l 103 465 l 11 800 l 11 922 l 282 922 l 282 796 l 146 796 l 233 467 l 144 126 l 289 126 l 289 0 "},"Φ":{"ha":538,"x_min":0,"x_max":0,"o":"m 200 0 l 200 186 l 150 186 b 14 331 50 186 14 239 l 14 640 b 150 785 14 732 50 785 l 200 785 l 200 922 l 338 922 l 338 785 l 388 785 b 524 640 488 785 524 732 l 524 331 b 388 186 524 239 488 186 l 338 186 l 338 0 m 400 617 b 365 663 400 647 388 663 l 338 663 l 338 307 l 365 307 b 400 353 388 307 400 324 m 200 663 l 172 663 b 138 617 150 663 138 647 l 138 353 b 172 307 138 324 150 307 l 200 307 "},"Ф":{"ha":538,"x_min":0,"x_max":0,"o":"m 338 0 l 338 186 l 388 186 b 524 331 488 186 524 239 l 524 640 b 388 785 524 732 488 785 l 338 785 l 338 922 l 200 922 l 200 785 l 150 785 b 14 640 50 785 14 732 l 14 331 b 150 186 14 239 50 186 l 200 186 l 200 0 m 400 353 b 365 307 400 324 388 307 l 338 307 l 338 663 l 365 663 b 400 617 388 663 400 647 m 200 307 l 172 307 b 138 353 150 307 138 324 l 138 617 b 172 663 138 647 150 663 l 200 663 "},"Ψ":{"ha":546,"x_min":0,"x_max":0,"o":"m 204 0 l 204 186 l 154 186 b 18 331 54 186 18 239 l 18 922 l 142 922 l 142 353 b 176 307 142 324 154 307 l 204 307 l 204 922 l 342 922 l 342 307 l 369 307 b 404 353 392 307 404 324 l 404 922 l 528 922 l 528 331 b 392 186 528 239 492 186 l 342 186 l 342 0 "},"Ω":{"ha":404,"x_min":0,"x_max":0,"o":"m 218 0 l 218 115 b 238 256 232 131 238 178 l 238 751 b 201 797 238 782 225 797 b 165 751 178 797 165 782 l 165 256 b 185 115 165 178 171 131 l 185 0 l 10 0 l 10 121 l 83 121 l 83 126 b 21 257 42 160 21 203 l 21 768 b 201 928 21 872 89 928 b 382 768 314 928 382 872 l 382 257 b 319 126 382 203 361 160 l 319 121 l 393 121 l 393 0 "},"ά":{"ha":396,"x_min":0,"x_max":0,"o":"m 368 0 b 238 58 292 0 254 17 l 232 58 b 129 -7 213 19 178 -7 b 24 172 39 -7 24 68 l 24 567 b 132 689 24 642 65 689 b 224 624 174 689 201 669 l 229 624 l 231 683 l 353 683 l 353 143 b 369 119 353 128 358 119 l 386 119 l 386 0 m 160 151 b 192 110 160 124 171 110 b 222 154 213 110 219 124 l 222 531 b 192 572 219 564 208 572 b 160 531 171 572 160 558 m 144 728 l 144 971 l 250 971 l 226 728 "},"έ":{"ha":367,"x_min":0,"x_max":0,"o":"m 139 728 l 139 971 l 244 971 l 221 728 m 342 128 b 185 -7 342 38 288 -7 b 21 133 69 -7 21 49 l 21 264 b 100 361 21 335 56 354 l 100 367 b 32 449 54 374 32 403 l 32 558 b 183 689 32 643 85 689 b 342 550 286 689 342 638 l 342 451 l 215 451 l 215 539 b 185 574 215 563 204 574 b 154 532 164 574 154 561 l 154 436 b 188 403 154 414 167 403 l 235 403 l 235 317 l 190 317 b 153 281 165 317 153 306 l 153 150 b 183 108 153 122 163 108 b 214 150 204 108 214 122 l 214 240 l 342 240 "},"ή":{"ha":379,"x_min":0,"x_max":0,"o":"m 219 -324 l 219 538 b 192 572 219 560 210 572 b 158 542 175 572 164 563 l 158 0 l 24 0 l 24 683 l 150 683 l 153 624 l 158 624 b 251 689 181 671 213 689 b 356 565 313 689 356 643 l 356 -324 m 144 728 l 144 971 l 250 971 l 226 728 "},"ί":{"ha":201,"x_min":0,"x_max":0,"o":"m 174 0 b 24 143 74 0 24 47 l 24 683 l 158 683 l 158 143 b 175 119 158 128 163 119 l 192 119 l 192 0 m 53 728 l 53 971 l 158 971 l 135 728 "},"ΰ":{"ha":368,"x_min":0,"x_max":0,"o":"m 139 728 l 139 971 l 244 971 l 221 728 m 217 683 l 344 683 l 344 156 b 183 -7 344 44 294 -7 b 24 156 74 -7 24 44 l 24 683 l 154 683 l 154 156 b 186 114 154 128 167 114 b 217 156 206 114 217 128 m -12 754 l -12 878 l 124 878 l 124 754 m 244 754 l 244 878 l 381 878 l 381 754 "},"α":{"ha":396,"x_min":0,"x_max":0,"o":"m 368 0 b 238 58 292 0 254 17 l 232 58 b 129 -7 213 19 178 -7 b 24 172 39 -7 24 68 l 24 567 b 132 689 24 642 65 689 b 224 624 174 689 201 669 l 229 624 l 231 683 l 353 683 l 353 143 b 369 119 353 128 358 119 l 386 119 l 386 0 m 160 151 b 192 110 160 124 171 110 b 222 154 213 110 219 124 l 222 531 b 192 572 219 564 208 572 b 160 531 171 572 160 558 "},"β":{"ha":378,"x_min":0,"x_max":0,"o":"m 24 -324 l 24 807 b 189 939 24 901 67 939 b 347 808 300 939 347 907 l 347 608 b 278 518 347 563 324 532 l 278 513 b 354 392 329 497 354 457 l 354 156 b 210 -7 354 29 292 -7 b 157 3 188 -7 169 -4 l 157 -324 m 219 414 b 188 457 219 443 208 458 l 172 457 l 172 561 l 188 561 b 219 596 208 561 219 572 l 219 767 b 188 818 219 799 217 818 b 157 767 158 818 157 800 l 157 121 b 182 110 165 114 174 110 b 219 150 207 110 219 124 "},"γ":{"ha":354,"x_min":0,"x_max":0,"o":"m 108 -324 l 108 -74 l 3 683 l 139 683 l 176 207 l 182 207 l 221 683 l 350 683 l 242 -74 l 242 -324 "},"ү":{"ha":354,"x_min":0,"x_max":0,"o":"m 242 -324 l 242 -74 l 350 683 l 221 683 l 182 207 l 176 207 l 139 683 l 3 683 l 108 -74 l 108 -324 "},"δ":{"ha":372,"x_min":0,"x_max":0,"o":"m 24 461 b 78 576 24 514 47 553 b 46 665 58 596 46 618 l 46 788 b 219 939 46 900 108 939 b 308 933 240 939 279 938 l 308 813 b 225 825 282 821 249 825 b 175 788 188 825 175 815 l 175 671 b 208 624 175 644 188 636 b 306 557 251 596 289 572 b 349 439 333 532 349 496 l 349 156 b 186 -7 349 43 297 -7 b 24 156 75 -7 24 43 l 24 461 m 217 446 b 165 511 217 467 207 481 b 154 460 158 499 154 482 l 154 156 b 186 114 154 128 165 114 b 217 156 207 114 217 128 "},"ε":{"ha":367,"x_min":0,"x_max":0,"o":"m 342 128 b 185 -7 342 38 288 -7 b 21 133 69 -7 21 49 l 21 264 b 100 361 21 335 56 354 l 100 367 b 32 449 54 374 32 403 l 32 558 b 183 689 32 643 85 689 b 342 550 286 689 342 638 l 342 451 l 215 451 l 215 539 b 185 574 215 563 204 574 b 154 532 164 574 154 561 l 154 436 b 188 403 154 414 167 403 l 235 403 l 235 317 l 190 317 b 153 281 165 317 153 306 l 153 150 b 183 108 153 122 163 108 b 214 150 204 108 214 122 l 214 240 l 342 240 "},"ζ":{"ha":336,"x_min":0,"x_max":0,"o":"m 176 -254 l 176 -21 b 158 0 176 -7 171 0 l 122 0 b 24 104 57 0 24 35 l 24 356 b 58 513 24 422 33 457 l 192 813 l 36 813 l 36 933 l 324 933 l 324 813 l 174 464 b 158 374 163 436 158 413 l 158 139 b 176 119 158 125 164 119 l 229 119 b 313 24 285 119 313 88 l 313 -254 "},"η":{"ha":379,"x_min":0,"x_max":0,"o":"m 219 -324 l 219 538 b 192 572 219 560 210 572 b 158 542 175 572 164 563 l 158 0 l 24 0 l 24 683 l 150 683 l 153 624 l 158 624 b 251 689 181 671 213 689 b 356 565 313 689 356 643 l 356 -324 "},"θ":{"ha":372,"x_min":0,"x_max":0,"o":"m 24 771 b 186 933 24 882 75 933 b 349 771 296 933 349 882 l 349 156 b 186 -7 349 44 296 -7 b 24 156 75 -7 24 44 m 217 432 l 154 432 l 154 156 b 186 114 154 128 167 114 b 217 156 206 114 217 128 m 217 771 b 186 813 217 799 206 813 b 154 771 167 813 154 799 l 154 532 l 217 532 "},"ι":{"ha":201,"x_min":0,"x_max":0,"o":"m 174 0 b 24 143 74 0 24 47 l 24 683 l 158 683 l 158 143 b 175 119 158 128 163 119 l 192 119 l 192 0 "},"κ":{"ha":375,"x_min":0,"x_max":0,"o":"m 229 0 l 186 244 l 181 244 l 158 175 l 158 0 l 24 0 l 24 683 l 158 683 l 158 443 l 164 443 b 228 683 167 463 172 488 l 372 683 l 285 404 l 371 0 "},"к":{"ha":375,"x_min":0,"x_max":0,"o":"m 371 0 l 285 404 l 372 683 l 228 683 b 164 443 172 488 167 463 l 158 443 l 158 683 l 24 683 l 24 0 l 158 0 l 158 175 l 181 244 l 186 244 l 229 0 "},"λ":{"ha":379,"x_min":0,"x_max":0,"o":"m 368 0 l 319 0 b 225 79 251 0 232 29 l 189 357 l 183 357 l 136 0 l 3 0 l 131 706 l 121 792 b 99 814 119 808 113 814 l 74 814 l 74 933 l 142 933 b 250 833 208 933 240 913 l 338 139 b 356 118 339 125 344 118 l 368 118 "},"μ":{"ha":378,"x_min":0,"x_max":0,"o":"m 24 -324 l 24 683 l 160 683 l 160 144 b 188 110 160 122 168 110 b 218 142 204 110 213 121 l 218 683 l 354 683 l 354 0 l 226 0 l 225 58 l 219 58 b 143 -7 196 8 168 -7 l 158 -324 "},"ξ":{"ha":358,"x_min":0,"x_max":0,"o":"m 199 -254 l 199 -21 b 181 0 199 -7 192 0 l 122 0 b 24 104 57 0 24 35 l 24 435 b 103 532 24 504 58 525 l 103 538 b 33 619 56 546 33 574 l 33 808 b 185 939 33 893 86 939 b 344 800 289 939 344 888 l 344 707 l 217 707 l 217 789 b 188 824 217 813 207 824 b 157 782 167 824 157 810 l 157 607 b 190 574 157 585 168 574 l 235 574 l 235 488 l 196 488 b 158 451 171 488 158 475 l 158 139 b 176 119 158 125 164 119 l 251 119 b 333 24 307 119 333 88 l 333 -254 "},"π":{"ha":467,"x_min":0,"x_max":0,"o":"m 414 0 b 264 143 314 0 264 47 l 264 563 l 201 563 l 201 0 l 67 0 l 67 563 l 10 563 l 10 683 l 456 683 l 456 563 l 399 563 l 399 143 b 415 119 399 128 404 119 l 432 119 l 432 0 "},"ρ":{"ha":372,"x_min":0,"x_max":0,"o":"m 217 526 b 185 568 217 554 204 568 b 154 526 165 568 154 554 l 154 142 b 185 110 157 121 167 110 b 217 151 206 110 217 124 m 24 -324 l 24 526 b 186 689 24 638 75 689 b 349 526 296 689 349 638 l 349 117 b 246 -7 349 42 310 -7 b 163 43 210 -7 181 8 l 157 43 l 157 -324 "},"ς":{"ha":368,"x_min":0,"x_max":0,"o":"m 208 -254 l 208 -21 b 192 0 208 -7 203 0 l 122 0 b 24 104 57 0 24 35 l 24 526 b 186 689 24 636 75 689 b 344 526 296 689 344 636 l 344 439 l 217 439 l 217 526 b 186 568 217 554 207 568 b 154 526 165 568 154 554 l 154 139 b 174 119 154 125 161 119 l 263 119 b 344 24 317 119 344 88 l 344 -254 "},"σ":{"ha":394,"x_min":0,"x_max":0,"o":"m 383 563 l 339 563 b 343 515 342 549 343 532 l 343 156 b 186 -7 343 44 296 -7 b 24 156 75 -7 24 44 l 24 521 b 186 683 24 632 75 683 l 383 683 m 217 515 b 211 564 217 535 215 550 l 194 564 b 154 521 165 564 154 551 l 154 156 b 186 114 154 128 164 114 b 217 156 206 114 217 128 l 217 515 "},"τ":{"ha":294,"x_min":0,"x_max":0,"o":"m 229 0 b 79 143 129 0 79 47 l 79 563 l 10 563 l 10 683 l 283 683 l 283 563 l 214 563 l 214 143 b 231 119 214 128 219 119 l 247 119 l 247 0 "},"υ":{"ha":368,"x_min":0,"x_max":0,"o":"m 217 683 l 344 683 l 344 156 b 183 -7 344 44 294 -7 b 24 156 74 -7 24 44 l 24 683 l 154 683 l 154 156 b 186 114 154 128 167 114 b 217 156 206 114 217 128 "},"φ":{"ha":533,"x_min":0,"x_max":0,"o":"m 203 -324 l 203 0 l 131 0 b 24 122 67 0 24 47 l 24 560 b 131 683 24 635 67 683 l 203 683 l 203 933 l 331 933 l 331 683 l 403 683 b 510 560 467 683 510 635 l 510 122 b 403 0 510 47 467 0 l 331 0 l 331 -324 m 203 572 l 179 572 b 149 531 158 572 149 558 l 149 151 b 179 110 149 124 158 110 l 203 110 m 331 110 l 354 110 b 385 151 375 110 385 124 l 385 531 b 354 572 385 558 375 572 l 331 572 "},"ф":{"ha":533,"x_min":0,"x_max":0,"o":"m 331 -324 l 331 0 l 403 0 b 510 122 467 0 510 47 l 510 560 b 403 683 510 635 467 683 l 331 683 l 331 933 l 203 933 l 203 683 l 131 683 b 24 560 67 683 24 635 l 24 122 b 131 0 24 47 67 0 l 203 0 l 203 -324 m 203 110 l 179 110 b 149 151 158 110 149 124 l 149 531 b 179 572 149 558 158 572 l 203 572 m 331 572 l 354 572 b 385 531 375 572 385 558 l 385 151 b 354 110 385 124 375 110 l 331 110 "},"χ":{"ha":371,"x_min":0,"x_max":0,"o":"m 226 -324 l 186 4 l 181 4 l 142 -324 l 3 -324 l 100 186 l 7 683 l 146 683 l 186 379 l 192 379 l 229 683 l 364 683 l 271 208 l 368 -324 "},"ψ":{"ha":533,"x_min":0,"x_max":0,"o":"m 203 -324 l 203 0 l 131 0 b 24 122 67 0 24 47 l 24 683 l 149 683 l 149 151 b 179 110 149 124 158 110 l 203 110 l 203 933 l 331 933 l 331 110 l 354 110 b 385 151 375 110 385 124 l 385 683 l 510 683 l 510 122 b 403 0 510 47 467 0 l 331 0 l 331 -324 "},"ω":{"ha":550,"x_min":0,"x_max":0,"o":"m 394 558 b 369 683 394 608 386 650 l 499 683 b 525 558 517 658 525 617 l 525 160 b 400 -7 525 43 483 -7 b 278 49 351 -7 311 8 l 272 49 b 150 -7 239 8 197 -7 b 24 160 65 -7 24 43 l 24 558 b 50 683 24 617 33 658 l 179 683 b 154 558 163 650 154 608 l 154 157 b 186 114 154 129 165 114 b 217 157 207 114 217 129 l 217 485 l 332 485 l 332 157 b 363 114 332 129 342 114 b 394 157 383 114 394 129 "},"ϊ":{"ha":271,"x_min":0,"x_max":0,"o":"m 215 0 b 65 143 115 0 65 47 l 65 683 l 200 683 l 200 143 b 217 119 200 128 204 119 l 233 119 l 233 0 m -10 754 l -10 878 l 115 878 l 115 754 m 154 754 l 154 878 l 279 878 l 279 754 "},"ϋ":{"ha":368,"x_min":0,"x_max":0,"o":"m 217 683 l 344 683 l 344 156 b 183 -7 344 44 294 -7 b 24 156 74 -7 24 44 l 24 683 l 154 683 l 154 156 b 186 114 154 128 167 114 b 217 156 206 114 217 128 m 42 754 l 42 878 l 167 878 l 167 754 m 206 754 l 206 878 l 331 878 l 331 754 "},"ό":{"ha":372,"x_min":0,"x_max":0,"o":"m 349 156 b 186 -7 349 44 296 -7 b 24 156 75 -7 24 44 l 24 526 b 186 689 24 638 75 689 b 349 526 296 689 349 638 m 217 526 b 186 568 217 554 206 568 b 154 526 167 568 154 554 l 154 156 b 186 114 154 128 167 114 b 217 156 206 114 217 128 m 140 728 l 140 971 l 246 971 l 222 728 "},"ύ":{"ha":368,"x_min":0,"x_max":0,"o":"m 136 728 l 136 971 l 242 971 l 218 728 m 217 683 l 344 683 l 344 156 b 183 -7 344 44 294 -7 b 24 156 74 -7 24 44 l 24 683 l 154 683 l 154 156 b 186 114 154 128 167 114 b 217 156 206 114 217 128 "},"ώ":{"ha":550,"x_min":0,"x_max":0,"o":"m 394 558 b 369 683 394 608 386 650 l 499 683 b 525 558 517 658 525 617 l 525 160 b 400 -7 525 43 483 -7 b 278 49 351 -7 311 8 l 272 49 b 150 -7 239 8 197 -7 b 24 160 65 -7 24 43 l 24 558 b 50 683 24 617 33 658 l 179 683 b 154 558 163 650 154 608 l 154 157 b 186 114 154 129 165 114 b 217 157 207 114 217 129 l 217 485 l 332 485 l 332 157 b 363 114 332 129 342 114 b 394 157 383 114 394 129 m 221 728 l 221 971 l 326 971 l 303 728 "},"Ђ":{"ha":456,"x_min":0,"x_max":0,"o":"m 86 796 l 13 796 l 13 922 l 308 922 l 308 796 l 228 796 l 228 571 l 233 571 b 333 617 265 603 290 617 b 433 503 403 617 433 579 l 433 -161 b 260 -324 433 -271 371 -324 b 86 -161 150 -324 86 -271 l 86 -56 l 228 -56 l 228 -161 b 258 -203 228 -189 238 -203 b 290 -161 279 -203 290 -189 l 290 461 b 260 490 290 481 279 490 b 228 449 240 490 232 479 l 228 0 l 86 0 "},"Ѓ":{"ha":308,"x_min":0,"x_max":0,"o":"m 121 946 l 69 999 l 219 1167 l 288 1086 m 21 0 l 21 922 l 296 922 l 296 793 l 163 793 l 163 0 "},"Є":{"ha":378,"x_min":0,"x_max":0,"o":"m 356 174 b 190 -7 356 53 299 -7 b 21 175 79 -7 21 58 l 21 743 b 188 928 21 860 81 928 b 356 740 297 928 356 858 l 356 661 l 224 661 l 224 756 b 192 797 224 783 213 797 b 161 756 171 797 161 783 l 161 543 l 244 543 l 244 428 l 161 428 l 161 164 b 192 122 161 136 171 122 b 224 164 213 122 224 136 l 224 268 l 356 268 "},"Љ":{"ha":621,"x_min":0,"x_max":0,"o":"m 411 556 l 469 556 b 606 424 571 556 606 508 l 606 144 b 469 0 606 60 572 0 l 269 0 l 269 796 l 217 796 l 208 532 b 158 79 200 288 185 144 b 31 0 133 15 93 0 l 13 0 l 13 129 l 21 129 b 65 167 43 129 57 135 b 93 533 79 215 86 328 l 104 922 l 411 922 m 439 125 b 474 178 465 125 474 140 l 474 390 b 439 433 474 424 467 433 l 411 433 l 411 125 "},"Њ":{"ha":576,"x_min":0,"x_max":0,"o":"m 367 556 l 425 556 b 563 424 528 556 563 508 l 563 144 b 425 0 563 60 529 0 l 225 0 l 225 433 l 163 433 l 163 0 l 21 0 l 21 922 l 163 922 l 163 556 l 225 556 l 225 922 l 367 922 m 396 125 b 429 178 422 125 429 140 l 429 390 b 396 433 429 424 422 433 l 367 433 l 367 125 "},"Ћ":{"ha":454,"x_min":0,"x_max":0,"o":"m 86 796 l 13 796 l 13 922 l 308 922 l 308 796 l 228 796 l 228 571 l 233 571 b 333 617 265 603 290 617 b 433 503 403 617 433 579 l 433 0 l 290 0 l 290 461 b 261 490 290 481 279 490 b 228 461 246 490 236 483 l 228 0 l 86 0 "},"Ќ":{"ha":383,"x_min":0,"x_max":0,"o":"m 235 0 l 192 349 l 188 349 l 165 258 l 165 0 l 21 0 l 21 922 l 165 922 l 165 604 l 171 604 b 238 922 176 646 188 692 l 379 922 l 292 574 l 378 0 m 146 946 l 94 999 l 244 1167 l 313 1086 "},"Ѝ":{"ha":408,"x_min":0,"x_max":0,"o":"m 76 1086 l 146 1167 l 294 999 l 243 946 m 251 0 l 251 542 l 246 542 l 161 0 l 21 0 l 21 922 l 158 922 l 158 444 l 164 444 l 238 922 l 388 922 l 388 0 "},"Ў":{"ha":383,"x_min":0,"x_max":0,"o":"m 190 946 b 40 1124 103 946 40 1008 l 138 1124 b 190 1029 139 1058 156 1029 b 242 1124 224 1029 240 1058 l 340 1124 b 190 946 340 1007 278 946 m 221 393 l 215 393 b 128 350 199 360 156 350 b 21 529 61 350 21 408 l 21 922 l 158 922 l 158 521 b 188 479 158 492 168 479 b 221 508 204 479 217 488 l 221 922 l 361 922 l 361 175 b 192 -7 361 58 304 -7 b 21 174 83 -7 21 51 l 21 307 l 158 307 l 158 164 b 190 122 158 136 169 122 b 221 164 211 122 221 136 "},"Џ":{"ha":389,"x_min":0,"x_max":0,"o":"m 142 -208 l 142 0 l 21 0 l 21 922 l 163 922 l 163 129 l 225 129 l 225 922 l 367 922 l 367 0 l 246 0 l 246 -208 "},"Б":{"ha":372,"x_min":0,"x_max":0,"o":"m 163 793 l 163 556 l 221 556 b 358 344 351 556 358 472 l 358 144 b 221 0 358 60 325 0 l 21 0 l 21 922 l 296 922 l 296 793 m 192 125 b 225 178 218 125 225 140 l 225 390 b 192 433 225 424 218 433 l 163 433 l 163 125 "},"Д":{"ha":467,"x_min":0,"x_max":0,"o":"m 353 -208 l 353 0 l 114 0 l 114 -208 l 10 -208 l 10 129 l 24 129 b 47 135 32 129 40 129 b 94 532 75 154 85 232 l 107 922 l 413 922 l 413 129 l 457 129 l 457 -208 m 271 796 l 219 796 l 210 531 b 176 129 200 263 190 178 l 271 129 "},"Ж":{"ha":613,"x_min":0,"x_max":0,"o":"m 3 0 l 126 469 l 8 922 l 153 922 l 232 589 l 238 589 l 238 922 l 375 922 l 375 589 l 381 589 l 460 922 l 604 922 l 485 469 l 610 0 l 463 0 l 381 375 l 375 375 l 375 0 l 238 0 l 238 375 l 232 375 l 150 0 "},"И":{"ha":408,"x_min":0,"x_max":0,"o":"m 251 0 l 251 542 l 246 542 l 161 0 l 21 0 l 21 922 l 158 922 l 158 444 l 164 444 l 238 922 l 388 922 l 388 0 "},"Й":{"ha":408,"x_min":0,"x_max":0,"o":"m 207 946 b 57 1124 119 946 57 1008 l 154 1124 b 207 1029 156 1058 172 1029 b 258 1124 240 1029 257 1058 l 357 1124 b 207 946 357 1007 294 946 m 251 0 l 251 542 l 246 542 l 161 0 l 21 0 l 21 922 l 158 922 l 158 444 l 164 444 l 238 922 l 388 922 l 388 0 "},"Л":{"ha":433,"x_min":0,"x_max":0,"o":"m 269 0 l 269 796 l 217 796 l 208 532 b 158 79 200 288 185 144 b 31 0 133 15 93 0 l 13 0 l 13 129 l 21 129 b 65 167 43 129 57 135 b 93 533 79 215 86 328 l 104 922 l 411 922 l 411 0 "},"У":{"ha":383,"x_min":0,"x_max":0,"o":"m 221 393 l 215 393 b 128 350 199 360 156 350 b 21 529 61 350 21 408 l 21 922 l 158 922 l 158 521 b 188 479 158 492 168 479 b 221 508 204 479 217 488 l 221 922 l 361 922 l 361 175 b 192 -7 361 58 304 -7 b 21 174 83 -7 21 51 l 21 307 l 158 307 l 158 164 b 190 122 158 136 169 122 b 221 164 211 122 221 136 "},"Ц":{"ha":421,"x_min":0,"x_max":0,"o":"m 307 -208 l 307 0 l 21 0 l 21 922 l 163 922 l 163 129 l 225 129 l 225 922 l 367 922 l 367 129 l 411 129 l 411 -208 "},"Ч":{"ha":383,"x_min":0,"x_max":0,"o":"m 221 0 l 221 385 l 217 385 b 142 372 192 376 169 372 b 21 535 56 372 21 417 l 21 922 l 158 922 l 158 543 b 192 501 158 513 169 501 b 221 508 203 501 217 504 l 221 922 l 361 922 l 361 0 "},"Ш":{"ha":583,"x_min":0,"x_max":0,"o":"m 21 0 l 21 922 l 163 922 l 163 129 l 225 129 l 225 922 l 357 922 l 357 129 l 419 129 l 419 922 l 561 922 l 561 0 "},"Щ":{"ha":615,"x_min":0,"x_max":0,"o":"m 500 -208 l 500 0 l 21 0 l 21 922 l 163 922 l 163 129 l 225 129 l 225 922 l 357 922 l 357 129 l 419 129 l 419 922 l 561 922 l 561 129 l 604 129 l 604 -208 "},"Ъ":{"ha":496,"x_min":0,"x_max":0,"o":"m 144 793 l 13 793 l 13 922 l 286 922 l 286 556 l 344 556 b 482 383 458 556 482 494 l 482 144 b 344 0 482 60 449 0 l 144 0 m 315 125 b 349 172 339 125 349 133 l 349 393 b 315 433 349 422 343 433 l 286 433 l 286 125 "},"Ы":{"ha":565,"x_min":0,"x_max":0,"o":"m 400 0 l 400 922 l 542 922 l 542 0 m 163 556 l 221 556 b 358 424 324 556 358 508 l 358 144 b 221 0 358 60 325 0 l 21 0 l 21 922 l 163 922 m 192 125 b 225 178 218 125 225 140 l 225 390 b 192 433 225 424 218 433 l 163 433 l 163 125 "},"Ь":{"ha":372,"x_min":0,"x_max":0,"o":"m 163 556 l 221 556 b 358 424 324 556 358 508 l 358 144 b 221 0 358 60 325 0 l 21 0 l 21 922 l 163 922 m 192 125 b 225 178 218 125 225 140 l 225 390 b 192 433 225 424 218 433 l 163 433 l 163 125 "},"Э":{"ha":378,"x_min":0,"x_max":0,"o":"m 21 268 l 154 268 l 154 164 b 185 122 154 136 164 122 b 217 164 206 122 217 136 l 217 428 l 133 428 l 133 543 l 217 543 l 217 756 b 185 797 217 783 206 797 b 154 756 164 797 154 783 l 154 661 l 21 661 l 21 740 b 189 928 21 858 79 928 b 356 743 296 928 356 860 l 356 175 b 188 -7 356 58 299 -7 b 21 174 79 -7 21 53 "},"Ю":{"ha":589,"x_min":0,"x_max":0,"o":"m 21 0 l 21 922 l 163 922 l 163 551 l 225 551 l 225 743 b 396 928 225 860 288 928 b 567 740 504 928 567 858 l 567 174 b 397 -7 567 53 506 -7 b 225 175 286 -7 225 58 l 225 425 l 163 425 l 163 0 m 428 756 b 396 797 428 783 417 797 b 365 756 375 797 365 783 l 365 164 b 396 122 365 136 375 122 b 428 164 417 122 428 136 "},"Я":{"ha":372,"x_min":0,"x_max":0,"o":"m 3 0 l 61 404 b 14 556 24 433 14 486 l 14 743 b 150 922 14 858 35 922 l 350 922 l 350 0 l 208 0 l 208 379 l 192 379 l 144 0 m 146 540 b 181 494 146 511 158 494 l 208 494 l 208 796 l 181 796 b 146 743 158 796 146 779 l 146 540 "},"б":{"ha":378,"x_min":0,"x_max":0,"o":"m 217 531 b 186 572 217 558 207 572 b 154 542 168 572 158 563 l 154 151 b 186 110 154 124 165 110 b 217 151 207 110 217 124 m 354 117 b 189 -7 354 42 300 -7 b 24 156 75 -7 24 43 l 24 736 b 142 933 24 872 47 933 l 196 933 b 254 986 229 933 249 950 l 333 986 b 246 813 333 871 304 813 l 196 813 b 150 736 167 813 150 789 l 150 639 l 156 639 b 246 689 176 672 206 689 b 354 567 313 689 354 642 "},"в":{"ha":371,"x_min":0,"x_max":0,"o":"m 342 460 b 274 367 342 407 321 375 l 274 361 b 353 264 328 353 353 318 l 353 140 b 189 0 353 46 303 0 l 24 0 l 24 683 l 192 683 b 342 563 290 683 342 646 l 342 460 m 158 317 l 158 108 l 192 108 b 221 150 211 108 221 122 l 221 281 b 183 317 221 306 208 317 m 219 540 b 189 569 219 560 208 569 l 158 569 l 158 403 l 186 403 b 219 431 208 403 219 408 "},"г":{"ha":250,"x_min":0,"x_max":0,"o":"m 24 0 l 24 683 l 239 683 l 239 563 l 158 563 l 158 0 "},"д":{"ha":440,"x_min":0,"x_max":0,"o":"m 325 -208 l 325 0 l 114 0 l 114 -208 l 10 -208 l 10 119 l 25 119 b 88 394 63 119 78 146 l 99 683 l 386 683 l 386 119 l 429 119 l 429 -208 m 250 563 l 200 563 l 190 394 b 161 119 179 215 174 160 l 250 119 "},"ж":{"ha":579,"x_min":0,"x_max":0,"o":"m 436 0 l 360 281 l 354 281 l 354 0 l 224 0 l 224 281 l 218 281 l 142 0 l 3 0 l 115 347 l 8 683 l 146 683 l 218 433 l 224 433 l 224 683 l 354 683 l 354 433 l 360 433 l 433 683 l 569 683 l 461 347 l 575 0 "},"з":{"ha":367,"x_min":0,"x_max":0,"o":"m 344 133 b 181 -7 344 49 296 -7 b 24 128 78 -7 24 38 l 24 240 l 151 240 l 151 150 b 183 108 151 122 163 108 b 213 150 203 108 213 122 l 213 281 b 175 317 213 306 200 317 l 131 317 l 131 403 l 178 403 b 211 436 200 403 211 414 l 211 532 b 181 574 211 561 201 574 b 150 539 161 574 150 563 l 150 476 l 24 476 l 24 550 b 183 689 24 638 79 689 b 333 558 281 689 333 643 l 333 449 b 265 367 333 403 313 374 l 265 361 b 344 264 310 354 344 335 "},"и":{"ha":393,"x_min":0,"x_max":0,"o":"m 235 0 l 235 363 l 229 363 l 156 0 l 24 0 l 24 683 l 157 683 l 157 329 l 163 329 l 231 683 l 369 683 l 369 0 "},"й":{"ha":393,"x_min":0,"x_max":0,"o":"m 196 717 b 46 894 108 717 46 779 l 143 894 b 196 800 144 829 161 800 b 247 894 229 800 246 829 l 346 894 b 196 717 346 778 283 717 m 235 0 l 235 363 l 229 363 l 156 0 l 24 0 l 24 683 l 157 683 l 157 329 l 163 329 l 231 683 l 369 683 l 369 0 "},"л":{"ha":404,"x_min":0,"x_max":0,"o":"m 244 0 l 244 563 l 194 563 l 183 394 b 131 44 169 163 156 85 b 26 0 111 11 81 0 l 10 0 l 10 119 l 18 119 b 50 136 32 119 43 122 b 81 394 65 161 74 222 l 93 683 l 379 683 l 379 0 "},"м":{"ha":521,"x_min":0,"x_max":0,"o":"m 379 0 l 379 304 b 385 457 379 390 382 424 l 379 457 l 315 0 l 204 0 l 140 457 l 135 457 b 139 304 138 424 139 390 l 139 0 l 24 0 l 24 683 l 218 683 l 260 258 l 265 258 l 306 683 l 496 683 l 496 0 "},"н":{"ha":381,"x_min":0,"x_max":0,"o":"m 221 0 l 221 292 l 158 292 l 158 0 l 24 0 l 24 683 l 158 683 l 158 413 l 221 413 l 221 683 l 357 683 l 357 0 "},"п":{"ha":381,"x_min":0,"x_max":0,"o":"m 221 0 l 221 563 l 158 563 l 158 0 l 24 0 l 24 683 l 357 683 l 357 0 "},"т":{"ha":317,"x_min":0,"x_max":0,"o":"m 90 0 l 90 563 l 13 563 l 13 683 l 304 683 l 304 563 l 225 563 l 225 0 "},"ц":{"ha":411,"x_min":0,"x_max":0,"o":"m 296 -194 l 296 0 l 24 0 l 24 683 l 158 683 l 158 119 l 221 119 l 221 683 l 357 683 l 357 119 l 400 119 l 400 -194 "},"ч":{"ha":379,"x_min":0,"x_max":0,"o":"m 219 0 l 219 278 l 214 278 b 133 257 192 264 165 257 b 21 369 57 257 21 290 l 21 683 l 157 683 l 157 404 b 192 374 157 382 168 374 b 219 381 203 374 213 375 l 219 683 l 354 683 l 354 0 "},"ш":{"ha":563,"x_min":0,"x_max":0,"o":"m 24 0 l 24 683 l 158 683 l 158 119 l 221 119 l 221 683 l 342 683 l 342 119 l 404 119 l 404 683 l 539 683 l 539 0 "},"щ":{"ha":593,"x_min":0,"x_max":0,"o":"m 479 -194 l 479 0 l 24 0 l 24 683 l 158 683 l 158 119 l 221 119 l 221 683 l 342 683 l 342 119 l 404 119 l 404 683 l 539 683 l 539 119 l 583 119 l 583 -194 "},"ъ":{"ha":432,"x_min":0,"x_max":0,"o":"m 228 442 l 283 442 b 415 324 379 442 415 401 l 415 107 b 283 0 415 39 379 0 l 92 0 l 92 563 l 11 563 l 11 683 l 228 683 m 254 115 b 288 154 283 115 288 128 l 288 294 b 254 329 288 317 278 329 l 228 329 l 228 115 "},"ы":{"ha":543,"x_min":0,"x_max":0,"o":"m 158 442 l 215 442 b 346 322 311 442 346 400 l 346 107 b 215 0 346 39 311 0 l 24 0 l 24 683 l 158 683 m 186 115 b 219 150 208 115 219 126 l 219 294 b 186 329 219 317 208 329 l 158 329 l 158 115 m 383 0 l 383 683 l 518 683 l 518 0 "},"ь":{"ha":363,"x_min":0,"x_max":0,"o":"m 158 442 l 215 442 b 346 322 311 442 346 400 l 346 107 b 215 0 346 39 311 0 l 24 0 l 24 683 l 158 683 m 186 115 b 219 150 208 115 219 126 l 219 294 b 186 329 219 317 208 329 l 158 329 l 158 115 "},"э":{"ha":368,"x_min":0,"x_max":0,"o":"m 133 311 l 133 406 l 214 406 l 214 532 b 182 574 214 560 203 574 b 153 544 161 574 153 560 l 153 476 l 26 476 l 26 549 b 182 689 26 636 72 689 b 344 526 293 689 344 636 l 344 156 b 183 -7 344 46 293 -7 b 24 156 71 -7 24 47 l 24 240 l 151 240 l 151 150 b 183 108 151 122 163 108 b 214 150 203 108 214 122 l 214 311 "},"ю":{"ha":563,"x_min":0,"x_max":0,"o":"m 538 156 b 375 -7 538 43 488 -7 b 217 156 264 -7 217 43 l 217 293 l 154 293 l 154 0 l 24 0 l 24 683 l 154 683 l 154 414 l 217 414 l 217 526 b 375 689 217 639 264 689 b 538 526 488 689 538 639 m 407 526 b 375 568 407 554 396 568 b 344 526 354 568 344 554 l 344 156 b 375 114 344 128 354 114 b 407 156 396 114 407 128 "},"я":{"ha":371,"x_min":0,"x_max":0,"o":"m 3 0 l 75 264 b 24 383 33 285 24 325 l 24 575 b 154 683 24 643 58 683 l 346 683 l 346 0 l 211 0 l 211 251 l 196 251 l 140 0 m 150 392 b 183 358 150 368 161 358 l 211 358 l 211 567 l 183 567 b 150 522 154 567 150 553 l 150 392 "},"ђ":{"ha":379,"x_min":0,"x_max":0,"o":"m 158 767 l 158 633 l 164 633 b 253 689 181 669 208 689 b 356 558 329 689 356 631 l 356 -161 b 189 -324 356 -271 300 -324 b 28 -161 79 -324 28 -271 l 28 -37 l 157 -37 l 157 -161 b 188 -203 157 -189 167 -203 b 219 -161 208 -203 219 -189 l 219 538 b 192 572 219 560 210 572 b 158 531 171 572 161 558 l 158 0 l 24 0 l 24 767 l -1 767 l -1 850 l 24 850 l 24 933 l 158 933 l 158 850 l 253 850 l 253 767 "},"ѓ":{"ha":250,"x_min":0,"x_max":0,"o":"m 89 717 l 38 769 l 188 938 l 256 857 m 24 0 l 24 683 l 239 683 l 239 563 l 158 563 l 158 0 "},"є":{"ha":368,"x_min":0,"x_max":0,"o":"m 154 311 l 154 150 b 185 108 154 122 165 108 b 217 150 206 108 217 122 l 217 240 l 344 240 l 344 156 b 185 -7 344 47 297 -7 b 24 156 75 -7 24 46 l 24 526 b 186 689 24 636 75 689 b 342 549 296 689 342 636 l 342 476 l 215 476 l 215 544 b 186 574 215 560 207 574 b 154 532 165 574 154 560 l 154 406 l 235 406 l 235 311 "},"љ":{"ha":583,"x_min":0,"x_max":0,"o":"m 379 442 l 436 442 b 567 322 532 442 567 400 l 567 107 b 436 0 567 39 532 0 l 244 0 l 244 563 l 194 563 l 183 394 b 131 44 169 163 156 85 b 26 0 111 11 81 0 l 10 0 l 10 119 l 18 119 b 50 136 32 119 43 122 b 81 394 65 161 74 222 l 93 683 l 379 683 m 407 115 b 440 150 429 115 440 126 l 440 294 b 407 329 440 317 429 329 l 379 329 l 379 115 "},"њ":{"ha":561,"x_min":0,"x_max":0,"o":"m 357 442 l 413 442 b 544 322 510 442 544 400 l 544 107 b 413 0 544 39 508 0 l 221 0 l 221 329 l 158 329 l 158 0 l 24 0 l 24 683 l 158 683 l 158 442 l 221 442 l 221 683 l 357 683 m 383 115 b 417 150 407 115 417 126 l 417 294 b 383 329 417 317 407 329 l 357 329 l 357 115 "},"ќ":{"ha":375,"x_min":0,"x_max":0,"o":"m 156 717 l 104 769 l 254 938 l 322 857 m 229 0 l 186 244 l 181 244 l 158 175 l 158 0 l 24 0 l 24 683 l 158 683 l 158 443 l 164 443 b 228 683 167 463 172 488 l 372 683 l 285 404 l 371 0 "},"ѝ":{"ha":393,"x_min":0,"x_max":0,"o":"m 67 857 l 136 938 l 285 769 l 233 717 m 235 0 l 235 363 l 229 363 l 156 0 l 24 0 l 24 683 l 157 683 l 157 329 l 163 329 l 231 683 l 369 683 l 369 0 "},"ў":{"ha":376,"x_min":0,"x_max":0,"o":"m 160 164 b 190 122 160 135 171 122 b 222 164 208 122 221 135 l 222 683 l 353 683 l 353 -161 b 188 -324 353 -271 299 -324 b 26 -161 78 -324 26 -271 l 26 -42 l 156 -42 l 156 -161 b 188 -203 156 -189 167 -203 b 218 -161 208 -203 218 -189 l 218 50 l 213 50 b 126 0 192 11 164 0 b 24 133 47 0 24 53 l 24 683 l 160 683 m 192 717 b 42 894 104 717 42 779 l 139 894 b 192 800 140 829 157 800 b 243 894 225 800 242 829 l 342 894 b 192 717 342 778 279 717 "},"џ":{"ha":381,"x_min":0,"x_max":0,"o":"m 138 -194 l 138 0 l 24 0 l 24 683 l 158 683 l 158 119 l 221 119 l 221 683 l 357 683 l 357 0 l 242 0 l 242 -194 "},"Ґ":{"ha":307,"x_min":0,"x_max":0,"o":"m 21 0 l 21 922 l 192 922 l 192 1113 l 296 1113 l 296 793 l 163 793 l 163 0 "},"ґ":{"ha":250,"x_min":0,"x_max":0,"o":"m 24 0 l 24 683 l 135 683 l 135 853 l 239 853 l 239 563 l 158 563 l 158 0 "},"Ғ":{"ha":326,"x_min":0,"x_max":0,"o":"m 39 0 l 39 390 l 0 390 l 0 499 l 39 499 l 39 922 l 314 922 l 314 793 l 181 793 l 181 499 l 254 499 l 254 390 l 181 390 l 181 0 "},"ғ":{"ha":265,"x_min":0,"x_max":0,"o":"m 38 0 l 38 265 l 0 265 l 0 349 l 38 349 l 38 683 l 254 683 l 254 563 l 174 563 l 174 349 l 254 349 l 254 265 l 174 265 l 174 0 "},"Җ":{"ha":664,"x_min":0,"x_max":0,"o":"m 3 0 l 126 469 l 8 922 l 153 922 l 232 589 l 238 589 l 238 922 l 375 922 l 375 589 l 381 589 l 460 922 l 604 922 l 485 469 l 575 129 l 654 129 l 654 -178 l 550 -178 l 550 0 l 463 0 l 381 375 l 375 375 l 375 0 l 238 0 l 238 375 l 232 375 l 150 0 "},"җ":{"ha":631,"x_min":0,"x_max":0,"o":"m 517 -178 l 517 0 l 436 0 l 360 281 l 354 281 l 354 0 l 224 0 l 224 281 l 218 281 l 142 0 l 3 0 l 115 347 l 8 683 l 146 683 l 218 433 l 224 433 l 224 683 l 354 683 l 354 433 l 360 433 l 433 683 l 569 683 l 461 347 l 532 129 l 621 129 l 621 -178 "},"Ҙ":{"ha":371,"x_min":0,"x_max":0,"o":"m 100 -185 b 143 -190 110 -187 126 -190 b 181 -160 169 -190 181 -183 l 181 -122 b 139 -1 181 -76 179 -17 b 21 174 85 19 21 47 l 21 268 l 154 268 l 154 164 b 185 122 154 136 164 122 b 217 164 206 122 217 136 l 217 381 b 176 428 217 413 203 428 l 133 428 l 133 543 l 182 543 b 217 589 204 543 217 558 l 217 756 b 185 797 217 783 206 797 b 154 756 164 797 154 783 l 154 661 l 21 661 l 21 740 b 186 928 21 860 82 928 b 346 771 299 928 346 847 l 346 604 b 275 493 346 543 324 501 l 275 488 b 357 371 321 479 357 444 l 357 175 b 217 -4 357 68 308 6 l 217 -10 b 272 -162 256 -49 272 -103 l 272 -204 b 169 -308 272 -281 239 -308 b 100 -294 143 -308 118 -304 "},"ҙ":{"ha":367,"x_min":0,"x_max":0,"o":"m 344 133 b 197 -7 344 53 300 -1 l 197 -14 b 268 -162 244 -47 268 -99 l 268 -204 b 167 -308 268 -281 235 -308 b 96 -294 139 -308 114 -304 l 96 -185 b 139 -190 106 -187 122 -190 b 178 -160 167 -190 178 -183 l 178 -122 b 117 0 178 -35 140 -12 b 24 128 69 24 24 47 l 24 240 l 151 240 l 151 150 b 183 108 151 122 163 108 b 213 150 203 108 213 122 l 213 281 b 175 317 213 306 200 317 l 131 317 l 131 403 l 178 403 b 211 436 200 403 211 414 l 211 532 b 181 574 211 561 201 574 b 150 539 161 574 150 563 l 150 476 l 24 476 l 24 550 b 183 689 24 638 79 689 b 333 558 281 689 333 643 l 333 449 b 265 367 333 403 313 374 l 265 361 b 344 264 310 354 344 335 "},"Қ":{"ha":432,"x_min":0,"x_max":0,"o":"m 317 -178 l 317 0 l 235 0 l 192 349 l 188 349 l 165 258 l 165 0 l 21 0 l 21 922 l 165 922 l 165 604 l 171 604 b 238 922 176 646 188 692 l 379 922 l 292 574 l 358 129 l 421 129 l 421 -178 "},"қ":{"ha":425,"x_min":0,"x_max":0,"o":"m 310 -178 l 310 0 l 229 0 l 186 244 l 181 244 l 158 175 l 158 0 l 24 0 l 24 683 l 158 683 l 158 443 l 164 443 b 228 683 168 464 172 485 l 372 683 l 285 404 l 343 129 l 414 129 l 414 -178 "},"Ҡ":{"ha":507,"x_min":0,"x_max":0,"o":"m 358 0 l 315 349 l 311 349 l 289 258 l 289 0 l 144 0 l 144 793 l 13 793 l 13 922 l 289 922 l 289 604 l 294 604 b 361 922 300 646 311 692 l 503 922 l 415 574 l 501 0 "},"ҡ":{"ha":444,"x_min":0,"x_max":0,"o":"m 299 0 l 256 244 l 250 244 l 228 175 l 228 0 l 92 0 l 92 563 l 13 563 l 13 683 l 228 683 l 228 443 l 233 443 b 297 683 236 461 240 483 l 442 683 l 354 404 l 439 0 "},"Ң":{"ha":421,"x_min":0,"x_max":0,"o":"m 307 -178 l 307 0 l 225 0 l 225 429 l 163 429 l 163 0 l 21 0 l 21 922 l 163 922 l 163 556 l 225 556 l 225 922 l 367 922 l 367 129 l 411 129 l 411 -178 "},"ң":{"ha":425,"x_min":0,"x_max":0,"o":"m 310 -178 l 310 0 l 221 0 l 221 292 l 158 292 l 158 0 l 24 0 l 24 683 l 158 683 l 158 413 l 221 413 l 221 683 l 357 683 l 357 129 l 414 129 l 414 -178 "},"Ҫ":{"ha":378,"x_min":0,"x_max":0,"o":"m 111 -185 b 154 -190 121 -187 138 -190 b 192 -160 181 -190 192 -183 l 192 -122 b 125 1 192 -42 151 -14 b 21 175 75 31 21 64 l 21 749 b 189 928 21 869 76 928 b 354 750 294 928 354 876 l 354 592 l 224 592 l 224 756 b 192 797 224 783 213 797 b 161 756 171 797 161 783 l 161 164 b 190 122 161 135 168 122 b 224 164 213 122 224 135 l 224 376 l 356 376 l 356 174 b 213 -6 356 61 306 1 l 213 -18 b 283 -162 258 -50 283 -100 l 283 -204 b 181 -308 283 -281 250 -308 b 111 -294 154 -308 129 -304 "},"ҫ":{"ha":368,"x_min":0,"x_max":0,"o":"m 99 -185 b 142 -190 108 -187 125 -190 b 179 -160 168 -190 179 -183 l 179 -122 b 114 3 179 -32 140 -10 b 24 156 69 24 24 47 l 24 526 b 186 689 24 636 75 689 b 344 526 296 689 344 636 l 344 439 l 217 439 l 217 526 b 186 568 217 554 207 568 b 154 526 165 568 154 554 l 154 156 b 185 114 154 128 165 114 b 217 156 206 114 217 128 l 217 247 l 344 247 l 344 156 b 196 -7 344 50 299 -3 l 196 -14 b 271 -162 246 -46 271 -97 l 271 -204 b 168 -308 271 -281 238 -308 b 99 -294 142 -308 117 -304 "},"Ҳ":{"ha":454,"x_min":0,"x_max":0,"o":"m 396 922 l 294 486 l 372 129 l 444 129 l 444 -178 l 340 -178 l 340 0 l 257 0 l 204 313 l 199 313 l 146 0 l 4 0 l 113 467 l 8 922 l 150 922 l 201 632 l 207 632 l 258 922 "},"ҳ":{"ha":424,"x_min":0,"x_max":0,"o":"m 364 683 l 272 361 l 333 129 l 413 129 l 413 -178 l 308 -178 l 308 0 l 228 0 l 186 218 l 181 218 l 140 0 l 3 0 l 100 347 l 7 683 l 144 683 l 186 482 l 192 482 l 231 683 "},"Ҷ":{"ha":421,"x_min":0,"x_max":0,"o":"m 307 -178 l 307 0 l 221 0 l 221 385 l 217 385 b 142 372 192 376 169 372 b 21 535 56 372 21 417 l 21 922 l 158 922 l 158 543 b 192 501 158 513 169 501 b 221 508 203 501 217 504 l 221 922 l 361 922 l 361 129 l 411 129 l 411 -178 "},"ҷ":{"ha":415,"x_min":0,"x_max":0,"o":"m 300 -178 l 300 0 l 219 0 l 219 278 l 214 278 b 133 257 192 264 165 257 b 21 369 57 257 21 290 l 21 683 l 157 683 l 157 404 b 192 374 157 382 168 374 b 219 381 203 374 213 375 l 219 683 l 354 683 l 354 129 l 404 129 l 404 -178 "},"Һ":{"ha":383,"x_min":0,"x_max":0,"o":"m 161 922 l 161 536 l 165 536 b 240 549 190 544 214 549 b 361 386 326 549 361 506 l 361 0 l 224 0 l 224 378 b 190 419 224 410 214 419 b 161 413 181 419 167 418 l 161 0 l 22 0 l 22 922 "},"Ӄ":{"ha":383,"x_min":0,"x_max":0,"o":"m 208 -203 b 238 -161 229 -203 238 -189 l 238 0 l 192 349 l 188 349 l 165 258 l 165 0 l 21 0 l 21 922 l 165 922 l 165 604 l 171 604 b 238 922 176 646 188 692 l 379 922 l 292 574 l 378 0 l 378 -161 b 210 -324 378 -271 319 -324 "},"ӄ":{"ha":375,"x_min":0,"x_max":0,"o":"m 204 -203 b 235 -161 225 -203 235 -189 l 235 -22 l 186 244 l 181 244 l 158 175 l 158 0 l 24 0 l 24 683 l 158 683 l 158 443 l 164 443 b 228 683 168 464 172 486 l 372 683 l 285 404 l 371 0 l 371 -161 b 206 -324 371 -271 315 -324 "},"Ӈ":{"ha":389,"x_min":0,"x_max":0,"o":"m 194 -203 b 225 -161 215 -203 225 -189 l 225 429 l 163 429 l 163 0 l 21 0 l 21 922 l 163 922 l 163 556 l 225 556 l 225 922 l 367 922 l 367 -161 b 194 -324 367 -271 306 -324 "},"ӈ":{"ha":381,"x_min":0,"x_max":0,"o":"m 190 -203 b 221 -161 211 -203 221 -189 l 221 292 l 158 292 l 158 0 l 24 0 l 24 683 l 158 683 l 158 413 l 221 413 l 221 683 l 357 683 l 357 -161 b 192 -324 357 -271 301 -324 "},"ǝ":{"ha":374,"x_min":0,"x_max":0,"o":"m 24 526 b 188 689 24 635 76 689 b 350 526 297 689 350 638 l 350 156 b 188 -7 350 47 297 -7 b 24 156 76 -7 24 47 l 24 381 l 218 381 l 218 531 b 188 572 218 558 208 572 b 157 531 167 572 157 558 l 157 453 l 24 453 m 156 153 b 188 111 156 125 167 111 b 218 153 208 111 218 125 l 218 283 l 156 283 "},"ə":{"ha":374,"x_min":0,"x_max":0,"o":"m 24 453 l 157 453 l 157 531 b 188 572 157 558 167 572 b 218 531 208 572 218 558 l 218 381 l 24 381 l 24 156 b 188 -7 24 47 76 -7 b 350 156 297 -7 350 47 l 350 526 b 188 689 350 638 297 689 b 24 526 76 689 24 635 m 156 283 l 218 283 l 218 153 b 188 111 218 125 208 111 b 156 153 167 111 156 125 "},"ә":{"ha":374,"x_min":0,"x_max":0,"o":"m 24 526 b 188 689 24 635 76 689 b 350 526 297 689 350 638 l 350 156 b 188 -7 350 47 297 -7 b 24 156 76 -7 24 47 l 24 381 l 218 381 l 218 531 b 188 572 218 558 208 572 b 157 531 167 572 157 558 l 157 453 l 24 453 m 156 153 b 188 111 156 125 167 111 b 218 153 208 111 218 125 l 218 283 l 156 283 "},"Ө":{"ha":376,"x_min":0,"x_max":0,"o":"m 358 174 b 189 -7 358 53 297 -7 b 17 175 78 -7 17 58 l 17 743 b 188 928 17 860 79 928 b 358 740 296 928 358 858 m 219 406 l 157 406 l 157 164 b 188 122 157 136 167 122 b 219 164 208 122 219 136 m 157 529 l 219 529 l 219 756 b 188 797 219 783 208 797 b 157 756 167 797 157 783 "},"ө":{"ha":372,"x_min":0,"x_max":0,"o":"m 349 156 b 186 -7 349 44 296 -7 b 24 156 75 -7 24 44 l 24 526 b 186 689 24 638 75 689 b 349 526 296 689 349 638 m 217 306 l 154 306 l 154 156 b 186 114 154 128 167 114 b 217 156 206 114 217 128 m 154 389 l 217 389 l 217 526 b 186 568 217 554 206 568 b 154 526 167 568 154 554 "},"Ӯ":{"ha":383,"x_min":0,"x_max":0,"o":"m 64 996 l 64 1079 l 318 1079 l 318 996 m 221 393 l 215 393 b 128 350 199 360 156 350 b 21 529 61 350 21 408 l 21 922 l 158 922 l 158 521 b 188 479 158 492 168 479 b 221 508 204 479 217 488 l 221 922 l 361 922 l 361 175 b 192 -7 361 58 304 -7 b 21 174 83 -7 21 51 l 21 307 l 158 307 l 158 164 b 190 122 158 136 169 122 b 221 164 211 122 221 136 "},"ӯ":{"ha":376,"x_min":0,"x_max":0,"o":"m 160 164 b 190 122 160 135 171 122 b 222 164 208 122 221 135 l 222 683 l 353 683 l 353 -161 b 188 -324 353 -271 299 -324 b 26 -161 78 -324 26 -271 l 26 -42 l 156 -42 l 156 -161 b 188 -203 156 -189 167 -203 b 218 -161 208 -203 218 -189 l 218 50 l 213 50 b 126 0 192 11 164 0 b 24 133 47 0 24 53 l 24 683 l 160 683 m 64 767 l 64 850 l 318 850 l 318 767 "},"Ԓ":{"ha":433,"x_min":0,"x_max":0,"o":"m 238 -203 b 269 -161 258 -203 269 -189 l 269 796 l 217 796 l 208 532 b 158 79 200 288 185 144 b 31 0 133 15 93 0 l 13 0 l 13 129 l 21 129 b 65 167 43 129 57 135 b 93 533 79 215 86 328 l 104 922 l 411 922 l 411 -161 b 238 -324 411 -271 347 -324 "},"ԓ":{"ha":404,"x_min":0,"x_max":0,"o":"m 213 -203 b 244 -161 233 -203 244 -189 l 244 563 l 194 563 l 183 394 b 131 44 169 163 156 85 b 26 0 111 11 81 0 l 10 0 l 10 119 l 18 119 b 50 136 32 119 43 122 b 81 394 65 161 74 222 l 93 683 l 379 683 l 379 -161 b 213 -324 379 -271 324 -324 "},"֏":{"ha":408,"x_min":0,"x_max":0,"o":"m 208 0 l 208 206 l 83 206 l 83 289 l 208 289 l 208 397 l 83 397 l 83 481 l 208 481 l 208 757 b 176 799 208 785 197 799 b 146 757 156 799 146 785 l 146 574 l 13 574 l 13 747 b 179 928 13 868 71 928 b 347 746 290 928 347 864 l 347 481 l 396 481 l 396 397 l 347 397 l 347 289 l 396 289 l 396 206 l 347 206 l 347 0 "},"Ḍ":{"ha":385,"x_min":0,"x_max":0,"o":"m 21 0 l 21 922 l 199 922 b 363 756 308 922 363 867 l 363 175 b 199 0 363 53 306 0 m 189 126 b 221 206 210 126 221 153 l 221 724 b 179 796 221 772 207 796 l 160 796 l 160 126 m 110 -186 l 110 -64 l 244 -64 l 244 -186 "},"ḍ":{"ha":376,"x_min":0,"x_max":0,"o":"m 231 0 l 229 58 l 224 58 b 132 -7 204 14 175 -7 b 24 117 65 -7 24 42 l 24 567 b 131 689 24 642 67 689 b 214 639 167 689 194 675 l 219 639 l 219 933 l 353 933 l 353 0 m 160 151 b 192 110 160 124 171 110 b 222 142 210 110 219 121 l 222 542 b 192 572 219 563 210 572 b 160 531 171 572 160 558 m 121 -186 l 121 -64 l 256 -64 l 256 -186 "},"Ḓ":{"ha":385,"x_min":0,"x_max":0,"o":"m 21 0 l 21 922 l 199 922 b 363 756 308 922 363 867 l 363 175 b 199 0 363 53 306 0 m 189 126 b 221 206 210 126 221 153 l 221 724 b 179 796 221 772 207 796 l 160 796 l 160 126 m 253 -264 l 164 -162 l 75 -264 l 17 -218 l 104 -85 l 224 -85 l 311 -218 "},"ḓ":{"ha":376,"x_min":0,"x_max":0,"o":"m 231 0 l 229 58 l 224 58 b 132 -7 204 14 175 -7 b 24 117 65 -7 24 42 l 24 567 b 131 689 24 642 67 689 b 214 639 167 689 194 675 l 219 639 l 219 933 l 353 933 l 353 0 m 160 151 b 192 110 160 124 171 110 b 222 142 210 110 219 121 l 222 542 b 192 572 219 563 210 572 b 160 531 171 572 160 558 m 272 -264 l 183 -162 l 94 -264 l 36 -218 l 124 -85 l 243 -85 l 331 -218 "},"Ḥ":{"ha":389,"x_min":0,"x_max":0,"o":"m 225 0 l 225 429 l 163 429 l 163 0 l 21 0 l 21 922 l 163 922 l 163 556 l 225 556 l 225 922 l 367 922 l 367 0 m 126 -186 l 126 -64 l 261 -64 l 261 -186 "},"ḥ":{"ha":379,"x_min":0,"x_max":0,"o":"m 219 0 l 219 538 b 192 572 219 561 210 572 b 158 531 172 572 161 558 l 158 0 l 24 0 l 24 933 l 158 933 l 158 633 l 164 633 b 253 689 181 671 210 689 b 356 558 329 689 356 631 l 356 0 m 121 -186 l 121 -64 l 256 -64 l 256 -186 "},"Ḽ":{"ha":308,"x_min":0,"x_max":0,"o":"m 21 0 l 21 922 l 163 922 l 163 129 l 296 129 l 296 0 m 247 -264 l 158 -162 l 69 -264 l 11 -218 l 99 -85 l 218 -85 l 306 -218 "},"ḽ":{"ha":185,"x_min":0,"x_max":0,"o":"m 24 0 l 24 933 l 158 933 l 158 0 m 178 -264 l 89 -162 l 0 -264 l -58 -218 l 29 -85 l 149 -85 l 236 -218 "},"Ṅ":{"ha":408,"x_min":0,"x_max":0,"o":"m 222 0 l 142 640 l 136 640 b 142 296 140 571 142 489 l 142 0 l 21 0 l 21 922 l 208 922 l 265 329 l 271 329 b 265 717 268 417 265 501 l 265 922 l 388 922 l 388 0 m 132 983 l 132 1107 l 268 1107 l 268 983 "},"ṅ":{"ha":379,"x_min":0,"x_max":0,"o":"m 219 0 l 219 538 b 192 572 219 560 210 572 b 158 542 175 572 164 563 l 158 0 l 24 0 l 24 683 l 150 683 l 153 624 l 158 624 b 251 689 181 671 213 689 b 356 565 313 689 356 643 l 356 0 m 119 754 l 119 878 l 256 878 l 256 754 "},"Ṋ":{"ha":408,"x_min":0,"x_max":0,"o":"m 222 0 l 142 640 l 136 640 b 142 296 140 571 142 489 l 142 0 l 21 0 l 21 922 l 208 922 l 265 329 l 271 329 b 265 717 268 417 265 501 l 265 922 l 388 922 l 388 0 m 285 -264 l 196 -162 l 107 -264 l 49 -218 l 136 -85 l 256 -85 l 343 -218 "},"ṋ":{"ha":379,"x_min":0,"x_max":0,"o":"m 219 0 l 219 538 b 192 572 219 560 210 572 b 158 542 175 572 164 563 l 158 0 l 24 0 l 24 683 l 150 683 l 153 624 l 158 624 b 251 689 181 671 213 689 b 356 565 313 689 356 643 l 356 0 m 276 -264 l 188 -162 l 99 -264 l 40 -218 l 128 -85 l 247 -85 l 335 -218 "},"Ṛ":{"ha":378,"x_min":0,"x_max":0,"o":"m 21 0 l 21 922 l 222 922 b 358 776 322 922 358 868 l 358 569 b 283 458 358 508 329 467 l 283 453 b 361 342 329 446 361 418 l 361 0 l 222 0 l 222 354 b 190 393 222 379 213 393 l 160 393 l 160 0 m 222 760 b 188 796 222 785 211 796 l 160 796 l 160 508 l 188 508 b 222 554 211 508 222 525 m 121 -186 l 121 -64 l 256 -64 l 256 -186 "},"ṛ":{"ha":283,"x_min":0,"x_max":0,"o":"m 24 0 l 24 683 l 150 683 l 153 624 l 158 624 b 243 689 174 663 199 689 b 274 683 254 689 264 688 l 274 563 b 238 568 263 567 253 568 b 158 483 179 568 158 539 l 158 0 m 17 -186 l 17 -64 l 151 -64 l 151 -186 "},"Ṣ":{"ha":392,"x_min":0,"x_max":0,"o":"m 229 650 l 229 757 b 194 797 229 783 217 797 b 160 761 171 797 160 782 l 160 681 b 189 588 160 629 164 615 b 335 443 238 532 300 489 b 374 296 361 407 374 371 l 374 172 b 194 -7 374 56 319 -7 b 17 174 71 -7 17 54 l 17 276 l 150 276 l 150 163 b 189 122 150 138 164 122 b 225 163 214 122 225 138 l 225 264 b 188 379 225 332 215 349 b 58 525 143 428 90 469 b 21 688 33 568 21 611 l 21 765 b 192 928 21 869 81 928 b 361 740 317 928 361 854 l 361 650 m 125 -186 l 125 -64 l 260 -64 l 260 -186 "},"ṣ":{"ha":367,"x_min":0,"x_max":0,"o":"m 215 476 l 215 550 b 185 579 215 569 204 579 b 153 553 167 579 153 571 l 153 474 b 183 422 153 451 156 443 b 297 350 218 397 263 379 b 347 225 328 325 347 294 l 347 132 b 188 -7 347 39 297 -7 b 19 138 71 -7 19 43 l 19 219 l 146 219 l 146 133 b 181 103 146 113 158 103 b 213 129 203 103 213 113 l 213 221 b 172 282 213 243 207 257 b 61 365 142 304 86 338 b 25 474 32 397 25 433 l 25 565 b 181 689 25 642 82 689 b 342 543 285 689 342 635 l 342 476 m 117 -186 l 117 -64 l 251 -64 l 251 -186 "},"Ṭ":{"ha":364,"x_min":0,"x_max":0,"o":"m 111 0 l 111 796 l 13 796 l 13 922 l 351 922 l 351 796 l 251 796 l 251 0 m 114 -186 l 114 -64 l 249 -64 l 249 -186 "},"ṭ":{"ha":356,"x_min":0,"x_max":0,"o":"m 217 381 l 332 381 l 332 156 b 186 -7 332 46 296 -7 b 24 156 75 -7 24 46 l 24 868 l 157 868 l 157 683 l 332 683 l 332 563 l 157 563 l 157 156 b 188 114 157 128 167 114 b 217 156 207 114 217 128 m 117 -186 l 117 -64 l 251 -64 l 251 -186 "},"Ẁ":{"ha":575,"x_min":0,"x_max":0,"o":"m 68 0 l 4 922 l 140 922 l 169 276 l 175 276 l 213 922 l 363 922 l 404 276 l 410 276 l 438 922 l 571 922 l 507 0 l 328 0 l 290 647 l 285 647 l 247 0 m 157 1086 l 226 1167 l 375 999 l 324 946 "},"ẁ":{"ha":525,"x_min":0,"x_max":0,"o":"m 60 0 l 3 683 l 129 683 l 153 229 l 158 229 l 193 683 l 331 683 l 368 229 l 374 229 l 397 683 l 521 683 l 464 0 l 299 0 l 265 468 l 260 468 l 225 0 m 133 857 l 203 938 l 351 769 l 300 717 "},"Ẃ":{"ha":575,"x_min":0,"x_max":0,"o":"m 68 0 l 4 922 l 140 922 l 169 276 l 175 276 l 213 922 l 363 922 l 404 276 l 410 276 l 438 922 l 571 922 l 507 0 l 328 0 l 290 647 l 285 647 l 247 0 m 253 946 l 201 999 l 351 1167 l 419 1086 "},"ẃ":{"ha":525,"x_min":0,"x_max":0,"o":"m 60 0 l 3 683 l 129 683 l 153 229 l 158 229 l 193 683 l 331 683 l 368 229 l 374 229 l 397 683 l 521 683 l 464 0 l 299 0 l 265 468 l 260 468 l 225 0 m 225 717 l 174 769 l 324 938 l 392 857 "},"Ẅ":{"ha":575,"x_min":0,"x_max":0,"o":"m 68 0 l 4 922 l 140 922 l 169 276 l 175 276 l 213 922 l 363 922 l 404 276 l 410 276 l 438 922 l 571 922 l 507 0 l 328 0 l 290 647 l 285 647 l 247 0 m 142 983 l 142 1107 l 267 1107 l 267 983 m 306 983 l 306 1107 l 431 1107 l 431 983 "},"ẅ":{"ha":525,"x_min":0,"x_max":0,"o":"m 60 0 l 3 683 l 129 683 l 153 229 l 158 229 l 193 683 l 331 683 l 368 229 l 374 229 l 397 683 l 521 683 l 464 0 l 299 0 l 265 468 l 260 468 l 225 0 m 117 754 l 117 878 l 242 878 l 242 754 m 281 754 l 281 878 l 406 878 l 406 754 "},"Ẓ":{"ha":350,"x_min":0,"x_max":0,"o":"m 13 0 l 13 129 l 190 796 l 14 796 l 14 922 l 332 922 l 332 794 l 157 126 l 338 126 l 338 0 m 107 -186 l 107 -64 l 242 -64 l 242 -186 "},"ẓ":{"ha":317,"x_min":0,"x_max":0,"o":"m 14 0 l 14 125 l 163 563 l 17 563 l 17 683 l 299 683 l 299 563 l 153 124 l 303 124 l 303 0 m 92 -186 l 92 -64 l 226 -64 l 226 -186 "},"ẞ":{"ha":429,"x_min":0,"x_max":0,"o":"m 196 122 b 231 115 207 117 219 115 b 268 156 256 115 268 129 l 268 429 b 235 464 268 453 257 464 b 196 453 222 464 208 460 l 196 576 l 253 796 l 213 796 b 163 740 179 796 163 776 l 163 0 l 21 0 l 21 743 b 192 922 21 860 81 922 l 385 922 l 385 803 l 322 574 b 407 439 378 567 407 521 l 407 161 b 258 -7 407 39 358 -7 b 196 0 238 -7 213 -4 "},"Ạ":{"ha":388,"x_min":0,"x_max":0,"o":"m 242 0 l 226 210 l 156 210 l 142 0 l 4 0 l 94 922 l 292 922 l 382 0 m 164 331 l 218 331 l 194 688 l 189 688 m 124 -186 l 124 -64 l 258 -64 l 258 -186 "},"ạ":{"ha":369,"x_min":0,"x_max":0,"o":"m 213 342 b 178 329 203 336 192 333 b 149 286 157 324 149 308 l 149 142 b 181 110 149 121 160 110 b 213 133 200 110 208 118 m 221 0 l 218 50 l 213 50 b 117 -7 200 28 181 -7 b 17 106 39 -7 17 42 l 17 261 b 142 407 17 350 51 383 b 211 456 190 419 211 425 l 211 546 b 182 574 211 564 201 574 b 150 542 161 574 150 563 l 150 461 l 25 461 l 25 558 b 192 689 25 647 88 689 b 346 567 293 689 346 650 l 346 0 m 113 -186 l 113 -64 l 247 -64 l 247 -186 "},"Ả":{"ha":388,"x_min":0,"x_max":0,"o":"m 242 0 l 226 210 l 156 210 l 142 0 l 4 0 l 94 922 l 292 922 l 382 0 m 164 331 l 218 331 l 194 688 l 189 688 m 157 958 b 213 1054 157 1025 213 1021 b 192 1068 213 1064 207 1068 b 142 1047 171 1068 157 1061 l 119 1118 b 204 1147 142 1138 178 1147 b 286 1067 251 1147 286 1117 b 219 958 286 1000 219 1000 "},"ả":{"ha":369,"x_min":0,"x_max":0,"o":"m 213 342 b 178 329 203 336 192 333 b 149 286 157 324 149 308 l 149 142 b 181 110 149 121 160 110 b 213 133 200 110 208 118 m 221 0 l 218 50 l 213 50 b 117 -7 200 28 181 -7 b 17 106 39 -7 17 42 l 17 261 b 142 407 17 350 51 383 b 211 456 190 419 211 425 l 211 546 b 182 574 211 564 201 574 b 150 542 161 574 150 563 l 150 461 l 25 461 l 25 558 b 192 689 25 647 88 689 b 346 567 293 689 346 650 l 346 0 m 146 729 b 201 825 146 796 201 792 b 181 839 201 835 196 839 b 131 818 160 839 146 832 l 108 889 b 193 918 131 908 167 918 b 275 838 240 918 275 888 b 208 729 275 771 208 771 "},"Ấ":{"ha":388,"x_min":0,"x_max":0,"o":"m 242 0 l 226 210 l 156 210 l 142 0 l 4 0 l 94 922 l 292 922 l 382 0 m 164 331 l 218 331 l 194 688 l 189 688 m 279 946 l 192 1039 l 103 946 l 44 992 l 132 1117 l 250 1117 l 338 992 m 321 1065 l 271 1117 l 392 1249 l 460 1171 "},"ấ":{"ha":369,"x_min":0,"x_max":0,"o":"m 213 342 b 178 329 203 336 192 333 b 149 286 157 324 149 308 l 149 142 b 181 110 149 121 160 110 b 213 133 200 110 208 118 m 221 0 l 218 50 l 213 50 b 117 -7 200 28 181 -7 b 17 106 39 -7 17 42 l 17 261 b 142 407 17 350 51 383 b 211 456 190 419 211 425 l 211 546 b 182 574 211 564 201 574 b 150 542 161 574 150 563 l 150 461 l 25 461 l 25 558 b 192 689 25 647 88 689 b 346 567 293 689 346 650 l 346 0 m 276 717 l 189 810 l 100 717 l 42 763 l 129 888 l 247 888 l 335 763 m 318 836 l 268 888 l 389 1019 l 457 942 "},"Ầ":{"ha":388,"x_min":0,"x_max":0,"o":"m 242 0 l 226 210 l 156 210 l 142 0 l 4 0 l 94 922 l 292 922 l 382 0 m 164 331 l 218 331 l 194 688 l 189 688 m 275 946 l 188 1039 l 99 946 l 40 992 l 128 1117 l 246 1117 l 333 992 m 225 1171 l 292 1249 l 414 1117 l 364 1065 "},"ầ":{"ha":369,"x_min":0,"x_max":0,"o":"m 213 342 b 178 329 203 336 192 333 b 149 286 157 324 149 308 l 149 142 b 181 110 149 121 160 110 b 213 133 200 110 208 118 m 221 0 l 218 50 l 213 50 b 117 -7 200 28 181 -7 b 17 106 39 -7 17 42 l 17 261 b 142 407 17 350 51 383 b 211 456 190 419 211 425 l 211 546 b 182 574 211 564 201 574 b 150 542 161 574 150 563 l 150 461 l 25 461 l 25 558 b 192 689 25 647 88 689 b 346 567 293 689 346 650 l 346 0 m 267 717 l 179 810 l 90 717 l 32 763 l 119 888 l 238 888 l 325 763 m 217 942 l 283 1019 l 406 888 l 356 836 "},"Ẩ":{"ha":388,"x_min":0,"x_max":0,"o":"m 242 0 l 226 210 l 156 210 l 142 0 l 4 0 l 94 922 l 292 922 l 382 0 m 164 331 l 218 331 l 194 688 l 189 688 m 282 946 l 193 1039 l 104 946 l 46 992 l 133 1117 l 253 1117 l 340 992 m 308 1060 b 364 1154 308 1125 364 1121 b 343 1169 364 1165 358 1169 b 293 1149 322 1169 308 1163 l 271 1219 b 356 1249 293 1239 329 1249 b 438 1168 403 1249 438 1217 b 371 1060 438 1100 371 1100 "},"ẩ":{"ha":369,"x_min":0,"x_max":0,"o":"m 213 342 b 178 329 203 336 192 333 b 149 286 157 324 149 308 l 149 142 b 181 110 149 121 160 110 b 213 133 200 110 208 118 m 221 0 l 218 50 l 213 50 b 117 -7 200 28 181 -7 b 17 106 39 -7 17 42 l 17 261 b 142 407 17 350 51 383 b 211 456 190 419 211 425 l 211 546 b 182 574 211 564 201 574 b 150 542 161 574 150 563 l 150 461 l 25 461 l 25 558 b 192 689 25 647 88 689 b 346 567 293 689 346 650 l 346 0 m 261 717 l 172 810 l 83 717 l 25 763 l 113 888 l 232 888 l 319 763 m 288 831 b 343 925 288 896 343 892 b 322 940 343 936 338 940 b 272 919 301 940 288 933 l 250 990 b 335 1019 272 1010 308 1019 b 417 939 382 1019 417 988 b 350 831 417 871 350 871 "},"Ẫ":{"ha":388,"x_min":0,"x_max":0,"o":"m 242 0 l 226 210 l 156 210 l 142 0 l 4 0 l 94 922 l 292 922 l 382 0 m 164 331 l 218 331 l 194 688 l 189 688 m 279 946 l 192 1039 l 103 946 l 44 992 l 132 1117 l 250 1117 l 338 992 m 339 1217 b 258 1138 329 1160 296 1138 b 139 1171 213 1138 181 1171 b 104 1139 125 1171 110 1167 l 46 1171 b 126 1249 56 1226 88 1249 b 246 1217 172 1249 204 1217 b 281 1247 260 1217 275 1221 "},"ẫ":{"ha":369,"x_min":0,"x_max":0,"o":"m 213 342 b 178 329 203 336 192 333 b 149 286 157 324 149 308 l 149 142 b 181 110 149 121 160 110 b 213 133 200 110 208 118 m 221 0 l 218 50 l 213 50 b 117 -7 200 28 181 -7 b 17 106 39 -7 17 42 l 17 261 b 142 407 17 350 51 383 b 211 456 190 419 211 425 l 211 546 b 182 574 211 564 201 574 b 150 542 161 574 150 563 l 150 461 l 25 461 l 25 558 b 192 689 25 647 88 689 b 346 567 293 689 346 650 l 346 0 m 263 717 l 175 810 l 86 717 l 28 763 l 115 888 l 233 888 l 321 763 m 322 988 b 242 908 313 931 279 908 b 122 942 196 908 164 942 b 88 910 108 942 93 938 l 29 942 b 110 1019 39 997 71 1019 b 229 988 156 1019 188 988 b 264 1018 243 988 258 992 "},"Ậ":{"ha":388,"x_min":0,"x_max":0,"o":"m 242 0 l 226 210 l 156 210 l 142 0 l 4 0 l 94 922 l 292 922 l 382 0 m 164 331 l 218 331 l 194 688 l 189 688 m 279 946 l 190 1047 l 101 946 l 43 992 l 131 1125 l 250 1125 l 338 992 m 125 -186 l 125 -64 l 260 -64 l 260 -186 "},"ậ":{"ha":369,"x_min":0,"x_max":0,"o":"m 213 342 b 178 329 203 336 192 333 b 149 286 157 324 149 308 l 149 142 b 181 110 149 121 160 110 b 213 133 200 110 208 118 m 221 0 l 218 50 l 213 50 b 117 -7 200 28 181 -7 b 17 106 39 -7 17 42 l 17 261 b 142 407 17 350 51 383 b 211 456 190 419 211 425 l 211 546 b 182 574 211 564 201 574 b 150 542 161 574 150 563 l 150 461 l 25 461 l 25 558 b 192 689 25 647 88 689 b 346 567 293 689 346 650 l 346 0 m 269 717 l 181 818 l 92 717 l 33 763 l 121 896 l 240 896 l 328 763 m 115 -186 l 115 -64 l 250 -64 l 250 -186 "},"Ắ":{"ha":388,"x_min":0,"x_max":0,"o":"m 242 0 l 226 210 l 156 210 l 142 0 l 4 0 l 94 922 l 292 922 l 382 0 m 164 331 l 218 331 l 194 688 l 189 688 m 197 942 b 50 1100 113 942 50 988 l 146 1100 b 197 1015 147 1043 163 1015 b 249 1100 232 1015 247 1043 l 346 1100 b 197 942 346 988 283 942 m 194 1065 l 144 1117 l 267 1249 l 333 1171 "},"ắ":{"ha":369,"x_min":0,"x_max":0,"o":"m 213 342 b 178 329 203 336 192 333 b 149 286 157 324 149 308 l 149 142 b 181 110 149 121 160 110 b 213 133 200 110 208 118 m 221 0 l 218 50 l 213 50 b 117 -7 200 28 181 -7 b 17 106 39 -7 17 42 l 17 261 b 142 407 17 350 51 383 b 211 456 190 419 211 425 l 211 546 b 182 574 211 564 201 574 b 150 542 161 574 150 563 l 150 461 l 25 461 l 25 558 b 192 689 25 647 88 689 b 346 567 293 689 346 650 l 346 0 m 188 713 b 40 871 103 713 40 758 l 136 871 b 188 786 138 814 153 786 b 239 871 222 786 238 814 l 336 871 b 188 713 336 758 274 713 m 185 836 l 135 888 l 257 1019 l 324 942 "},"Ằ":{"ha":388,"x_min":0,"x_max":0,"o":"m 242 0 l 226 210 l 156 210 l 142 0 l 4 0 l 94 922 l 292 922 l 382 0 m 164 331 l 218 331 l 194 688 l 189 688 m 200 942 b 50 1100 113 942 50 988 l 149 1100 b 200 1015 150 1043 165 1015 b 250 1100 233 1015 250 1043 l 346 1100 b 200 942 346 988 285 942 m 63 1171 l 131 1249 l 253 1117 l 203 1065 "},"ằ":{"ha":369,"x_min":0,"x_max":0,"o":"m 213 342 b 178 329 203 336 192 333 b 149 286 157 324 149 308 l 149 142 b 181 110 149 121 160 110 b 213 133 200 110 208 118 m 221 0 l 218 50 l 213 50 b 117 -7 200 28 181 -7 b 17 106 39 -7 17 42 l 17 261 b 142 407 17 350 51 383 b 211 456 190 419 211 425 l 211 546 b 182 574 211 564 201 574 b 150 542 161 574 150 563 l 150 461 l 25 461 l 25 558 b 192 689 25 647 88 689 b 346 567 293 689 346 650 l 346 0 m 182 713 b 32 871 94 713 32 758 l 131 871 b 182 786 132 814 147 786 b 232 871 215 786 232 814 l 328 871 b 182 713 328 758 267 713 m 44 942 l 113 1019 l 235 888 l 185 836 "},"Ẳ":{"ha":388,"x_min":0,"x_max":0,"o":"m 242 0 l 226 210 l 156 210 l 142 0 l 4 0 l 94 922 l 292 922 l 382 0 m 164 331 l 218 331 l 194 688 l 189 688 m 193 942 b 44 1100 107 942 44 988 l 140 1100 b 192 1015 142 1043 157 1015 b 243 1100 226 1015 242 1043 l 340 1100 b 193 942 340 988 278 942 m 151 1072 b 201 1160 151 1135 201 1129 b 181 1174 201 1169 197 1174 b 131 1154 160 1174 147 1167 l 110 1221 b 194 1249 131 1239 168 1249 b 275 1172 240 1249 275 1219 b 213 1072 275 1108 213 1110 "},"ẳ":{"ha":369,"x_min":0,"x_max":0,"o":"m 213 342 b 178 329 203 336 192 333 b 149 286 157 324 149 308 l 149 142 b 181 110 149 121 160 110 b 213 133 200 110 208 118 m 221 0 l 218 50 l 213 50 b 117 -7 200 28 181 -7 b 17 106 39 -7 17 42 l 17 261 b 142 407 17 350 51 383 b 211 456 190 419 211 425 l 211 546 b 182 574 211 564 201 574 b 150 542 161 574 150 563 l 150 461 l 25 461 l 25 558 b 192 689 25 647 88 689 b 346 567 293 689 346 650 l 346 0 m 183 713 b 35 871 97 713 35 758 l 131 871 b 182 786 132 814 147 786 b 233 871 217 786 232 814 l 331 871 b 183 713 331 758 268 713 m 142 843 b 192 931 142 906 192 900 b 171 944 192 940 188 944 b 121 925 150 944 138 938 l 100 992 b 185 1019 121 1010 158 1019 b 265 943 231 1019 265 990 b 203 843 265 879 203 881 "},"Ẵ":{"ha":388,"x_min":0,"x_max":0,"o":"m 242 0 l 226 210 l 156 210 l 142 0 l 4 0 l 94 922 l 292 922 l 382 0 m 164 331 l 218 331 l 194 688 l 189 688 m 190 942 b 42 1100 104 942 42 988 l 138 1100 b 189 1015 139 1043 154 1015 b 240 1100 224 1015 239 1043 l 338 1100 b 190 942 338 988 275 942 m 335 1211 b 254 1131 325 1154 293 1131 b 136 1167 208 1131 176 1167 b 99 1133 121 1167 104 1161 l 42 1165 b 122 1244 51 1221 85 1244 b 240 1208 168 1244 200 1208 b 278 1242 257 1208 272 1215 "},"ẵ":{"ha":369,"x_min":0,"x_max":0,"o":"m 213 342 b 178 329 203 336 192 333 b 149 286 157 324 149 308 l 149 142 b 181 110 149 121 160 110 b 213 133 200 110 208 118 m 221 0 l 218 50 l 213 50 b 117 -7 200 28 181 -7 b 17 106 39 -7 17 42 l 17 261 b 142 407 17 350 51 383 b 211 456 190 419 211 425 l 211 546 b 182 574 211 564 201 574 b 150 542 161 574 150 563 l 150 461 l 25 461 l 25 558 b 192 689 25 647 88 689 b 346 567 293 689 346 650 l 346 0 m 179 713 b 31 871 93 713 31 758 l 126 871 b 178 786 128 814 143 786 b 229 871 213 786 228 814 l 326 871 b 179 713 326 758 264 713 m 324 982 b 243 901 314 925 282 901 b 125 938 197 901 165 938 b 88 904 110 938 93 932 l 31 936 b 111 1015 40 992 74 1015 b 229 979 157 1015 189 979 b 267 1013 246 979 261 986 "},"Ặ":{"ha":388,"x_min":0,"x_max":0,"o":"m 242 0 l 226 210 l 156 210 l 142 0 l 4 0 l 94 922 l 292 922 l 382 0 m 164 331 l 218 331 l 194 688 l 189 688 m 192 946 b 42 1124 104 946 42 1008 l 139 1124 b 192 1029 140 1058 157 1029 b 243 1124 225 1029 242 1058 l 342 1124 b 192 946 342 1007 279 946 m 125 -186 l 125 -64 l 260 -64 l 260 -186 "},"ặ":{"ha":369,"x_min":0,"x_max":0,"o":"m 213 342 b 178 329 203 336 192 333 b 149 286 157 324 149 308 l 149 142 b 181 110 149 121 160 110 b 213 133 200 110 208 118 m 221 0 l 218 50 l 213 50 b 117 -7 200 28 181 -7 b 17 106 39 -7 17 42 l 17 261 b 142 407 17 350 51 383 b 211 456 190 419 211 425 l 211 546 b 182 574 211 564 201 574 b 150 542 161 574 150 563 l 150 461 l 25 461 l 25 558 b 192 689 25 647 88 689 b 346 567 293 689 346 650 l 346 0 m 179 717 b 29 894 92 717 29 779 l 126 894 b 179 800 128 829 144 800 b 231 894 213 800 229 829 l 329 894 b 179 717 329 778 267 717 m 113 -186 l 113 -64 l 247 -64 l 247 -186 "},"Ẹ":{"ha":300,"x_min":0,"x_max":0,"o":"m 21 0 l 21 922 l 282 922 l 282 796 l 160 796 l 160 547 l 267 547 l 267 419 l 160 419 l 160 126 l 290 126 l 290 0 m 82 -186 l 82 -64 l 217 -64 l 217 -186 "},"ẹ":{"ha":374,"x_min":0,"x_max":0,"o":"m 350 156 b 185 -7 350 47 296 -7 b 24 156 75 -7 24 46 l 24 526 b 186 689 24 636 75 689 b 350 526 296 689 350 636 l 350 303 l 154 303 l 154 153 b 185 111 154 125 165 111 b 217 153 206 111 217 125 l 217 231 l 350 231 m 217 529 b 186 571 217 558 207 571 b 154 529 165 571 154 558 l 154 399 l 217 399 m 117 -186 l 117 -64 l 251 -64 l 251 -186 "},"Ẻ":{"ha":300,"x_min":0,"x_max":0,"o":"m 21 0 l 21 922 l 282 922 l 282 796 l 160 796 l 160 547 l 267 547 l 267 419 l 160 419 l 160 126 l 290 126 l 290 0 m 128 958 b 183 1054 128 1025 183 1021 b 163 1068 183 1064 178 1068 b 113 1047 142 1068 128 1061 l 90 1118 b 175 1147 113 1138 149 1147 b 257 1067 222 1147 257 1117 b 190 958 257 1000 190 1000 "},"ẻ":{"ha":374,"x_min":0,"x_max":0,"o":"m 350 156 b 185 -7 350 47 296 -7 b 24 156 75 -7 24 46 l 24 526 b 186 689 24 636 75 689 b 350 526 296 689 350 636 l 350 303 l 154 303 l 154 153 b 185 111 154 125 165 111 b 217 153 206 111 217 125 l 217 231 l 350 231 m 217 529 b 186 571 217 558 207 571 b 154 529 165 571 154 558 l 154 399 l 217 399 m 147 729 b 203 825 147 796 203 792 b 182 839 203 835 197 839 b 132 818 161 839 147 832 l 110 889 b 194 918 132 908 168 918 b 276 838 242 918 276 888 b 210 729 276 771 210 771 "},"Ẽ":{"ha":300,"x_min":0,"x_max":0,"o":"m 21 0 l 21 922 l 282 922 l 282 796 l 160 796 l 160 547 l 267 547 l 267 419 l 160 419 l 160 126 l 290 126 l 290 0 m 300 1042 b 219 961 289 985 257 961 b 100 997 172 961 140 997 b 63 964 85 997 69 992 l 6 996 b 88 1075 17 1051 49 1075 b 206 1039 133 1075 165 1039 b 243 1072 222 1039 236 1046 "},"ẽ":{"ha":374,"x_min":0,"x_max":0,"o":"m 350 156 b 185 -7 350 47 296 -7 b 24 156 75 -7 24 46 l 24 526 b 186 689 24 636 75 689 b 350 526 296 689 350 636 l 350 303 l 154 303 l 154 153 b 185 111 154 125 165 111 b 217 153 206 111 217 125 l 217 231 l 350 231 m 217 529 b 186 571 217 558 207 571 b 154 529 165 571 154 558 l 154 399 l 217 399 m 332 813 b 251 732 321 756 289 732 b 132 768 204 732 172 768 b 94 735 117 768 101 763 l 38 767 b 119 846 49 822 81 846 b 238 810 165 846 197 810 b 275 843 254 810 268 817 "},"Ế":{"ha":300,"x_min":0,"x_max":0,"o":"m 21 0 l 21 922 l 282 922 l 282 796 l 160 796 l 160 547 l 267 547 l 267 419 l 160 419 l 160 126 l 290 126 l 290 0 m 246 946 l 158 1039 l 69 946 l 11 992 l 99 1117 l 217 1117 l 304 992 m 288 1065 l 238 1117 l 358 1249 l 426 1171 "},"ế":{"ha":374,"x_min":0,"x_max":0,"o":"m 350 156 b 185 -7 350 47 296 -7 b 24 156 75 -7 24 46 l 24 526 b 186 689 24 636 75 689 b 350 526 296 689 350 636 l 350 303 l 154 303 l 154 153 b 185 111 154 125 165 111 b 217 153 206 111 217 125 l 217 231 l 350 231 m 217 529 b 186 571 217 558 207 571 b 154 529 165 571 154 558 l 154 399 l 217 399 m 275 717 l 188 810 l 99 717 l 40 763 l 128 888 l 246 888 l 333 763 m 317 836 l 267 888 l 388 1019 l 456 942 "},"Ề":{"ha":300,"x_min":0,"x_max":0,"o":"m 21 0 l 21 922 l 282 922 l 282 796 l 160 796 l 160 547 l 267 547 l 267 419 l 160 419 l 160 126 l 290 126 l 290 0 m 242 946 l 154 1039 l 65 946 l 7 992 l 94 1117 l 213 1117 l 300 992 m 192 1171 l 258 1249 l 381 1117 l 331 1065 "},"ề":{"ha":374,"x_min":0,"x_max":0,"o":"m 350 156 b 185 -7 350 47 296 -7 b 24 156 75 -7 24 46 l 24 526 b 186 689 24 636 75 689 b 350 526 296 689 350 636 l 350 303 l 154 303 l 154 153 b 185 111 154 125 165 111 b 217 153 206 111 217 125 l 217 231 l 350 231 m 217 529 b 186 571 217 558 207 571 b 154 529 165 571 154 558 l 154 399 l 217 399 m 265 717 l 178 810 l 89 717 l 31 763 l 118 888 l 236 888 l 324 763 m 215 942 l 282 1019 l 404 888 l 354 836 "},"Ể":{"ha":300,"x_min":0,"x_max":0,"o":"m 21 0 l 21 922 l 282 922 l 282 796 l 160 796 l 160 547 l 267 547 l 267 419 l 160 419 l 160 126 l 290 126 l 290 0 m 244 946 l 156 1039 l 67 946 l 8 992 l 96 1117 l 215 1117 l 303 992 m 271 1060 b 326 1154 271 1125 326 1121 b 306 1169 326 1165 321 1169 b 256 1149 285 1169 271 1163 l 233 1219 b 318 1249 256 1239 292 1249 b 400 1168 365 1249 400 1217 b 333 1060 400 1100 333 1100 "},"ể":{"ha":374,"x_min":0,"x_max":0,"o":"m 350 156 b 185 -7 350 47 296 -7 b 24 156 75 -7 24 46 l 24 526 b 186 689 24 636 75 689 b 350 526 296 689 350 636 l 350 303 l 154 303 l 154 153 b 185 111 154 125 165 111 b 217 153 206 111 217 125 l 217 231 l 350 231 m 217 529 b 186 571 217 558 207 571 b 154 529 165 571 154 558 l 154 399 l 217 399 m 263 717 l 174 810 l 85 717 l 26 763 l 114 888 l 233 888 l 321 763 m 289 831 b 344 925 289 896 344 892 b 324 940 344 936 339 940 b 274 919 303 940 289 933 l 251 990 b 336 1019 274 1010 310 1019 b 418 939 383 1019 418 988 b 351 831 418 871 351 871 "},"Ễ":{"ha":300,"x_min":0,"x_max":0,"o":"m 21 0 l 21 922 l 282 922 l 282 796 l 160 796 l 160 547 l 267 547 l 267 419 l 160 419 l 160 126 l 290 126 l 290 0 m 246 946 l 158 1039 l 69 946 l 11 992 l 99 1117 l 217 1117 l 304 992 m 306 1217 b 225 1138 296 1160 263 1138 b 106 1171 179 1138 147 1171 b 71 1139 92 1171 76 1167 l 13 1171 b 93 1249 22 1226 54 1249 b 213 1217 139 1249 171 1217 b 247 1247 226 1217 242 1221 "},"ễ":{"ha":374,"x_min":0,"x_max":0,"o":"m 350 156 b 185 -7 350 47 296 -7 b 24 156 75 -7 24 46 l 24 526 b 186 689 24 636 75 689 b 350 526 296 689 350 636 l 350 303 l 154 303 l 154 153 b 185 111 154 125 165 111 b 217 153 206 111 217 125 l 217 231 l 350 231 m 217 529 b 186 571 217 558 207 571 b 154 529 165 571 154 558 l 154 399 l 217 399 m 272 717 l 185 810 l 96 717 l 38 763 l 125 888 l 243 888 l 331 763 m 332 988 b 251 908 322 931 289 908 b 132 942 206 908 174 942 b 97 910 118 942 103 938 l 39 942 b 119 1019 49 997 81 1019 b 239 988 165 1019 197 988 b 274 1018 253 988 268 992 "},"Ệ":{"ha":300,"x_min":0,"x_max":0,"o":"m 21 0 l 21 922 l 282 922 l 282 796 l 160 796 l 160 547 l 267 547 l 267 419 l 160 419 l 160 126 l 290 126 l 290 0 m 249 946 l 160 1047 l 71 946 l 13 992 l 100 1125 l 219 1125 l 307 992 m 92 -186 l 92 -64 l 226 -64 l 226 -186 "},"ệ":{"ha":374,"x_min":0,"x_max":0,"o":"m 350 156 b 185 -7 350 47 296 -7 b 24 156 75 -7 24 46 l 24 526 b 186 689 24 636 75 689 b 350 526 296 689 350 636 l 350 303 l 154 303 l 154 153 b 185 111 154 125 165 111 b 217 153 206 111 217 125 l 217 231 l 350 231 m 217 529 b 186 571 217 558 207 571 b 154 529 165 571 154 558 l 154 399 l 217 399 m 274 717 l 185 818 l 96 717 l 38 763 l 125 896 l 244 896 l 332 763 m 117 -186 l 117 -64 l 251 -64 l 251 -186 "},"Ỉ":{"ha":185,"x_min":0,"x_max":0,"o":"m 21 0 l 21 922 l 163 922 l 163 0 m 56 958 b 111 1054 56 1025 111 1021 b 90 1068 111 1064 106 1068 b 40 1047 69 1068 56 1061 l 18 1118 b 103 1147 40 1138 76 1147 b 185 1067 150 1147 185 1117 b 118 958 185 1000 118 1000 "},"ỉ":{"ha":183,"x_min":0,"x_max":0,"o":"m 24 0 l 24 683 l 158 683 l 158 0 m 54 729 b 110 825 54 796 110 792 b 89 839 110 835 104 839 b 39 818 68 839 54 832 l 17 889 b 101 918 39 908 75 918 b 183 838 149 918 183 888 b 117 729 183 771 117 771 "},"Ị":{"ha":185,"x_min":0,"x_max":0,"o":"m 21 0 l 21 922 l 163 922 l 163 0 m 25 -186 l 25 -64 l 160 -64 l 160 -186 "},"ị":{"ha":183,"x_min":0,"x_max":0,"o":"m 24 0 l 24 683 l 158 683 l 158 0 m 24 754 l 24 878 l 158 878 l 158 754 m 21 -186 l 21 -64 l 156 -64 l 156 -186 "},"Ọ":{"ha":376,"x_min":0,"x_max":0,"o":"m 358 174 b 189 -7 358 53 297 -7 b 17 175 78 -7 17 58 l 17 743 b 188 928 17 860 79 928 b 358 740 296 928 358 858 m 219 756 b 188 797 219 783 208 797 b 157 756 167 797 157 783 l 157 164 b 188 122 157 136 167 122 b 219 164 208 122 219 136 m 121 -186 l 121 -64 l 256 -64 l 256 -186 "},"ọ":{"ha":372,"x_min":0,"x_max":0,"o":"m 349 156 b 186 -7 349 44 296 -7 b 24 156 75 -7 24 44 l 24 526 b 186 689 24 638 75 689 b 349 526 296 689 349 638 m 217 526 b 186 568 217 554 206 568 b 154 526 167 568 154 554 l 154 156 b 186 114 154 128 167 114 b 217 156 206 114 217 128 m 119 -186 l 119 -64 l 254 -64 l 254 -186 "},"Ỏ":{"ha":376,"x_min":0,"x_max":0,"o":"m 358 174 b 189 -7 358 53 297 -7 b 17 175 78 -7 17 58 l 17 743 b 188 928 17 860 79 928 b 358 740 296 928 358 858 m 219 756 b 188 797 219 783 208 797 b 157 756 167 797 157 783 l 157 164 b 188 122 157 136 167 122 b 219 164 208 122 219 136 m 151 958 b 207 1054 151 1025 207 1021 b 186 1068 207 1064 201 1068 b 136 1047 165 1068 151 1061 l 114 1118 b 199 1147 136 1138 172 1147 b 281 1067 246 1147 281 1117 b 214 958 281 1000 214 1000 "},"ỏ":{"ha":372,"x_min":0,"x_max":0,"o":"m 349 156 b 186 -7 349 44 296 -7 b 24 156 75 -7 24 44 l 24 526 b 186 689 24 638 75 689 b 349 526 296 689 349 638 m 217 526 b 186 568 217 554 206 568 b 154 526 167 568 154 554 l 154 156 b 186 114 154 128 167 114 b 217 156 206 114 217 128 m 150 729 b 206 825 150 796 206 792 b 185 839 206 835 200 839 b 135 818 164 839 150 832 l 113 889 b 197 918 135 908 171 918 b 279 838 244 918 279 888 b 213 729 279 771 213 771 "},"Ố":{"ha":376,"x_min":0,"x_max":0,"o":"m 358 174 b 189 -7 358 53 297 -7 b 17 175 78 -7 17 58 l 17 743 b 188 928 17 860 79 928 b 358 740 296 928 358 858 m 219 756 b 188 797 219 783 208 797 b 157 756 167 797 157 783 l 157 164 b 188 122 157 136 167 122 b 219 164 208 122 219 136 m 281 946 l 193 1039 l 104 946 l 46 992 l 133 1117 l 251 1117 l 339 992 m 322 1065 l 272 1117 l 393 1249 l 461 1171 "},"ố":{"ha":372,"x_min":0,"x_max":0,"o":"m 349 156 b 186 -7 349 44 296 -7 b 24 156 75 -7 24 44 l 24 526 b 186 689 24 638 75 689 b 349 526 296 689 349 638 m 217 526 b 186 568 217 554 206 568 b 154 526 167 568 154 554 l 154 156 b 186 114 154 128 167 114 b 217 156 206 114 217 128 m 272 717 l 185 810 l 96 717 l 38 763 l 125 888 l 243 888 l 331 763 m 314 836 l 264 888 l 385 1019 l 453 942 "},"Ồ":{"ha":376,"x_min":0,"x_max":0,"o":"m 358 174 b 189 -7 358 53 297 -7 b 17 175 78 -7 17 58 l 17 743 b 188 928 17 860 79 928 b 358 740 296 928 358 858 m 219 756 b 188 797 219 783 208 797 b 157 756 167 797 157 783 l 157 164 b 188 122 157 136 167 122 b 219 164 208 122 219 136 m 279 946 l 192 1039 l 103 946 l 44 992 l 132 1117 l 250 1117 l 338 992 m 229 1171 l 296 1249 l 418 1117 l 368 1065 "},"ồ":{"ha":372,"x_min":0,"x_max":0,"o":"m 349 156 b 186 -7 349 44 296 -7 b 24 156 75 -7 24 44 l 24 526 b 186 689 24 638 75 689 b 349 526 296 689 349 638 m 217 526 b 186 568 217 554 206 568 b 154 526 167 568 154 554 l 154 156 b 186 114 154 128 167 114 b 217 156 206 114 217 128 m 271 717 l 183 810 l 94 717 l 36 763 l 124 888 l 242 888 l 329 763 m 221 942 l 288 1019 l 410 888 l 360 836 "},"Ổ":{"ha":376,"x_min":0,"x_max":0,"o":"m 358 174 b 189 -7 358 53 297 -7 b 17 175 78 -7 17 58 l 17 743 b 188 928 17 860 79 928 b 358 740 296 928 358 858 m 219 756 b 188 797 219 783 208 797 b 157 756 167 797 157 783 l 157 164 b 188 122 157 136 167 122 b 219 164 208 122 219 136 m 276 946 l 188 1039 l 99 946 l 40 992 l 128 1117 l 247 1117 l 335 992 m 303 1060 b 358 1154 303 1125 358 1121 b 338 1169 358 1165 353 1169 b 288 1149 317 1169 303 1163 l 265 1219 b 350 1249 288 1239 324 1249 b 432 1168 397 1249 432 1217 b 365 1060 432 1100 365 1100 "},"ổ":{"ha":372,"x_min":0,"x_max":0,"o":"m 349 156 b 186 -7 349 44 296 -7 b 24 156 75 -7 24 44 l 24 526 b 186 689 24 638 75 689 b 349 526 296 689 349 638 m 217 526 b 186 568 217 554 206 568 b 154 526 167 568 154 554 l 154 156 b 186 114 154 128 167 114 b 217 156 206 114 217 128 m 269 717 l 181 810 l 92 717 l 33 763 l 121 888 l 240 888 l 328 763 m 296 831 b 351 925 296 896 351 892 b 331 940 351 936 346 940 b 281 919 310 940 296 933 l 258 990 b 343 1019 281 1010 317 1019 b 425 939 390 1019 425 988 b 358 831 425 871 358 871 "},"Ỗ":{"ha":376,"x_min":0,"x_max":0,"o":"m 358 174 b 189 -7 358 53 297 -7 b 17 175 78 -7 17 58 l 17 743 b 188 928 17 860 79 928 b 358 740 296 928 358 858 m 219 756 b 188 797 219 783 208 797 b 157 756 167 797 157 783 l 157 164 b 188 122 157 136 167 122 b 219 164 208 122 219 136 m 278 946 l 190 1039 l 101 946 l 43 992 l 131 1117 l 249 1117 l 336 992 m 338 1217 b 257 1138 328 1160 294 1138 b 138 1171 211 1138 179 1171 b 103 1139 124 1171 108 1167 l 44 1171 b 125 1249 54 1226 86 1249 b 244 1217 171 1249 203 1217 b 279 1247 258 1217 274 1221 "},"ỗ":{"ha":372,"x_min":0,"x_max":0,"o":"m 349 156 b 186 -7 349 44 296 -7 b 24 156 75 -7 24 44 l 24 526 b 186 689 24 638 75 689 b 349 526 296 689 349 638 m 217 526 b 186 568 217 554 206 568 b 154 526 167 568 154 554 l 154 156 b 186 114 154 128 167 114 b 217 156 206 114 217 128 m 275 717 l 188 810 l 99 717 l 40 763 l 128 888 l 246 888 l 333 763 m 335 988 b 254 908 325 931 292 908 b 135 942 208 908 176 942 b 100 910 121 942 106 938 l 42 942 b 122 1019 51 997 83 1019 b 242 988 168 1019 200 988 b 276 1018 256 988 271 992 "},"Ộ":{"ha":376,"x_min":0,"x_max":0,"o":"m 358 174 b 189 -7 358 53 297 -7 b 17 175 78 -7 17 58 l 17 743 b 188 928 17 860 79 928 b 358 740 296 928 358 858 m 219 756 b 188 797 219 783 208 797 b 157 756 167 797 157 783 l 157 164 b 188 122 157 136 167 122 b 219 164 208 122 219 136 m 276 946 l 188 1047 l 99 946 l 40 992 l 128 1125 l 247 1125 l 335 992 m 121 -186 l 121 -64 l 256 -64 l 256 -186 "},"ộ":{"ha":372,"x_min":0,"x_max":0,"o":"m 349 156 b 186 -7 349 44 296 -7 b 24 156 75 -7 24 44 l 24 526 b 186 689 24 638 75 689 b 349 526 296 689 349 638 m 217 526 b 186 568 217 554 206 568 b 154 526 167 568 154 554 l 154 156 b 186 114 154 128 167 114 b 217 156 206 114 217 128 m 275 717 l 186 818 l 97 717 l 39 763 l 126 896 l 246 896 l 333 763 m 118 -186 l 118 -64 l 253 -64 l 253 -186 "},"Ớ":{"ha":439,"x_min":0,"x_max":0,"o":"m 358 174 b 189 -7 358 51 297 -7 b 17 175 76 -7 17 58 l 17 743 b 186 928 17 861 79 928 b 313 918 228 928 278 918 b 363 967 350 918 363 929 b 358 1018 363 978 361 1006 l 429 1018 b 439 956 438 1006 439 979 b 372 839 439 872 421 839 b 338 843 363 839 350 840 b 358 740 351 815 358 781 m 219 756 b 188 797 219 783 208 797 b 157 756 167 797 157 783 l 157 164 b 188 122 157 136 167 122 b 219 164 208 122 219 136 m 151 946 l 100 999 l 250 1167 l 318 1086 "},"ớ":{"ha":422,"x_min":0,"x_max":0,"o":"m 151 717 l 100 769 l 250 938 l 318 857 m 349 156 b 186 -7 349 43 297 -7 b 24 156 75 -7 24 43 l 24 526 b 181 689 24 635 76 689 b 299 679 226 689 265 679 b 346 728 336 679 346 692 b 342 779 346 739 344 767 l 413 779 b 422 715 421 767 422 742 b 356 600 422 632 404 600 b 338 601 349 600 344 600 b 349 526 344 579 349 554 m 217 526 b 186 568 217 554 207 568 b 154 526 165 568 154 554 l 154 156 b 186 114 154 128 165 114 b 217 156 207 114 217 128 "},"Ờ":{"ha":439,"x_min":0,"x_max":0,"o":"m 358 174 b 189 -7 358 51 297 -7 b 17 175 76 -7 17 58 l 17 743 b 186 928 17 861 79 928 b 313 918 228 928 278 918 b 363 967 350 918 363 929 b 358 1018 363 978 361 1006 l 429 1018 b 439 956 438 1006 439 979 b 372 839 439 872 421 839 b 338 843 363 839 350 840 b 358 740 351 815 358 781 m 219 756 b 188 797 219 783 208 797 b 157 756 167 797 157 783 l 157 164 b 188 122 157 136 167 122 b 219 164 208 122 219 136 m 58 1086 l 128 1167 l 276 999 l 225 946 "},"ờ":{"ha":422,"x_min":0,"x_max":0,"o":"m 57 857 l 126 938 l 275 769 l 224 717 m 349 156 b 186 -7 349 43 297 -7 b 24 156 75 -7 24 43 l 24 526 b 181 689 24 635 76 689 b 299 679 226 689 265 679 b 346 728 336 679 346 692 b 342 779 346 739 344 767 l 413 779 b 422 715 421 767 422 742 b 356 600 422 632 404 600 b 338 601 349 600 344 600 b 349 526 344 579 349 554 m 217 526 b 186 568 217 554 207 568 b 154 526 165 568 154 554 l 154 156 b 186 114 154 128 165 114 b 217 156 207 114 217 128 "},"Ở":{"ha":439,"x_min":0,"x_max":0,"o":"m 358 174 b 189 -7 358 51 297 -7 b 17 175 76 -7 17 58 l 17 743 b 186 928 17 861 79 928 b 313 918 228 928 278 918 b 363 967 350 918 363 929 b 358 1018 363 978 361 1006 l 429 1018 b 439 956 438 1006 439 979 b 372 839 439 872 421 839 b 338 843 363 839 350 840 b 358 740 351 815 358 781 m 219 756 b 188 797 219 783 208 797 b 157 756 167 797 157 783 l 157 164 b 188 122 157 136 167 122 b 219 164 208 122 219 136 m 150 958 b 206 1054 150 1025 206 1021 b 185 1068 206 1064 200 1068 b 135 1047 164 1068 150 1061 l 113 1118 b 197 1147 135 1138 171 1147 b 279 1067 244 1147 279 1117 b 213 958 279 1000 213 1000 "},"ở":{"ha":422,"x_min":0,"x_max":0,"o":"m 349 156 b 186 -7 349 43 297 -7 b 24 156 75 -7 24 43 l 24 526 b 181 689 24 635 76 689 b 299 679 226 689 265 679 b 346 728 336 679 346 692 b 342 779 346 739 344 767 l 413 779 b 422 715 421 767 422 742 b 356 600 422 632 404 600 b 338 601 349 600 344 600 b 349 526 344 579 349 554 m 217 526 b 186 568 217 554 207 568 b 154 526 165 568 154 554 l 154 156 b 186 114 154 128 165 114 b 217 156 207 114 217 128 m 153 729 b 208 825 153 796 208 792 b 188 839 208 835 203 839 b 138 818 167 839 153 832 l 115 889 b 200 918 138 908 174 918 b 282 838 247 918 282 888 b 215 729 282 771 215 771 "},"Ỡ":{"ha":439,"x_min":0,"x_max":0,"o":"m 358 174 b 189 -7 358 51 297 -7 b 17 175 76 -7 17 58 l 17 743 b 186 928 17 861 79 928 b 313 918 228 928 278 918 b 363 967 350 918 363 929 b 358 1018 363 978 361 1006 l 429 1018 b 439 956 438 1006 439 979 b 372 839 439 872 421 839 b 338 843 363 839 350 840 b 358 740 351 815 358 781 m 219 756 b 188 797 219 783 208 797 b 157 756 167 797 157 783 l 157 164 b 188 122 157 136 167 122 b 219 164 208 122 219 136 m 336 1042 b 256 961 325 985 293 961 b 136 997 208 961 176 997 b 99 964 121 997 106 992 l 42 996 b 124 1075 53 1051 85 1075 b 242 1039 169 1075 201 1039 b 279 1072 258 1039 272 1046 "},"ỡ":{"ha":422,"x_min":0,"x_max":0,"o":"m 349 156 b 186 -7 349 43 297 -7 b 24 156 75 -7 24 43 l 24 526 b 181 689 24 635 76 689 b 299 679 226 689 265 679 b 346 728 336 679 346 692 b 342 779 346 739 344 767 l 413 779 b 422 715 421 767 422 742 b 356 600 422 632 404 600 b 338 601 349 600 344 600 b 349 526 344 579 349 554 m 217 526 b 186 568 217 554 207 568 b 154 526 165 568 154 554 l 154 156 b 186 114 154 128 165 114 b 217 156 207 114 217 128 m 333 813 b 253 732 322 756 290 732 b 133 768 206 732 174 768 b 96 735 118 768 103 763 l 39 767 b 121 846 50 822 82 846 b 239 810 167 846 199 810 b 276 843 256 810 269 817 "},"Ợ":{"ha":439,"x_min":0,"x_max":0,"o":"m 358 174 b 189 -7 358 51 297 -7 b 17 175 76 -7 17 58 l 17 743 b 186 928 17 861 79 928 b 313 918 228 928 278 918 b 363 967 350 918 363 929 b 358 1018 363 978 361 1006 l 429 1018 b 439 956 438 1006 439 979 b 372 839 439 872 421 839 b 338 843 363 839 350 840 b 358 740 351 815 358 781 m 219 756 b 188 797 219 783 208 797 b 157 756 167 797 157 783 l 157 164 b 188 122 157 136 167 122 b 219 164 208 122 219 136 m 121 -186 l 121 -64 l 256 -64 l 256 -186 "},"ợ":{"ha":422,"x_min":0,"x_max":0,"o":"m 349 156 b 186 -7 349 43 297 -7 b 24 156 75 -7 24 43 l 24 526 b 181 689 24 635 76 689 b 299 679 226 689 265 679 b 346 728 336 679 346 692 b 342 779 346 739 344 767 l 413 779 b 422 715 421 767 422 742 b 356 600 422 632 404 600 b 338 601 349 600 344 600 b 349 526 344 579 349 554 m 217 526 b 186 568 217 554 207 568 b 154 526 165 568 154 554 l 154 156 b 186 114 154 128 165 114 b 217 156 207 114 217 128 m 119 -186 l 119 -64 l 254 -64 l 254 -186 "},"Ụ":{"ha":383,"x_min":0,"x_max":0,"o":"m 221 922 l 361 922 l 361 175 b 192 -7 361 58 303 -7 b 21 174 83 -7 21 53 l 21 922 l 158 922 l 158 164 b 190 122 158 136 169 122 b 221 164 211 122 221 136 m 121 -186 l 121 -64 l 256 -64 l 256 -186 "},"ụ":{"ha":378,"x_min":0,"x_max":0,"o":"m 160 683 l 160 158 b 189 110 160 122 164 110 b 218 158 213 110 218 122 l 218 683 l 354 683 l 354 0 l 226 0 l 225 58 l 219 58 b 126 -7 194 10 169 -7 b 24 158 36 -7 24 64 l 24 683 m 122 -186 l 122 -64 l 257 -64 l 257 -186 "},"Ủ":{"ha":383,"x_min":0,"x_max":0,"o":"m 221 922 l 361 922 l 361 175 b 192 -7 361 58 303 -7 b 21 174 83 -7 21 53 l 21 922 l 158 922 l 158 164 b 190 122 158 136 169 122 b 221 164 211 122 221 136 m 154 958 b 210 1054 154 1025 210 1021 b 189 1068 210 1064 204 1068 b 139 1047 168 1068 154 1061 l 117 1118 b 201 1147 139 1138 175 1147 b 283 1067 249 1147 283 1117 b 217 958 283 1000 217 1000 "},"ủ":{"ha":378,"x_min":0,"x_max":0,"o":"m 160 683 l 160 158 b 189 110 160 122 164 110 b 218 158 213 110 218 122 l 218 683 l 354 683 l 354 0 l 226 0 l 225 58 l 219 58 b 126 -7 194 10 169 -7 b 24 158 36 -7 24 64 l 24 683 m 154 729 b 210 825 154 796 210 792 b 189 839 210 835 204 839 b 139 818 168 839 154 832 l 117 889 b 201 918 139 908 175 918 b 283 838 249 918 283 888 b 217 729 283 771 217 771 "},"Ứ":{"ha":478,"x_min":0,"x_max":0,"o":"m 221 922 l 361 922 b 400 969 390 922 400 935 b 396 1018 400 981 400 1004 l 468 1018 b 478 954 475 1006 478 981 b 411 839 478 871 458 839 b 361 847 396 839 379 843 l 361 175 b 192 -7 361 58 304 -7 b 21 174 83 -7 21 51 l 21 922 l 158 922 l 158 164 b 190 122 158 136 169 122 b 221 164 211 122 221 136 m 151 946 l 100 999 l 250 1167 l 318 1086 "},"ứ":{"ha":467,"x_min":0,"x_max":0,"o":"m 151 717 l 100 769 l 250 938 l 318 857 m 160 683 l 160 144 b 186 110 160 121 169 110 b 218 142 203 110 213 121 l 218 683 l 354 683 b 389 731 379 683 389 694 b 385 779 389 743 388 765 l 457 779 b 467 714 464 767 467 742 b 399 600 467 633 449 600 b 354 608 386 600 369 603 l 354 0 l 226 0 l 225 58 l 221 58 b 131 -7 203 22 176 -7 b 24 179 40 -7 24 75 l 24 683 "},"Ừ":{"ha":478,"x_min":0,"x_max":0,"o":"m 221 922 l 361 922 b 400 969 390 922 400 935 b 396 1018 400 981 400 1004 l 468 1018 b 478 954 475 1006 478 981 b 411 839 478 871 458 839 b 361 847 396 839 379 843 l 361 175 b 192 -7 361 58 304 -7 b 21 174 83 -7 21 51 l 21 922 l 158 922 l 158 164 b 190 122 158 136 169 122 b 221 164 211 122 221 136 m 63 1086 l 132 1167 l 281 999 l 229 946 "},"ừ":{"ha":467,"x_min":0,"x_max":0,"o":"m 60 857 l 129 938 l 278 769 l 226 717 m 160 683 l 160 144 b 186 110 160 121 169 110 b 218 142 203 110 213 121 l 218 683 l 354 683 b 389 731 379 683 389 694 b 385 779 389 743 388 765 l 457 779 b 467 714 464 767 467 742 b 399 600 467 633 449 600 b 354 608 386 600 369 603 l 354 0 l 226 0 l 225 58 l 221 58 b 131 -7 203 22 176 -7 b 24 179 40 -7 24 75 l 24 683 "},"Ử":{"ha":478,"x_min":0,"x_max":0,"o":"m 221 922 l 361 922 b 400 969 390 922 400 935 b 396 1018 400 981 400 1004 l 468 1018 b 478 954 475 1006 478 981 b 411 839 478 871 458 839 b 361 847 396 839 379 843 l 361 175 b 192 -7 361 58 304 -7 b 21 174 83 -7 21 51 l 21 922 l 158 922 l 158 164 b 190 122 158 136 169 122 b 221 164 211 122 221 136 m 154 958 b 210 1054 154 1025 210 1021 b 189 1068 210 1064 204 1068 b 139 1047 168 1068 154 1061 l 117 1118 b 201 1147 139 1138 175 1147 b 283 1067 249 1147 283 1117 b 217 958 283 1000 217 1000 "}}}
